22600 0 4 5
8 Inventor 20 ASM 226.0.3.65535 NT 24 Thu Jun 22 17:31:49 2023
10 1e-06 1e-10
-0 asmheader $-1 -1 @13 226.0.3.65535 #
-1 body $-1 39 $-1 $4 $-1 $-1 #
-2 body $-1 40 $-1 $5 $-1 $-1 #
-3 body $-1 41 $-1 $6 $-1 $-1 #
-4 lump $-1 -1 $-1 $-1 $7 $1 #
-5 lump $-1 -1 $-1 $-1 $8 $2 #
-6 lump $-1 -1 $-1 $-1 $9 $3 #
-7 shell $-1 -1 $-1 $-1 $-1 $-1 $10 $4 #
-8 shell $-1 -1 $-1 $-1 $-1 $11 $-1 $5 #
-9 shell $-1 -1 $-1 $-1 $-1 $-1 $12 $6 #
-10 wire $-1 -1 $-1 $-1 $13 $7 $-1 out #
-11 face $-1 -1 $-1 $-1 $14 $8 $-1 $15 forward single #
-12 wire $-1 -1 $-1 $-1 $16 $9 $-1 out #
-13 coedge $-1 -1 $-1 $13 $13 $-1 $17 forward $10 0 $-1 #
-14 loop $-1 -1 $-1 $-1 $18 $11 #
-15 plane-surface $-1 -1 $-1 0 0 10 0 0 1 1 0 0 forward_v I I I I #
-16 coedge $-1 -1 $-1 $16 $16 $-1 $19 forward $12 0 $-1 #
-17 edge $20 -1 $-1 $21 -3.14159 $21 3.14159 $13 $22 forward @7 unknown #
-18 coedge $-1 -1 $-1 $18 $18 $-1 $23 forward $14 0 $-1 #
-19 edge $24 -1 $-1 $25 0 $25 6.28319 $16 $26 forward @7 unknown #
-20 NMx_Generated_Brep_tag-NMx_Brep_Name_tag-NMx_Brep_tag-NamingMatching-attrib $-1 -1 $-1 $-1 $17 43 0 2 0 2 #
-21 vertex $-1 -1 $-1 $17 0 $27 #
-22 ellipse-curve $-1 -1 $-1 0 0 0 0 0 -1 -3.375 -0 -0 1 I I #
-23 edge $28 -1 $-1 $29 0 $29 6.28319 $18 $30 forward @7 unknown #
-24 NMx_Generated_Brep_tag-NMx_Brep_Name_tag-NMx_Brep_tag-NamingMatching-attrib $-1 -1 $-1 $-1 $19 43 0 4 0 2 #
-25 vertex $-1 -1 $-1 $19 0 $31 #
-26 ellipse-curve $-1 -1 $-1 0 0 0 0 0 -1 -2.875 0 0 1 I I #
-27 point $-1 -1 $-1 33.75 4.13318e-15 0 #
-28 NMx_Generated_Brep_tag-NMx_Brep_Name_tag-NMx_Brep_tag-NamingMatching-attrib $-1 -1 $-1 $-1 $23 43 0 3 0 2 #
-29 vertex $-1 -1 $-1 $23 0 $32 #
-30 ellipse-curve $-1 -1 $-1 0 0 10 0 0 1 1.25 0 0 1 I I #
-31 point $-1 -1 $-1 -28.75 0 0 #
-32 point $-1 -1 $-1 12.5 0 10 #

End-of-ACIS-data
