22600 0 5 5
8 Inventor 20 ASM 226.0.3.65535 NT 24 Thu Jun 22 18:23:54 2023
10 1e-06 1e-10
-0 asmheader $-1 -1 @13 226.0.3.65535 #
-1 body $-1 11 $-1 $5 $-1 $-1 #
-2 body $-1 12 $-1 $6 $-1 $-1 #
-3 body $-1 13 $-1 $7 $-1 $-1 #
-4 body $-1 14 $-1 $8 $-1 $-1 #
-5 lump $-1 -1 $-1 $-1 $9 $1 #
-6 lump $-1 -1 $-1 $-1 $10 $2 #
-7 lump $-1 -1 $-1 $-1 $11 $3 #
-8 lump $-1 -1 $-1 $-1 $12 $4 #
-9 shell $-1 -1 $-1 $-1 $-1 $-1 $13 $5 #
-10 shell $-1 -1 $-1 $-1 $-1 $-1 $14 $6 #
-11 shell $-1 -1 $-1 $-1 $-1 $-1 $15 $7 #
-12 shell $-1 -1 $-1 $-1 $-1 $16 $-1 $8 #
-13 wire $-1 -1 $-1 $-1 $17 $9 $-1 out #
-14 wire $-1 -1 $-1 $-1 $18 $10 $-1 out #
-15 wire $-1 -1 $-1 $-1 $19 $11 $-1 out #
-16 face $20 -1 $-1 $-1 $21 $12 $-1 $22 forward single #
-17 coedge $-1 -1 $-1 $23 $24 $-1 $25 forward $13 0 $-1 #
-18 coedge $-1 -1 $-1 $26 $27 $-1 $28 forward $14 0 $-1 #
-19 coedge $-1 -1 $-1 $29 $29 $-1 $30 forward $15 0 $-1 #
-20 NMx_Feature_Orientation-NamingMatching-attrib $-1 -1 $31 $-1 $16 43 $32 $33 #
-21 loop $-1 -1 $-1 $34 $35 $16 #
-22 sphere-surface $-1 -1 $-1 0 15.5 3.5 0.180005 1 0 0 0 0 1 forward_v I I I I #
-23 coedge $-1 -1 $-1 $36 $17 $-1 $37 forward $13 0 $-1 #
-24 coedge $-1 -1 $-1 $17 $36 $-1 $38 forward $13 0 $-1 #
-25 edge $39 -1 $-1 $40 0 $41 0.6 $17 $42 forward @7 unknown #
-26 coedge $-1 -1 $-1 $43 $18 $-1 $44 forward $14 0 $-1 #
-27 coedge $-1 -1 $-1 $18 $45 $-1 $46 forward $14 0 $-1 #
-28 edge $47 -1 $-1 $48 5.35408e-17 $49 1.85459 $18 $50 forward @7 unknown #
-29 coedge $-1 -1 $-1 $19 $19 $-1 $51 forward $15 0 $-1 #
-30 edge $52 -1 $-1 $53 0 $54 3.14159 $19 $55 forward @7 unknown #
-31 NMx_Generated_Brep_tag-NMx_Brep_Name_tag-NMx_Brep_tag-NamingMatching-attrib $-1 -1 $-1 $20 $16 43 1 296 -1 4 0 20 #
-32 ellipse-curve $-1 -1 $-1 0 15.5 3.5 0 0 1 0 0.180005 0 1 I I #
-33 ellipse-curve $-1 -1 $-1 0 15.5 3.5 1 -0 0 0 0 -0.180005 1 F 0 F 3.14159 #
-34 loop $-1 -1 $-1 $-1 $56 $16 #
-35 coedge $-1 -1 $-1 $35 $35 $-1 $57 forward $21 0 $-1 #
-36 coedge $-1 -1 $-1 $24 $23 $-1 $58 forward $13 0 $-1 #
-37 edge $59 -1 $-1 $41 0 $60 0.7 $23 $61 forward @7 unknown #
-38 edge $62 -1 $-1 $63 0 $40 0.7 $24 $64 forward @7 unknown #
-39 NMx_Generated_Brep_tag-NMx_Brep_Name_tag-NMx_Brep_tag-NamingMatching-attrib $-1 -1 $-1 $-1 $25 43 0 3 0 2 #
-40 vertex $65 -1 $-1 $25 0 $66 #
-41 vertex $67 -1 $-1 $25 1 $68 #
-42 straight-curve $-1 -1 $-1 0 12.5 7 0 1 0 F 0 F 0.6 #
-43 coedge $-1 -1 $-1 $69 $26 $-1 $70 forward $14 0 $-1 #
-44 edge $71 -1 $-1 $49 0 $72 0.206 $26 $73 forward @7 unknown #
-45 coedge $-1 -1 $-1 $27 $74 $-1 $75 forward $14 0 $-1 #
-46 edge $76 -1 $-1 $77 0 $48 0.206 $27 $78 forward @7 unknown #
-47 NMx_Generated_Brep_tag-NMx_Brep_Name_tag-NMx_Brep_tag-NamingMatching-attrib $-1 -1 $-1 $-1 $28 43 0 4 0 2 #
-48 vertex $79 -1 $-1 $28 0 $80 #
-49 vertex $81 -1 $-1 $28 1 $82 #
-50 ellipse-curve $-1 -1 $-1 0 15.5 3.5 1 -0 0 0 0.108 -0.144 1 F 5.35408e-17 F 1.85459 #
-51 edge $83 -1 $-1 $54 -0 $53 0.36001 $29 $84 forward @7 unknown #
-52 NMx_Generated_Brep_tag-NMx_Brep_Name_tag-NMx_Brep_tag-NamingMatching-attrib $-1 -1 $-1 $-1 $30 43 0 4 0 2 #
-53 vertex $85 -1 $-1 $30 0 $86 #
-54 vertex $87 -1 $-1 $30 1 $88 #
-55 ellipse-curve $-1 -1 $-1 0 15.5 3.5 1 -0 0 0 0 -0.180005 1 F 0 F 3.14159 #
-56 coedge $-1 -1 $-1 $56 $56 $-1 $89 forward $34 0 $-1 #
-57 edge $-1 -1 $-1 $90 1 $90 0 $35 $-1 forward @7 unknown #
-58 edge $91 -1 $-1 $60 0 $63 0.6 $36 $92 forward @7 unknown #
-59 NMx_Generated_Brep_tag-NMx_Brep_Name_tag-NMx_Brep_tag-NamingMatching-attrib $-1 -1 $-1 $-1 $37 43 0 8 0 2 #
-60 vertex $93 -1 $-1 $37 1 $94 #
-61 straight-curve $-1 -1 $-1 0 18.5 7 0 3.17207e-16 -1 F 0 F 0.7 #
-62 NMx_Generated_Brep_tag-NMx_Brep_Name_tag-NMx_Brep_tag-NamingMatching-attrib $-1 -1 $-1 $-1 $38 43 0 5 0 2 #
-63 vertex $95 -1 $-1 $58 1 $96 #
-64 straight-curve $-1 -1 $-1 0 12.5 -1.11022e-15 0 0 1 F 0 F 0.7 #
-65 NMx_Generated_Brep_tag-NMx_Brep_Name_tag-NMx_Brep_tag-NamingMatching-attrib $-1 -1 $-1 $-1 $40 43 0 1 0 1 #
-66 point $-1 -1 $-1 0 12.5 7 #
-67 NMx_Generated_Brep_tag-NMx_Brep_Name_tag-NMx_Brep_tag-NamingMatching-attrib $-1 -1 $-1 $-1 $41 43 0 2 0 1 #
-68 point $-1 -1 $-1 0 18.5 7 #
-69 coedge $-1 -1 $-1 $97 $43 $-1 $98 forward $14 0 $-1 #
-70 edge $99 -1 $-1 $72 -0 $100 0.216 $43 $101 forward @7 unknown #
-71 NMx_Generated_Brep_tag-NMx_Brep_Name_tag-NMx_Brep_tag-NamingMatching-attrib $-1 -1 $-1 $-1 $44 43 0 6 0 2 #
-72 vertex $102 -1 $-1 $44 1 $103 #
-73 straight-curve $-1 -1 $-1 0 16.58 4.94 -0 -0 1 F 0 F 0.206 #
-74 coedge $-1 -1 $-1 $45 $97 $-1 $104 forward $14 0 $-1 #
-75 edge $105 -1 $-1 $106 0 $77 0.216 $45 $107 forward @7 unknown #
-76 NMx_Generated_Brep_tag-NMx_Brep_Name_tag-NMx_Brep_tag-NamingMatching-attrib $-1 -1 $-1 $-1 $46 43 0 18 0 2 #
-77 vertex $108 -1 $-1 $75 1 $109 #
-78 straight-curve $-1 -1 $-1 0 16.58 -1.11022e-15 -0 1.07789e-15 1 F 0 F 0.206 #
-79 NMx_Generated_Brep_tag-NMx_Brep_Name_tag-NMx_Brep_tag-NamingMatching-attrib $-1 -1 $-1 $-1 $48 43 0 1 0 1 #
-80 point $-1 -1 $-1 0 16.58 2.06 #
-81 NMx_Generated_Brep_tag-NMx_Brep_Name_tag-NMx_Brep_tag-NamingMatching-attrib $-1 -1 $-1 $-1 $49 43 0 2 0 1 #
-82 point $-1 -1 $-1 0 16.58 4.94 #
-83 NMx_Generated_Brep_tag-NMx_Brep_Name_tag-NMx_Brep_tag-NamingMatching-attrib $-1 -1 $-1 $-1 $51 43 0 5 0 2 #
-84 straight-curve $-1 -1 $-1 0 15.5 5.30005 -0 -0 -1 F -0 F 0.36001 #
-85 NMx_Generated_Brep_tag-NMx_Brep_Name_tag-NMx_Brep_tag-NamingMatching-attrib $-1 -1 $-1 $-1 $53 43 0 1 0 1 #
-86 point $-1 -1 $-1 0 15.5 1.69995 #
-87 NMx_Generated_Brep_tag-NMx_Brep_Name_tag-NMx_Brep_tag-NamingMatching-attrib $-1 -1 $-1 $-1 $54 43 0 2 0 1 #
-88 point $-1 -1 $-1 0 15.5 5.30005 #
-89 edge $-1 -1 $-1 $110 1 $110 0 $56 $-1 forward @7 unknown #
-90 vertex $111 -1 $-1 $57 2 $112 #
-91 NMx_Generated_Brep_tag-NMx_Brep_Name_tag-NMx_Brep_tag-NamingMatching-attrib $-1 -1 $-1 $-1 $58 43 0 7 0 2 #
-92 straight-curve $-1 -1 $-1 0 18.5 -5.87275e-16 0 -1 -8.7158e-17 F 0 F 0.6 #
-93 NMx_Generated_Brep_tag-NMx_Brep_Name_tag-NMx_Brep_tag-NamingMatching-attrib $-1 -1 $-1 $-1 $60 43 0 6 0 1 #
-94 point $-1 -1 $-1 0 18.5 -5.87275e-16 #
-95 NMx_Generated_Brep_tag-NMx_Brep_Name_tag-NMx_Brep_tag-NamingMatching-attrib $-1 -1 $-1 $-1 $63 43 0 4 0 1 #
-96 point $-1 -1 $-1 0 12.5 -1.11022e-15 #
-97 coedge $-1 -1 $-1 $74 $69 $-1 $113 forward $14 0 $-1 #
-98 edge $114 -1 $-1 $100 -0 $115 0.206 $69 $116 forward @7 unknown #
-99 NMx_Generated_Brep_tag-NMx_Brep_Name_tag-NMx_Brep_tag-NamingMatching-attrib $-1 -1 $-1 $-1 $70 43 0 8 0 2 #
-100 vertex $117 -1 $-1 $70 1 $118 #
-101 straight-curve $-1 -1 $-1 0 16.58 7 -0 -1 -0 F -0 F 0.216 #
-102 NMx_Generated_Brep_tag-NMx_Brep_Name_tag-NMx_Brep_tag-NamingMatching-attrib $-1 -1 $-1 $-1 $72 43 0 5 0 1 #
-103 point $-1 -1 $-1 0 16.58 7 #
-104 edge $119 -1 $-1 $120 -0 $106 0.206 $74 $121 forward @7 unknown #
-105 NMx_Generated_Brep_tag-NMx_Brep_Name_tag-NMx_Brep_tag-NamingMatching-attrib $-1 -1 $-1 $-1 $75 43 0 17 0 2 #
-106 vertex $122 -1 $-1 $104 1 $123 #
-107 straight-curve $-1 -1 $-1 0 14.42 -1.11022e-15 -0 1 -0 F 0 F 0.216 #
-108 NMx_Generated_Brep_tag-NMx_Brep_Name_tag-NMx_Brep_tag-NamingMatching-attrib $-1 -1 $-1 $-1 $77 43 0 16 0 1 #
-109 point $-1 -1 $-1 0 16.58 -1.11022e-15 #
-110 vertex $124 -1 $-1 $89 2 $125 #
-111 NMx_Generated_Brep_tag-NMx_Brep_Name_tag-NMx_Brep_tag-NamingMatching-attrib $-1 -1 $-1 $-1 $90 43 1 296 -1 2 0 1 #
-112 point $-1 -1 $-1 0 15.5 5.30005 #
-113 edge $126 -1 $-1 $115 2.14163e-16 $120 1.85459 $97 $127 forward @7 unknown #
-114 NMx_Generated_Brep_tag-NMx_Brep_Name_tag-NMx_Brep_tag-NamingMatching-attrib $-1 -1 $-1 $-1 $98 43 0 10 0 2 #
-115 vertex $128 -1 $-1 $98 1 $129 #
-116 straight-curve $-1 -1 $-1 0 14.42 7 -0 -0 -1 F -0 F 0.206 #
-117 NMx_Generated_Brep_tag-NMx_Brep_Name_tag-NMx_Brep_tag-NamingMatching-attrib $-1 -1 $-1 $-1 $100 43 0 7 0 1 #
-118 point $-1 -1 $-1 0 14.42 7 #
-119 NMx_Generated_Brep_tag-NMx_Brep_Name_tag-NMx_Brep_tag-NamingMatching-attrib $-1 -1 $-1 $-1 $104 43 0 15 0 2 #
-120 vertex $130 -1 $-1 $113 1 $131 #
-121 straight-curve $-1 -1 $-1 0 14.42 2.06 -0 -0 -1 F -0 F 0.206 #
-122 NMx_Generated_Brep_tag-NMx_Brep_Name_tag-NMx_Brep_tag-NamingMatching-attrib $-1 -1 $-1 $-1 $106 43 0 14 0 1 #
-123 point $-1 -1 $-1 0 14.42 -1.11022e-15 #
-124 NMx_Generated_Brep_tag-NMx_Brep_Name_tag-NMx_Brep_tag-NamingMatching-attrib $-1 -1 $-1 $-1 $110 43 1 296 -1 1 0 1 #
-125 point $-1 -1 $-1 0 15.5 1.69995 #
-126 NMx_Generated_Brep_tag-NMx_Brep_Name_tag-NMx_Brep_tag-NamingMatching-attrib $-1 -1 $-1 $-1 $113 43 0 13 0 2 #
-127 ellipse-curve $-1 -1 $-1 0 15.5 3.5 1 0 0 0 -0.108 0.144 1 F 2.14163e-16 F 1.85459 #
-128 NMx_Generated_Brep_tag-NMx_Brep_Name_tag-NMx_Brep_tag-NamingMatching-attrib $-1 -1 $-1 $-1 $115 43 0 9 0 1 #
-129 point $-1 -1 $-1 0 14.42 4.94 #
-130 NMx_Generated_Brep_tag-NMx_Brep_Name_tag-NMx_Brep_tag-NamingMatching-attrib $-1 -1 $-1 $-1 $120 43 0 11 0 1 #
-131 point $-1 -1 $-1 0 14.42 2.06 #

End-of-ACIS-data
