22600 0 4 5
8 Inventor 20 ASM 226.0.3.65535 NT 24 Thu Jun 22 17:31:49 2023
10 1e-06 1e-10
-0 asmheader $-1 -1 @13 226.0.3.65535 #
-1 body $-1 21 $-1 $4 $-1 $-1 #
-2 body $-1 22 $-1 $5 $-1 $-1 #
-3 body $-1 39 $-1 $6 $-1 $-1 #
-4 lump $-1 -1 $-1 $-1 $7 $1 #
-5 lump $-1 -1 $-1 $-1 $8 $2 #
-6 lump $-1 -1 $-1 $-1 $9 $3 #
-7 shell $-1 -1 $-1 $-1 $-1 $-1 $10 $4 #
-8 shell $-1 -1 $-1 $-1 $-1 $-1 $11 $5 #
-9 shell $-1 -1 $-1 $-1 $-1 $12 $-1 $6 #
-10 wire $-1 -1 $-1 $-1 $13 $7 $-1 out #
-11 wire $-1 -1 $-1 $-1 $14 $8 $-1 out #
-12 face $-1 -1 $-1 $-1 $15 $9 $-1 $16 forward single #
-13 coedge $-1 -1 $-1 $13 $13 $-1 $17 forward $10 0 $-1 #
-14 coedge $-1 -1 $-1 $14 $14 $-1 $18 forward $11 0 $-1 #
-15 loop $-1 -1 $-1 $-1 $19 $12 #
-16 plane-surface $-1 -1 $-1 0 0 10 0 0 1 1 0 0 forward_v I I I I #
-17 edge $20 -1 $-1 $21 -3.14159 $21 3.14159 $13 $22 forward @7 unknown #
-18 edge $23 -1 $-1 $24 0 $24 6.28319 $14 $25 forward @7 unknown #
-19 coedge $-1 -1 $-1 $19 $19 $-1 $26 forward $15 0 $-1 #
-20 NMx_Generated_Brep_tag-NMx_Brep_Name_tag-NMx_Brep_tag-NamingMatching-attrib $-1 -1 $-1 $-1 $17 43 0 2 0 2 #
-21 vertex $-1 -1 $-1 $17 0 $27 #
-22 ellipse-curve $-1 -1 $-1 0 0 0 0 0 -1 -3.08903 -0 -0 1 I I #
-23 NMx_Generated_Brep_tag-NMx_Brep_Name_tag-NMx_Brep_tag-NamingMatching-attrib $-1 -1 $-1 $-1 $18 43 0 4 0 2 #
-24 vertex $-1 -1 $-1 $18 0 $28 #
-25 ellipse-curve $-1 -1 $-1 0 0 0 0 0 -1 -2.875 0 0 1 I I #
-26 edge $29 -1 $-1 $30 0 $30 6.28319 $19 $31 forward @7 unknown #
-27 point $-1 -1 $-1 30.8903 3.78297e-15 0 #
-28 point $-1 -1 $-1 -28.75 0 0 #
-29 NMx_Generated_Brep_tag-NMx_Brep_Name_tag-NMx_Brep_tag-NamingMatching-attrib $-1 -1 $-1 $-1 $26 43 0 3 0 2 #
-30 vertex $-1 -1 $-1 $26 0 $32 #
-31 ellipse-curve $-1 -1 $-1 0 0 10 0 0 1 1.25 0 0 1 I I #
-32 point $-1 -1 $-1 12.5 0 10 #

End-of-ACIS-data
