22600 0 7 5
8 Inventor 20 ASM 226.0.3.65535 NT 24 Sat Jun 24 17:25:29 2023
10 1e-06 1e-10
-0 asmheader $-1 -1 @13 226.0.3.65535 #
-1 body $-1 19 $-1 $7 $-1 $-1 #
-2 body $-1 463 $-1 $8 $-1 $-1 #
-3 body $-1 464 $-1 $9 $-1 $-1 #
-4 body $-1 519 $-1 $10 $-1 $-1 #
-5 body $-1 520 $-1 $11 $-1 $-1 #
-6 body $-1 521 $-1 $12 $-1 $-1 #
-7 lump $-1 -1 $-1 $-1 $13 $1 #
-8 lump $-1 -1 $-1 $-1 $14 $2 #
-9 lump $-1 -1 $-1 $-1 $15 $3 #
-10 lump $-1 -1 $-1 $-1 $16 $4 #
-11 lump $-1 -1 $-1 $-1 $17 $5 #
-12 lump $-1 -1 $-1 $-1 $18 $6 #
-13 shell $-1 -1 $-1 $-1 $-1 $19 $-1 $7 #
-14 shell $-1 -1 $-1 $-1 $-1 $20 $-1 $8 #
-15 shell $-1 -1 $-1 $-1 $-1 $21 $-1 $9 #
-16 shell $-1 -1 $-1 $-1 $-1 $22 $-1 $10 #
-17 shell $-1 -1 $-1 $-1 $-1 $23 $-1 $11 #
-18 shell $-1 -1 $-1 $-1 $-1 $24 $-1 $12 #
-19 face $-1 -1 $-1 $-1 $25 $13 $-1 $26 forward single #
-20 face $-1 -1 $-1 $-1 $27 $14 $-1 $28 forward single #
-21 face $-1 -1 $-1 $-1 $29 $15 $-1 $30 forward single #
-22 face $-1 -1 $-1 $-1 $31 $16 $-1 $32 forward single #
-23 face $-1 -1 $-1 $-1 $33 $17 $-1 $34 forward single #
-24 face $-1 -1 $-1 $-1 $35 $18 $-1 $36 forward single #
-25 loop $-1 -1 $-1 $-1 $37 $19 #
-26 plane-surface $-1 -1 $-1 0 0 0 0 0 1 1 0 0 forward_v I I I I #
-27 loop $-1 -1 $-1 $-1 $38 $20 #
-28 plane-surface $-1 -1 $-1 0 0 5 0 0 1 1 0 0 forward_v I I I I #
-29 loop $-1 -1 $-1 $-1 $39 $21 #
-30 plane-surface $-1 -1 $-1 0 0 5 0 0 1 1 0 0 forward_v I I I I #
-31 loop $-1 -1 $-1 $-1 $40 $22 #
-32 plane-surface $-1 -1 $-1 -60 -8.88178e-15 0 0 0 -1 -1 0 0 forward_v I I I I #
-33 loop $-1 -1 $-1 $-1 $41 $23 #
-34 plane-surface $-1 -1 $-1 65 1.55431e-14 0 0 0 -1 -1 0 0 forward_v I I I I #
-35 loop $-1 -1 $-1 $-1 $42 $24 #
-36 plane-surface $-1 -1 $-1 0 0 5 0 0 1 1 0 0 forward_v I I I I #
-37 coedge $-1 -1 $-1 $43 $44 $-1 $45 forward $25 0 $-1 #
-38 coedge $-1 -1 $-1 $46 $47 $-1 $48 forward $27 0 $-1 #
-39 coedge $-1 -1 $-1 $49 $50 $-1 $51 reversed $29 0 $-1 #
-40 coedge $-1 -1 $-1 $40 $40 $-1 $52 forward $31 0 $-1 #
-41 coedge $-1 -1 $-1 $41 $41 $-1 $53 forward $33 0 $-1 #
-42 coedge $-1 -1 $-1 $42 $42 $-1 $54 forward $35 0 $-1 #
-43 coedge $-1 -1 $-1 $55 $37 $-1 $56 forward $25 0 $-1 #
-44 coedge $-1 -1 $-1 $37 $55 $-1 $57 forward $25 0 $-1 #
-45 edge $58 -1 $-1 $59 0 $60 15 $37 $61 forward @7 unknown #
-46 coedge $-1 -1 $-1 $62 $38 $-1 $63 forward $27 0 $-1 #
-47 coedge $-1 -1 $-1 $38 $62 $-1 $64 forward $27 0 $-1 #
-48 edge $65 -1 $-1 $66 0 $67 25 $38 $68 forward @7 unknown #
-49 coedge $-1 -1 $-1 $69 $39 $-1 $70 reversed $29 0 $-1 #
-50 coedge $-1 -1 $-1 $39 $69 $-1 $71 reversed $29 0 $-1 #
-51 edge $72 -1 $-1 $73 0 $74 24 $39 $75 forward @7 unknown #
-52 edge $76 -1 $-1 $77 0 $77 6.28319 $40 $78 forward @7 unknown #
-53 edge $79 -1 $-1 $80 0 $80 6.28319 $41 $81 forward @7 unknown #
-54 edge $82 -1 $-1 $83 0 $83 6.28319 $42 $84 forward @7 unknown #
-55 coedge $-1 -1 $-1 $44 $43 $-1 $85 forward $25 0 $-1 #
-56 edge $86 -1 $-1 $60 0 $87 25 $43 $88 forward @7 unknown #
-57 edge $89 -1 $-1 $90 0 $59 25 $44 $91 forward @7 unknown #
-58 NMx_Generated_Brep_tag-NMx_Brep_Name_tag-NMx_Brep_tag-NamingMatching-attrib $-1 -1 $-1 $-1 $45 43 0 7 0 2 #
-59 vertex $92 -1 $-1 $45 0 $93 #
-60 vertex $94 -1 $-1 $45 1 $95 #
-61 straight-curve $-1 -1 $-1 125 -75 0 0 1 0 F 0 F 15 #
-62 coedge $-1 -1 $-1 $47 $46 $-1 $96 forward $27 0 $-1 #
-63 edge $97 -1 $-1 $67 0 $98 15 $46 $99 forward @7 unknown #
-64 edge $100 -1 $-1 $101 0 $66 15 $47 $102 forward @7 unknown #
-65 NMx_Generated_Brep_tag-NMx_Brep_Name_tag-NMx_Brep_tag-NamingMatching-attrib $-1 -1 $-1 $-1 $48 43 0 7 0 2 #
-66 vertex $103 -1 $-1 $48 0 $104 #
-67 vertex $105 -1 $-1 $48 1 $106 #
-68 straight-curve $-1 -1 $-1 125 75 5 -1 0 0 F 0 F 25 #
-69 coedge $-1 -1 $-1 $50 $49 $-1 $107 reversed $29 0 $-1 #
-70 edge $108 -1 $-1 $109 0 $73 14 $49 $110 forward @7 unknown #
-71 edge $111 -1 $-1 $74 0 $112 14 $50 $113 forward @7 unknown #
-72 NMx_Generated_Brep_tag-NMx_Brep_Name_tag-NMx_Brep_tag-NamingMatching-attrib $-1 -1 $-1 $-1 $51 43 0 12 0 2 #
-73 vertex $-1 -1 $-1 $51 0 $114 #
-74 vertex $-1 -1 $-1 $51 1 $115 #
-75 straight-curve $-1 -1 $-1 -120 70 5 1 1.11022e-16 0 F 0 F 24 #
-76 NMx_Generated_Brep_tag-NMx_Brep_Name_tag-NMx_Brep_tag-NamingMatching-attrib $-1 -1 $-1 $-1 $52 43 0 7 0 2 #
-77 vertex $-1 -1 $-1 $52 0 $116 #
-78 ellipse-curve $-1 -1 $-1 -60 -9.72343e-15 0 0 0 -1 -1.85 0 0 1 I I #
-79 NMx_Generated_Brep_tag-NMx_Brep_Name_tag-NMx_Brep_tag-NamingMatching-attrib $-1 -1 $-1 $-1 $53 43 0 6 0 2 #
-80 vertex $-1 -1 $-1 $53 0 $117 #
-81 ellipse-curve $-1 -1 $-1 65 1.56549e-14 0 0 0 -1 -1.85 0 0 1 I I #
-82 NMx_Generated_Brep_tag-NMx_Brep_Name_tag-NMx_Brep_tag-NamingMatching-attrib $-1 -1 $-1 $-1 $54 43 0 14 0 2 #
-83 vertex $-1 -1 $-1 $54 0 $118 #
-84 ellipse-curve $-1 -1 $-1 0 0 5 0 0 1 1.85 0 0 1 I I #
-85 edge $119 -1 $-1 $87 0 $90 15 $55 $120 forward @7 unknown #
-86 NMx_Generated_Brep_tag-NMx_Brep_Name_tag-NMx_Brep_tag-NamingMatching-attrib $-1 -1 $-1 $-1 $56 43 0 8 0 2 #
-87 vertex $121 -1 $-1 $56 1 $122 #
-88 straight-curve $-1 -1 $-1 125 75 0 -1 0 0 F 0 F 25 #
-89 NMx_Generated_Brep_tag-NMx_Brep_Name_tag-NMx_Brep_tag-NamingMatching-attrib $-1 -1 $-1 $-1 $57 43 0 6 0 2 #
-90 vertex $123 -1 $-1 $85 1 $124 #
-91 straight-curve $-1 -1 $-1 -125 -75 0 1 0 0 F 0 F 25 #
-92 NMx_Generated_Brep_tag-NMx_Brep_Name_tag-NMx_Brep_tag-NamingMatching-attrib $-1 -1 $-1 $-1 $59 43 0 4 0 1 #
-93 point $-1 -1 $-1 125 -75 0 #
-94 NMx_Generated_Brep_tag-NMx_Brep_Name_tag-NMx_Brep_tag-NamingMatching-attrib $-1 -1 $-1 $-1 $60 43 0 3 0 1 #
-95 point $-1 -1 $-1 125 75 0 #
-96 edge $125 -1 $-1 $98 0 $101 25 $62 $126 forward @7 unknown #
-97 NMx_Generated_Brep_tag-NMx_Brep_Name_tag-NMx_Brep_tag-NamingMatching-attrib $-1 -1 $-1 $-1 $63 43 0 8 0 2 #
-98 vertex $127 -1 $-1 $63 1 $128 #
-99 straight-curve $-1 -1 $-1 -125 75 5 0 -1 0 F 0 F 15 #
-100 NMx_Generated_Brep_tag-NMx_Brep_Name_tag-NMx_Brep_tag-NamingMatching-attrib $-1 -1 $-1 $-1 $64 43 0 6 0 2 #
-101 vertex $129 -1 $-1 $96 1 $130 #
-102 straight-curve $-1 -1 $-1 125 -75 5 0 1 0 F 0 F 15 #
-103 NMx_Generated_Brep_tag-NMx_Brep_Name_tag-NMx_Brep_tag-NamingMatching-attrib $-1 -1 $-1 $-1 $66 43 0 3 0 1 #
-104 point $-1 -1 $-1 125 75 5 #
-105 NMx_Generated_Brep_tag-NMx_Brep_Name_tag-NMx_Brep_tag-NamingMatching-attrib $-1 -1 $-1 $-1 $67 43 0 4 0 1 #
-106 point $-1 -1 $-1 -125 75 5 #
-107 edge $131 -1 $-1 $112 0 $109 24 $69 $132 forward @7 unknown #
-108 NMx_Generated_Brep_tag-NMx_Brep_Name_tag-NMx_Brep_tag-NamingMatching-attrib $-1 -1 $-1 $-1 $70 43 0 17 0 2 #
-109 vertex $-1 -1 $-1 $70 0 $133 #
-110 straight-curve $-1 -1 $-1 -120 -70 5 -1.26883e-16 1 0 F 0 F 14 #
-111 NMx_Generated_Brep_tag-NMx_Brep_Name_tag-NMx_Brep_tag-NamingMatching-attrib $-1 -1 $-1 $-1 $71 43 0 14 0 2 #
-112 vertex $-1 -1 $-1 $107 0 $134 #
-113 straight-curve $-1 -1 $-1 120 70 5 1.26883e-16 -1 0 F 0 F 14 #
-114 point $-1 -1 $-1 -120 70 5 #
-115 point $-1 -1 $-1 120 70 5 #
-116 point $-1 -1 $-1 -78.5 -9.72343e-15 0 #
-117 point $-1 -1 $-1 46.5 1.56549e-14 0 #
-118 point $-1 -1 $-1 18.5 0 5 #
-119 NMx_Generated_Brep_tag-NMx_Brep_Name_tag-NMx_Brep_tag-NamingMatching-attrib $-1 -1 $-1 $-1 $85 43 0 9 0 2 #
-120 straight-curve $-1 -1 $-1 -125 75 0 0 -1 0 F 0 F 15 #
-121 NMx_Generated_Brep_tag-NMx_Brep_Name_tag-NMx_Brep_tag-NamingMatching-attrib $-1 -1 $-1 $-1 $87 43 0 5 0 1 #
-122 point $-1 -1 $-1 -125 75 0 #
-123 NMx_Generated_Brep_tag-NMx_Brep_Name_tag-NMx_Brep_tag-NamingMatching-attrib $-1 -1 $-1 $-1 $90 43 0 2 0 1 #
-124 point $-1 -1 $-1 -125 -75 0 #
-125 NMx_Generated_Brep_tag-NMx_Brep_Name_tag-NMx_Brep_tag-NamingMatching-attrib $-1 -1 $-1 $-1 $96 43 0 9 0 2 #
-126 straight-curve $-1 -1 $-1 -125 -75 5 1 0 0 F 0 F 25 #
-127 NMx_Generated_Brep_tag-NMx_Brep_Name_tag-NMx_Brep_tag-NamingMatching-attrib $-1 -1 $-1 $-1 $98 43 0 5 0 1 #
-128 point $-1 -1 $-1 -125 -75 5 #
-129 NMx_Generated_Brep_tag-NMx_Brep_Name_tag-NMx_Brep_tag-NamingMatching-attrib $-1 -1 $-1 $-1 $101 43 0 2 0 1 #
-130 point $-1 -1 $-1 125 -75 5 #
-131 NMx_Generated_Brep_tag-NMx_Brep_Name_tag-NMx_Brep_tag-NamingMatching-attrib $-1 -1 $-1 $-1 $107 43 0 16 0 2 #
-132 straight-curve $-1 -1 $-1 120 -70 5 -1 -1.11022e-16 0 F 0 F 24 #
-133 point $-1 -1 $-1 -120 -70 5 #
-134 point $-1 -1 $-1 120 -70 5 #

End-of-ACIS-data
