22600 0 2 5
8 Inventor 20 ASM 226.0.3.65535 NT 24 Sat Jun 24 18:22:02 2023
10 1e-06 1e-10
-0 asmheader $-1 -1 @13 226.0.3.65535 #
-1 body $-1 77 $-1 $2 $-1 $-1 #
-2 lump $-1 -1 $-1 $-1 $3 $1 #
-3 shell $-1 -1 $-1 $-1 $-1 $4 $-1 $2 #
-4 face $5 78 $-1 $6 $7 $3 $-1 $8 forward single #
-5 NMx_edge_blend_tag-NMx_Brep_Name_tag-NMx_Brep_tag-NamingMatching-attrib $-1 -1 $-1 $-1 $4 43 1 427 -1 17 #
-6 face $9 79 $-1 $10 $11 $3 $-1 $12 forward single #
-7 loop $-1 -1 $-1 $13 $14 $4 #
-8 cone-surface $-1 -1 $-1 79.6165 7.72402e-15 0 1 1.2397e-16 0 2.00409e-17 -0.361659 -0 1 I I -0.707061 0.707153 0.361659 forward I I I I #
-9 NMx_Generated_Brep_tag-NMx_Brep_Name_tag-NMx_Brep_tag-NamingMatching-attrib $-1 -1 $15 $-1 $6 43 1 186 -1 19 0 20 #
-10 face $16 80 $-1 $17 $18 $3 $-1 $19 forward single #
-11 loop $-1 -1 $-1 $20 $21 $6 #
-12 cone-surface $-1 -1 $-1 42 3.0607e-15 0 1 1.2397e-16 -0 0 0.4 0 1 I I 0 1 0.4 forward I I I I #
-13 loop $-1 -1 $-1 $-1 $22 $4 #
-14 coedge $-1 -1 $-1 $14 $14 $23 $24 forward $7 0 $-1 #
-15 NMx_Feature_Orientation-NamingMatching-attrib $-1 -1 $25 $9 $6 43 $26 $-1 #
-16 NMx_Generated_Brep_tag-NMx_Brep_Name_tag-NMx_Brep_tag-NamingMatching-attrib $-1 -1 $27 $-1 $10 43 1 186 -1 23 0 20 #
-17 face $28 81 $-1 $29 $30 $3 $-1 $31 reversed single #
-18 loop $-1 -1 $-1 $-1 $32 $10 #
-19 plane-surface $-1 -1 $-1 80 2 0 1 1.2397e-16 -0 -0 0 -1 forward_v I I I I #
-20 loop $-1 -1 $-1 $-1 $23 $6 #
-21 coedge $-1 -1 $-1 $21 $21 $33 $34 forward $11 0 $-1 #
-22 coedge $-1 -1 $-1 $22 $22 $32 $35 forward $13 0 $-1 #
-23 coedge $-1 -1 $-1 $23 $23 $14 $24 reversed $20 0 $-1 #
-24 edge $-1 97 $-1 $36 -3.14159 $36 3.14159 $23 $37 forward @7 unknown #
-25 NMx_Matched_Entity-NamingMatching-attrib $-1 -1 $38 $15 $6 43 1 1406 -1 15 1 #
-26 ellipse-curve $-1 -1 $-1 8.88178e-15 -2.14605e-15 0 -1 -1.2397e-16 0 -4.3715e-16 0.5815 0 1 I I #
-27 NMx_Feature_Orientation-NamingMatching-attrib $-1 -1 $39 $16 $10 43 $26 $-1 #
-28 NMx_Feature_Orientation-NamingMatching-attrib $-1 -1 $40 $-1 $17 43 $41 $-1 #
-29 face $42 82 $-1 $43 $44 $3 $-1 $31 reversed single #
-30 loop $-1 -1 $-1 $-1 $45 $17 #
-31 cone-surface $-1 -1 $-1 -5.00982 0 0 -1 -0 -0 0 0.700278 0 1 I I 0.866025 -0.5 0.700278 forward I I I I #
-32 coedge $-1 -1 $-1 $32 $32 $22 $35 reversed $18 0 $-1 #
-33 coedge $-1 -1 $-1 $33 $33 $21 $34 reversed $46 0 $-1 #
-34 edge $47 99 $-1 $48 0 $48 6.28319 $21 $49 forward @7 unknown #
-35 edge $-1 98 $-1 $50 -3.14159 $50 3.14159 $32 $51 forward @7 unknown #
-36 vertex $-1 -1 $-1 $24 2 $52 #
-37 ellipse-curve $-1 -1 $-1 79.2331 7.67649e-15 0 1 1.2397e-16 -0 -0 -0.4 -0 1 I I #
-38 NMx_Thread_Entity-NamingMatching-attrib $-1 -1 $-1 $25 $6 43 0.125 0.0744 1 80 4 0 4 4 0 14 0 0 0 1 @1 8 @7 M8x1.25 4298 @18 ISO Metric profile @0  @0  1 @2 6g @4 1.25 @4 7.76 @5 7.972 @5 7.042 @4 7.16 @5 6.272 @5 6.619 @0  1 896 -1 0 0 0 0 0 0 1 #
-39 NMx_Matched_Entity-NamingMatching-attrib $-1 -1 $-1 $27 $10 43 1 1259 -1 16 1 #
-40 NMx_Generated_Brep_tag-NMx_Brep_Name_tag-NMx_Brep_tag-NamingMatching-attrib $-1 -1 $-1 $28 $17 43 1 363 -1 6 0 20 #
-41 ellipse-curve $-1 -1 $-1 -5.3001 0 0 1 0 0 0 0.750555 0 1 I I #
-42 NMx_Feature_Orientation-NamingMatching-attrib $-1 -1 $53 $-1 $29 43 $41 $-1 #
-43 face $54 83 $-1 $55 $56 $3 $-1 $31 reversed single #
-44 loop $-1 -1 $-1 $-1 $57 $29 #
-45 coedge $-1 -1 $-1 $58 $59 $60 $61 reversed $30 0 $-1 #
-46 loop $-1 -1 $-1 $62 $33 $63 #
-47 NMx_Generated_Brep_tag-NMx_Brep_Name_tag-NMx_Brep_tag-NamingMatching-attrib $-1 -1 $-1 $-1 $34 43 1 186 -1 49 0 18 #
-48 vertex $64 -1 $-1 $34 2 $65 #
-49 ellipse-curve $-1 -1 $-1 0 -2.14605e-15 0 1 1.2397e-16 -0 0 0.4 0 1 I I #
-50 vertex $-1 -1 $-1 $35 2 $66 #
-51 ellipse-curve $-1 -1 $-1 80 7.77156e-15 0 -1 -1.2397e-16 0 4.00819e-17 -0.323319 -0 1 I I #
-52 point $-1 -1 $-1 79.2331 4 4.89859e-16 #
-53 NMx_Generated_Brep_tag-NMx_Brep_Name_tag-NMx_Brep_tag-NamingMatching-attrib $-1 -1 $-1 $42 $29 43 1 363 -1 6 0 20 #
-54 NMx_Feature_Orientation-NamingMatching-attrib $-1 -1 $67 $-1 $43 43 $41 $-1 #
-55 face $68 84 $-1 $69 $70 $3 $-1 $31 reversed single #
-56 loop $-1 -1 $-1 $-1 $71 $43 #
-57 coedge $-1 -1 $-1 $72 $73 $74 $75 reversed $44 0 $-1 #
-58 coedge $-1 -1 $-1 $59 $45 $76 $77 reversed $30 0 $-1 #
-59 coedge $-1 -1 $-1 $45 $58 $78 $79 reversed $30 0 $-1 #
-60 coedge $-1 -1 $-1 $80 $81 $45 $61 forward $82 0 $-1 #
-61 edge $-1 100 $-1 $83 0.380711 $84 0.761423 $60 $85 forward @7 unknown #
-62 loop $-1 -1 $-1 $-1 $86 $63 #
-63 face $87 96 $-1 $-1 $46 $3 $-1 $88 forward single #
-64 NMx_Generated_Brep_tag-NMx_Brep_Name_tag-NMx_Brep_tag-NamingMatching-attrib $-1 -1 $-1 $-1 $48 43 1 186 -1 49 0 1 #
-65 point $-1 -1 $-1 4.44089e-15 4 0 #
-66 point $-1 -1 $-1 80 3.23319 -3.95951e-16 #
-67 NMx_Generated_Brep_tag-NMx_Brep_Name_tag-NMx_Brep_tag-NamingMatching-attrib $-1 -1 $-1 $54 $43 43 1 363 -1 6 0 20 #
-68 NMx_Feature_Orientation-NamingMatching-attrib $-1 -1 $89 $-1 $55 43 $41 $-1 #
-69 face $90 85 $-1 $91 $92 $3 $-1 $31 reversed single #
-70 loop $-1 -1 $-1 $-1 $93 $55 #
-71 coedge $-1 -1 $-1 $94 $95 $96 $97 reversed $56 0 $-1 #
-72 coedge $-1 -1 $-1 $73 $57 $98 $99 reversed $44 0 $-1 #
-73 coedge $-1 -1 $-1 $57 $72 $100 $101 reversed $44 0 $-1 #
-74 coedge $-1 -1 $-1 $102 $103 $57 $75 forward $104 0 $-1 #
-75 edge $-1 103 $-1 $105 0 $106 0.380711 $74 $107 forward @7 unknown #
-76 coedge $-1 -1 $-1 $108 $100 $58 $77 forward $109 0 $-1 #
-77 edge $-1 101 $-1 $110 -1.5708 $83 -0.523599 $76 $111 forward @7 unknown #
-78 coedge $-1 -1 $-1 $98 $112 $59 $79 forward $113 0 $-1 #
-79 edge $-1 102 $-1 $84 0 $110 0.380711 $78 $114 forward @7 unknown #
-80 coedge $-1 -1 $-1 $115 $60 $112 $116 reversed $82 0 $-1 #
-81 coedge $-1 -1 $-1 $60 $117 $95 $118 forward $82 0 $-1 #
-82 loop $-1 -1 $-1 $-1 $81 $119 #
-83 vertex $-1 -1 $-1 $61 0 $120 #
-84 vertex $-1 -1 $-1 $79 0 $121 #
-85 intcurve-curve $-1 -1 $-1 forward { exact_int_cur 20900 full nurbs 2 open 2 0.380711 2 0.761423 2 -0.53001 0.562917 0.325 1 -0.53001 0.475833 0.475833 1.03795 -0.471954 0.375278 0.65 1 0 null_surface null_surface nullbs nullbs I I 0 0 0 0 F 1 F 0 0 0 } I I #
-86 coedge $-1 -1 $-1 $86 $86 $122 $123 forward $62 0 $-1 #
-87 NMx_Feature_Orientation-NamingMatching-attrib $-1 -1 $124 $-1 $63 43 $26 $-1 #
-88 plane-surface $-1 -1 $-1 4.47559e-15 4.9075 0 1 1.2397e-16 -0 -0 0 -1 forward_v I I I I #
-89 NMx_Generated_Brep_tag-NMx_Brep_Name_tag-NMx_Brep_tag-NamingMatching-attrib $-1 -1 $-1 $68 $55 43 1 363 -1 6 0 20 #
-90 NMx_Feature_Orientation-NamingMatching-attrib $-1 -1 $125 $-1 $69 43 $41 $-1 #
-91 face $126 86 $-1 $127 $128 $3 $-1 $31 reversed single #
-92 loop $-1 -1 $-1 $-1 $129 $69 #
-93 coedge $-1 -1 $-1 $130 $131 $132 $133 reversed $70 0 $-1 #
-94 coedge $-1 -1 $-1 $95 $71 $108 $134 reversed $56 0 $-1 #
-95 coedge $-1 -1 $-1 $71 $94 $81 $118 reversed $56 0 $-1 #
-96 coedge $-1 -1 $-1 $135 $136 $71 $97 forward $137 0 $-1 #
-97 edge $-1 106 $-1 $138 0.380711 $139 0.761423 $96 $140 forward @7 unknown #
-98 coedge $-1 -1 $-1 $141 $78 $72 $99 forward $113 0 $-1 #
-99 edge $-1 104 $-1 $110 0.380711 $105 0.761423 $98 $142 forward @7 unknown #
-100 coedge $-1 -1 $-1 $76 $143 $73 $101 forward $109 0 $-1 #
-101 edge $-1 105 $-1 $106 -2.61799 $110 -1.5708 $100 $111 forward @7 unknown #
-102 coedge $-1 -1 $-1 $144 $74 $130 $145 forward $104 0 $-1 #
-103 coedge $-1 -1 $-1 $74 $146 $141 $147 forward $104 0 $-1 #
-104 loop $-1 -1 $-1 $-1 $102 $148 #
-105 vertex $-1 -1 $-1 $99 1 $149 #
-106 vertex $-1 -1 $-1 $101 0 $150 #
-107 intcurve-curve $-1 -1 $-1 forward { exact_int_cur 20900 full nurbs 2 open 2 0 2 0.380711 2 -0.471954 -0.375278 0.65 1 -0.53001 -0.475833 0.475833 1.03795 -0.53001 -0.562917 0.325 1 0 null_surface null_surface nullbs nullbs I I 0 0 0 0 F 1 F 0 0 0 } I I #
-108 coedge $-1 -1 $-1 $151 $76 $94 $134 forward $109 0 $-1 #
-109 loop $-1 -1 $-1 $-1 $76 $152 #
-110 vertex $-1 -1 $-1 $79 1 $153 #
-111 ellipse-curve $-1 -1 $-1 -5.3001 0 0 -1 -1.23082e-16 3.19617e-19 0 0.65 0 1 I I #
-112 coedge $-1 -1 $-1 $78 $154 $80 $116 forward $113 0 $-1 #
-113 loop $-1 -1 $-1 $-1 $98 $155 #
-114 intcurve-curve $-1 -1 $-1 forward { exact_int_cur 20900 full nurbs 2 open 2 0 2 0.380711 2 -0.471954 0.375278 0.65 1 -0.53001 0.174167 0.65 1.03795 -0.53001 -4.71845e-16 0.65 1 0 null_surface null_surface nullbs nullbs I I 0 0 0 0 F 1 F 0 0 0 } I I #
-115 coedge $-1 -1 $-1 $117 $80 $156 $157 reversed $82 0 $-1 #
-116 edge $158 123 $-1 $159 0 $84 0.411944 $112 $160 forward @7 unknown #
-117 coedge $-1 -1 $-1 $81 $115 $135 $161 forward $82 0 $-1 #
-118 edge $-1 108 $-1 $139 0 $83 0.380711 $81 $162 forward @7 unknown #
-119 face $163 89 $-1 $164 $82 $3 $-1 $165 forward single #
-120 point $-1 -1 $-1 -5.3001 5.62917 3.25 #
-121 point $-1 -1 $-1 -4.71954 3.75278 6.5 #
-122 coedge $-1 -1 $-1 $122 $122 $86 $123 reversed $166 0 $-1 #
-123 edge $167 131 $-1 $168 0 $168 6.28319 $86 $169 forward @7 unknown #
-124 NMx_Generated_Brep_tag-NMx_Brep_Name_tag-NMx_Brep_tag-NamingMatching-attrib $-1 -1 $-1 $87 $63 43 1 186 -1 9 0 20 #
-125 NMx_Generated_Brep_tag-NMx_Brep_Name_tag-NMx_Brep_tag-NamingMatching-attrib $-1 -1 $-1 $90 $69 43 1 363 -1 6 0 20 #
-126 NMx_Generated_Brep_tag-NMx_Brep_Name_tag-NMx_Brep_tag-NamingMatching-attrib $-1 -1 $170 $-1 $91 43 1 363 -1 6 0 20 #
-127 face $171 87 $-1 $172 $173 $3 $-1 $174 forward single #
-128 loop $-1 -1 $-1 $-1 $175 $91 #
-129 coedge $-1 -1 $-1 $176 $177 $178 $179 reversed $92 0 $-1 #
-130 coedge $-1 -1 $-1 $131 $93 $102 $145 reversed $70 0 $-1 #
-131 coedge $-1 -1 $-1 $93 $130 $143 $180 reversed $70 0 $-1 #
-132 coedge $-1 -1 $-1 $181 $182 $93 $133 forward $183 0 $-1 #
-133 edge $-1 109 $-1 $184 0 $185 0.380711 $132 $186 forward @7 unknown #
-134 edge $-1 107 $-1 $83 -0.523599 $138 0.523599 $108 $111 forward @7 unknown #
-135 coedge $-1 -1 $-1 $187 $96 $117 $161 reversed $137 0 $-1 #
-136 coedge $-1 -1 $-1 $96 $188 $177 $189 forward $137 0 $-1 #
-137 loop $-1 -1 $-1 $-1 $136 $172 #
-138 vertex $-1 -1 $-1 $97 0 $190 #
-139 vertex $-1 -1 $-1 $118 0 $191 #
-140 intcurve-curve $-1 -1 $-1 forward { exact_int_cur 20900 full nurbs 2 open 2 0.380711 2 0.761423 2 -0.53001 0.562917 -0.325 1 -0.53001 0.65 -0.174167 1.03795 -0.471954 0.750555 -1.60641e-15 1 0 null_surface null_surface nullbs nullbs I I 0 0 0 0 F 1 F 0 0 0 } I I #
-141 coedge $-1 -1 $-1 $154 $98 $103 $147 reversed $113 0 $-1 #
-142 intcurve-curve $-1 -1 $-1 forward { exact_int_cur 20900 full nurbs 2 open 2 0.380711 2 0.761423 2 -0.53001 -4.71845e-16 0.65 1 -0.53001 -0.174167 0.65 1.03795 -0.471954 -0.375278 0.65 1 0 null_surface null_surface nullbs nullbs I I 0 0 0 0 F 1 F 0 0 0 } I I #
-143 coedge $-1 -1 $-1 $100 $192 $131 $180 forward $109 0 $-1 #
-144 coedge $-1 -1 $-1 $146 $102 $182 $193 reversed $104 0 $-1 #
-145 edge $-1 110 $-1 $106 0.380711 $184 0.761423 $102 $194 forward @7 unknown #
-146 coedge $-1 -1 $-1 $103 $144 $195 $196 reversed $104 0 $-1 #
-147 edge $197 129 $-1 $198 0 $105 0.411944 $103 $199 forward @7 unknown #
-148 face $200 92 $-1 $201 $104 $3 $-1 $202 forward single #
-149 point $-1 -1 $-1 -4.71954 -3.75278 6.5 #
-150 point $-1 -1 $-1 -5.3001 -5.62917 3.25 #
-151 coedge $-1 -1 $-1 $192 $108 $176 $203 forward $109 0 $-1 #
-152 face $204 94 $-1 $205 $109 $3 $-1 $206 reversed single #
-153 point $-1 -1 $-1 -5.3001 -4.71845e-15 6.5 #
-154 coedge $-1 -1 $-1 $112 $141 $207 $208 reversed $113 0 $-1 #
-155 face $209 91 $-1 $148 $113 $3 $-1 $210 forward single #
-156 coedge $-1 -1 $-1 $207 $211 $115 $157 forward $212 0 $-1 #
-157 edge $213 124 $-1 $214 0 $159 0.750555 $156 $215 forward @7 unknown #
-158 NMx_Generated_Brep_tag-NMx_Brep_Name_tag-NMx_Brep_tag-NamingMatching-attrib $-1 -1 $-1 $-1 $116 43 1 268 -1 32 0 18 #
-159 vertex $216 -1 $-1 $157 1 $217 #
-160 straight-curve $-1 -1 $-1 -0.6001 3.75278 6.5 -1 -2.36218e-16 0 I I #
-161 edge $218 121 $-1 $214 0 $139 0.411944 $117 $219 forward @7 unknown #
-162 intcurve-curve $-1 -1 $-1 forward { exact_int_cur 20900 full nurbs 2 open 2 0 2 0.380711 2 -0.471954 0.750555 2.85584e-15 1 -0.53001 0.65 0.174167 1.03795 -0.53001 0.562917 0.325 1 0 null_surface null_surface nullbs nullbs I I 0 0 0 0 F 1 F 0 0 0 } I I #
-163 NMx_Generated_Brep_tag-NMx_Brep_Name_tag-NMx_Brep_tag-NamingMatching-attrib $-1 -1 $220 $-1 $119 43 1 268 -1 37 0 20 #
-164 face $221 90 $-1 $155 $212 $3 $-1 $222 forward single #
-165 plane-surface $-1 -1 $-1 -0.6001 7.50555 6.85887e-15 -2.0457e-16 0.866025 0.5 1 -0 4.09141e-16 forward_v I I I I #
-166 loop $-1 -1 $-1 $223 $122 $205 #
-167 NMx_Generated_Brep_tag-NMx_Brep_Name_tag-NMx_Brep_tag-NamingMatching-attrib $-1 -1 $-1 $-1 $123 43 1 186 -1 44 0 18 #
-168 vertex $224 -1 $-1 $123 2 $225 #
-169 ellipse-curve $-1 -1 $-1 8.88178e-15 -2.14605e-15 0 1 1.2397e-16 -0 0 0.5815 0 1 I I #
-170 NMx_Feature_Orientation-NamingMatching-attrib $-1 -1 $-1 $126 $91 43 $41 $-1 #
-171 NMx_Generated_Brep_tag-NMx_Brep_Name_tag-NMx_Brep_tag-NamingMatching-attrib $-1 -1 $226 $-1 $127 43 1 268 -1 41 0 20 #
-172 face $227 88 $-1 $119 $137 $3 $-1 $228 forward single #
-173 loop $-1 -1 $-1 $-1 $229 $127 #
-174 plane-surface $-1 -1 $-1 -0.6001 -3.75278 -6.5 -6.98827e-32 2.9584e-16 -1 -1 0 6.98827e-32 forward_v I I I I #
-175 coedge $-1 -1 $-1 $230 $231 $229 $232 reversed $128 0 $-1 #
-176 coedge $-1 -1 $-1 $177 $129 $151 $203 reversed $92 0 $-1 #
-177 coedge $-1 -1 $-1 $129 $176 $136 $189 reversed $92 0 $-1 #
-178 coedge $-1 -1 $-1 $233 $229 $129 $179 forward $173 0 $-1 #
-179 edge $-1 112 $-1 $234 0.380711 $235 0.761423 $178 $236 forward @7 unknown #
-180 edge $-1 111 $-1 $185 2.61799 $106 3.66519 $143 $111 forward @7 unknown #
-181 coedge $-1 -1 $-1 $237 $132 $230 $238 forward $183 0 $-1 #
-182 coedge $-1 -1 $-1 $132 $239 $144 $193 forward $183 0 $-1 #
-183 loop $-1 -1 $-1 $-1 $181 $201 #
-184 vertex $-1 -1 $-1 $145 1 $240 #
-185 vertex $-1 -1 $-1 $180 0 $241 #
-186 intcurve-curve $-1 -1 $-1 forward { exact_int_cur 20900 full nurbs 2 open 2 0 2 0.380711 2 -0.471954 -0.750555 -3.21282e-15 1 -0.53001 -0.65 -0.174167 1.03795 -0.53001 -0.562917 -0.325 1 0 null_surface null_surface nullbs nullbs I I 0 0 0 0 F 1 F 0 0 0 } I I #
-187 coedge $-1 -1 $-1 $188 $135 $211 $242 reversed $137 0 $-1 #
-188 coedge $-1 -1 $-1 $136 $187 $233 $243 forward $137 0 $-1 #
-189 edge $-1 114 $-1 $235 0 $138 0.380711 $136 $244 forward @7 unknown #
-190 point $-1 -1 $-1 -5.3001 5.62917 -3.25 #
-191 point $-1 -1 $-1 -4.71954 7.50555 0 #
-192 coedge $-1 -1 $-1 $143 $151 $231 $245 forward $109 0 $-1 #
-193 edge $246 130 $-1 $247 0 $184 0.411944 $182 $248 forward @7 unknown #
-194 intcurve-curve $-1 -1 $-1 forward { exact_int_cur 20900 full nurbs 2 open 2 0.380711 2 0.761423 2 -0.53001 -0.562917 0.325 1 -0.53001 -0.65 0.174167 1.03795 -0.471954 -0.750555 2.67735e-15 1 0 null_surface null_surface nullbs nullbs I I 0 0 0 0 F 1 F 0 0 0 } I I #
-195 coedge $-1 -1 $-1 $249 $207 $146 $196 forward $212 0 $-1 #
-196 edge $250 126 $-1 $198 0 $247 0.750555 $195 $251 forward @7 unknown #
-197 NMx_Generated_Brep_tag-NMx_Brep_Name_tag-NMx_Brep_tag-NamingMatching-attrib $-1 -1 $-1 $-1 $147 43 1 268 -1 33 0 18 #
-198 vertex $252 -1 $-1 $208 1 $253 #
-199 straight-curve $-1 -1 $-1 -0.6001 -3.75278 6.5 -1 -2.36218e-16 0 I I #
-200 NMx_Feature_Orientation-NamingMatching-attrib $-1 -1 $254 $-1 $148 43 $255 $-1 #
-201 face $256 93 $-1 $152 $183 $3 $-1 $257 forward single #
-202 plane-surface $-1 -1 $-1 -0.6001 -3.75278 6.5 2.0457e-16 -0.866025 0.5 0 -0.5 -0.866025 forward_v I I I I #
-203 edge $-1 113 $-1 $138 0.523599 $234 1.5708 $151 $111 forward @7 unknown #
-204 NMx_Generated_Brep_tag-NMx_Brep_Name_tag-NMx_Brep_tag-NamingMatching-attrib $-1 -1 $-1 $-1 $152 43 1 268 -1 0 0 12 #
-205 face $258 95 $-1 $63 $166 $3 $-1 $259 forward single #
-206 plane-surface $-1 -1 $-1 -5.3001 -1.65692e-15 -2.77556e-16 1 1.23082e-16 -3.19617e-19 -3.19617e-19 0 -1 forward_v I I I I #
-207 coedge $-1 -1 $-1 $195 $156 $154 $208 forward $212 0 $-1 #
-208 edge $260 125 $-1 $159 0 $198 0.750555 $207 $261 forward @7 unknown #
-209 NMx_Feature_Orientation-NamingMatching-attrib $-1 -1 $262 $-1 $155 43 $255 $-1 #
-210 plane-surface $-1 -1 $-1 -0.6001 3.75278 6.5 1.74707e-31 -7.39601e-16 1 1 0 -1.74707e-31 forward_v I I I I #
-211 coedge $-1 -1 $-1 $156 $263 $187 $242 forward $212 0 $-1 #
-212 loop $-1 -1 $-1 $264 $156 $164 #
-213 NMx_Generated_Brep_tag-NMx_Brep_Name_tag-NMx_Brep_tag-NamingMatching-attrib $-1 -1 $-1 $-1 $157 43 1 268 -1 37 0 2 #
-214 vertex $265 -1 $-1 $157 0 $266 #
-215 straight-curve $-1 -1 $-1 -0.6001 7.50555 6.85887e-15 6.19851e-17 -0.5 0.866025 F 0 F 0.750555 #
-216 NMx_Generated_Brep_tag-NMx_Brep_Name_tag-NMx_Brep_tag-NamingMatching-attrib $-1 -1 $-1 $-1 $159 43 1 268 -1 32 0 1 #
-217 point $-1 -1 $-1 -0.6001 3.75278 6.5 #
-218 NMx_Matched_Entity-NamingMatching-attrib $-1 -1 $267 $-1 $161 43 1 1068 -1 84 0 #
-219 straight-curve $-1 -1 $-1 -0.6001 7.50555 6.85887e-15 -1 -2.36218e-16 0 I I #
-220 NMx_Feature_Orientation-NamingMatching-attrib $-1 -1 $-1 $163 $119 43 $255 $-1 #
-221 NMx_Generated_Brep_tag-NMx_Brep_Name_tag-NMx_Brep_tag-NamingMatching-attrib $-1 -1 $-1 $-1 $164 43 1 268 -1 0 0 4 #
-222 plane-surface $-1 -1 $-1 -0.6001 -5.55112e-16 2.08167e-16 1 1.22898e-16 9.90515e-32 9.90515e-32 0 -1 forward_v I I I I #
-223 loop $-1 -1 $-1 $-1 $268 $205 #
-224 NMx_Generated_Brep_tag-NMx_Brep_Name_tag-NMx_Brep_tag-NamingMatching-attrib $-1 -1 $-1 $-1 $168 43 1 186 -1 44 0 1 #
-225 point $-1 -1 $-1 4.51028e-15 5.815 0 #
-226 NMx_Feature_Orientation-NamingMatching-attrib $-1 -1 $-1 $171 $127 43 $255 $-1 #
-227 NMx_Generated_Brep_tag-NMx_Brep_Name_tag-NMx_Brep_tag-NamingMatching-attrib $-1 -1 $269 $-1 $172 43 1 268 -1 42 0 20 #
-228 plane-surface $-1 -1 $-1 -0.6001 3.75278 -6.5 -2.0457e-16 0.866025 -0.5 -0 0.5 0.866025 forward_v I I I I #
-229 coedge $-1 -1 $-1 $178 $270 $175 $232 forward $173 0 $-1 #
-230 coedge $-1 -1 $-1 $231 $175 $181 $238 reversed $128 0 $-1 #
-231 coedge $-1 -1 $-1 $175 $230 $192 $245 reversed $128 0 $-1 #
-232 edge $-1 115 $-1 $271 0 $234 0.380711 $229 $272 forward @7 unknown #
-233 coedge $-1 -1 $-1 $273 $178 $188 $243 reversed $173 0 $-1 #
-234 vertex $-1 -1 $-1 $245 0 $274 #
-235 vertex $-1 -1 $-1 $189 0 $275 #
-236 intcurve-curve $-1 -1 $-1 forward { exact_int_cur 20900 full nurbs 2 open 2 0.380711 2 0.761423 2 -0.53001 1.94289e-16 -0.65 1 -0.53001 0.174167 -0.65 1.03795 -0.471954 0.375278 -0.65 1 0 null_surface null_surface nullbs nullbs I I 0 0 0 0 F 1 F 0 0 0 } I I #
-237 coedge $-1 -1 $-1 $239 $181 $270 $276 reversed $183 0 $-1 #
-238 edge $-1 116 $-1 $185 0.380711 $271 0.761423 $181 $277 forward @7 unknown #
-239 coedge $-1 -1 $-1 $182 $237 $249 $278 reversed $183 0 $-1 #
-240 point $-1 -1 $-1 -4.71954 -7.50555 2.16493e-14 #
-241 point $-1 -1 $-1 -5.3001 -5.62917 -3.25 #
-242 edge $279 122 $-1 $280 0 $214 0.750555 $211 $281 forward @7 unknown #
-243 edge $282 118 $-1 $280 0 $235 0.411944 $188 $283 forward @7 unknown #
-244 intcurve-curve $-1 -1 $-1 forward { exact_int_cur 20900 full nurbs 2 open 2 0 2 0.380711 2 -0.471954 0.375278 -0.65 1 -0.53001 0.475833 -0.475833 1.03795 -0.53001 0.562917 -0.325 1 0 null_surface null_surface nullbs nullbs I I 0 0 0 0 F 1 F 0 0 0 } I I #
-245 edge $-1 117 $-1 $234 1.5708 $185 2.61799 $192 $111 forward @7 unknown #
-246 NMx_Generated_Brep_tag-NMx_Brep_Name_tag-NMx_Brep_tag-NamingMatching-attrib $-1 -1 $-1 $-1 $193 43 1 268 -1 34 0 18 #
-247 vertex $284 -1 $-1 $196 1 $285 #
-248 straight-curve $-1 -1 $-1 -0.6001 -7.50555 -3.9658e-15 -1 -2.36218e-16 0 I I #
-249 coedge $-1 -1 $-1 $263 $195 $239 $278 forward $212 0 $-1 #
-250 NMx_Generated_Brep_tag-NMx_Brep_Name_tag-NMx_Brep_tag-NamingMatching-attrib $-1 -1 $-1 $-1 $196 43 1 268 -1 39 0 2 #
-251 straight-curve $-1 -1 $-1 -0.6001 -3.75278 6.5 6.19851e-17 -0.5 -0.866025 F 0 F 0.750555 #
-252 NMx_Generated_Brep_tag-NMx_Brep_Name_tag-NMx_Brep_tag-NamingMatching-attrib $-1 -1 $-1 $-1 $198 43 1 268 -1 33 0 1 #
-253 point $-1 -1 $-1 -0.6001 -3.75278 6.5 #
-254 NMx_Generated_Brep_tag-NMx_Brep_Name_tag-NMx_Brep_tag-NamingMatching-attrib $-1 -1 $-1 $200 $148 43 1 268 -1 39 0 20 #
-255 straight-curve $-1 -1 $-1 -0.6001 7.50555 6.85887e-15 -1 -1.2397e-16 0 I I #
-256 NMx_Feature_Orientation-NamingMatching-attrib $-1 -1 $286 $-1 $201 43 $255 $-1 #
-257 plane-surface $-1 -1 $-1 -0.6001 -7.50555 -3.9658e-15 2.0457e-16 -0.866025 -0.5 -1 0 -4.09141e-16 forward_v I I I I #
-258 NMx_Feature_Orientation-NamingMatching-attrib $-1 -1 $287 $-1 $205 43 $26 $-1 #
-259 cone-surface $-1 -1 $-1 -0.30005 -2.18325e-15 0 1 1.2397e-16 -0 0 0.5815 0 1 I I 0 1 0.5815 forward I I I I #
-260 NMx_Generated_Brep_tag-NMx_Brep_Name_tag-NMx_Brep_tag-NamingMatching-attrib $-1 -1 $-1 $-1 $208 43 1 268 -1 38 0 2 #
-261 straight-curve $-1 -1 $-1 -0.6001 3.75278 6.5 1.2397e-16 -1 -7.39601e-16 F 0 F 0.750555 #
-262 NMx_Generated_Brep_tag-NMx_Brep_Name_tag-NMx_Brep_tag-NamingMatching-attrib $-1 -1 $-1 $209 $155 43 1 268 -1 38 0 20 #
-263 coedge $-1 -1 $-1 $211 $249 $273 $288 forward $212 0 $-1 #
-264 loop $-1 -1 $-1 $-1 $289 $164 #
-265 NMx_Matched_Entity-NamingMatching-attrib $-1 -1 $290 $-1 $214 43 1 1060 -1 80 1 #
-266 point $-1 -1 $-1 -0.6001 7.50555 6.85887e-15 #
-267 NMx_Generated_Brep_tag-NMx_Brep_Name_tag-NMx_Brep_tag-NamingMatching-attrib $-1 -1 $-1 $218 $161 43 1 268 -1 31 0 18 #
-268 coedge $-1 -1 $-1 $268 $268 $289 $291 forward $223 0 $-1 #
-269 NMx_Feature_Orientation-NamingMatching-attrib $-1 -1 $-1 $227 $172 43 $255 $-1 #
-270 coedge $-1 -1 $-1 $229 $273 $237 $276 forward $173 0 $-1 #
-271 vertex $-1 -1 $-1 $238 1 $292 #
-272 intcurve-curve $-1 -1 $-1 forward { exact_int_cur 20900 full nurbs 2 open 2 0 2 0.380711 2 -0.471954 -0.375278 -0.65 1 -0.53001 -0.174167 -0.65 1.03795 -0.53001 1.94289e-16 -0.65 1 0 null_surface null_surface nullbs nullbs I I 0 0 0 0 F 1 F 0 0 0 } I I #
-273 coedge $-1 -1 $-1 $270 $233 $263 $288 reversed $173 0 $-1 #
-274 point $-1 -1 $-1 -5.3001 1.94289e-15 -6.5 #
-275 point $-1 -1 $-1 -4.71954 3.75278 -6.5 #
-276 edge $293 120 $-1 $294 0 $271 0.411944 $270 $295 forward @7 unknown #
-277 intcurve-curve $-1 -1 $-1 forward { exact_int_cur 20900 full nurbs 2 open 2 0.380711 2 0.761423 2 -0.53001 -0.562917 -0.325 1 -0.53001 -0.475833 -0.475833 1.03795 -0.471954 -0.375278 -0.65 1 0 null_surface null_surface nullbs nullbs I I 0 0 0 0 F 1 F 0 0 0 } I I #
-278 edge $296 127 $-1 $247 0 $294 0.750555 $249 $297 forward @7 unknown #
-279 NMx_Generated_Brep_tag-NMx_Brep_Name_tag-NMx_Brep_tag-NamingMatching-attrib $-1 -1 $-1 $-1 $242 43 1 268 -1 42 0 2 #
-280 vertex $298 -1 $-1 $288 1 $299 #
-281 straight-curve $-1 -1 $-1 -0.6001 3.75278 -6.5 -6.19851e-17 0.5 0.866025 F 0 F 0.750555 #
-282 NMx_Generated_Brep_tag-NMx_Brep_Name_tag-NMx_Brep_tag-NamingMatching-attrib $-1 -1 $-1 $-1 $243 43 1 268 -1 36 0 18 #
-283 straight-curve $-1 -1 $-1 -0.6001 3.75278 -6.5 -1 -2.36218e-16 0 I I #
-284 NMx_Generated_Brep_tag-NMx_Brep_Name_tag-NMx_Brep_tag-NamingMatching-attrib $-1 -1 $-1 $-1 $247 43 1 268 -1 34 0 1 #
-285 point $-1 -1 $-1 -0.6001 -7.50555 -3.9658e-15 #
-286 NMx_Generated_Brep_tag-NMx_Brep_Name_tag-NMx_Brep_tag-NamingMatching-attrib $-1 -1 $-1 $256 $201 43 1 268 -1 40 0 20 #
-287 NMx_Generated_Brep_tag-NMx_Brep_Name_tag-NMx_Brep_tag-NamingMatching-attrib $-1 -1 $-1 $258 $205 43 1 186 -1 45 0 20 #
-288 edge $300 119 $-1 $294 0 $280 0.750555 $263 $301 forward @7 unknown #
-289 coedge $-1 -1 $-1 $289 $289 $268 $291 reversed $264 0 $-1 #
-290 NMx_Matched_Entity-NamingMatching-attrib $-1 -1 $302 $265 $214 43 1 1068 -1 80 1 #
-291 edge $303 128 $-1 $304 0 $304 6.28319 $268 $305 forward @7 unknown #
-292 point $-1 -1 $-1 -4.71954 -3.75278 -6.5 #
-293 NMx_Generated_Brep_tag-NMx_Brep_Name_tag-NMx_Brep_tag-NamingMatching-attrib $-1 -1 $-1 $-1 $276 43 1 268 -1 35 0 18 #
-294 vertex $306 -1 $-1 $278 1 $307 #
-295 straight-curve $-1 -1 $-1 -0.6001 -3.75278 -6.5 -1 -2.36218e-16 0 I I #
-296 NMx_Generated_Brep_tag-NMx_Brep_Name_tag-NMx_Brep_tag-NamingMatching-attrib $-1 -1 $-1 $-1 $278 43 1 268 -1 40 0 2 #
-297 straight-curve $-1 -1 $-1 -0.6001 -7.50555 -3.9658e-15 -6.19851e-17 0.5 -0.866025 F 0 F 0.750555 #
-298 NMx_Generated_Brep_tag-NMx_Brep_Name_tag-NMx_Brep_tag-NamingMatching-attrib $-1 -1 $-1 $-1 $280 43 1 268 -1 36 0 1 #
-299 point $-1 -1 $-1 -0.6001 3.75278 -6.5 #
-300 NMx_Generated_Brep_tag-NMx_Brep_Name_tag-NMx_Brep_tag-NamingMatching-attrib $-1 -1 $-1 $-1 $288 43 1 268 -1 41 0 2 #
-301 straight-curve $-1 -1 $-1 -0.6001 -3.75278 -6.5 -1.2397e-16 1 2.9584e-16 F 0 F 0.750555 #
-302 NMx_Generated_Brep_tag-NMx_Brep_Name_tag-NMx_Brep_tag-NamingMatching-attrib $-1 -1 $-1 $290 $214 43 1 268 -1 31 0 1 #
-303 NMx_Matched_Entity-NamingMatching-attrib $-1 -1 $-1 $-1 $291 43 1 934 -1 71 0 #
-304 vertex $-1 -1 $-1 $291 2 $308 #
-305 ellipse-curve $-1 -1 $-1 -0.6001 -2.22045e-15 0 1 1.2397e-16 -0 0 0.5815 0 1 I I #
-306 NMx_Generated_Brep_tag-NMx_Brep_Name_tag-NMx_Brep_tag-NamingMatching-attrib $-1 -1 $-1 $-1 $294 43 1 268 -1 35 0 1 #
-307 point $-1 -1 $-1 -0.6001 -3.75278 -6.5 #
-308 point $-1 -1 $-1 -0.6001 5.815 0 #
Begin-of-ACIS-History-Data history_stream 173 173 0 132 $-1 $0 $1 $-1 #
-0 delta_state 173 1 0 $-1 $2 $0 $-1 $0 F 1 $0 2 1 $309 $-1 1 $310 $-1 1 $-1 $4 1 $-1 $13 1 $-1 $22 1 $-1 $14 1 $-1 $8 1 $-1 $7 1 $311 $-1 1 $312 $-1 1 $313 $-1 1 $314 $-1 1 $-1 $52 1 $-1 $36 1 $-1 $37 1 $-1 $24 1 $-1 $23 1 $-1 $66 1 $-1 $50 1 $-1 $51 1 $-1 $35 1 $-1 $32 1 $-1 $18 1 $-1 $20 1 $-1 $10 1 $315 $3 1 $-1 $39 1 $-1 $27 1 $-1 $16 1 $316 $11 1 $-1 $6 1 $-1 $38 1 $-1 $25 1 $-1 $15 1 $-1 $9 1 $317 $63 1 $318 $-1 1 $319 $-1 1 $320 $-1 1 $321 $-1 1 $322 $-1 1 $323 $-1 1 $324 $-1 1 $325 $-1 1 $326 $-1 1 $327 $-1 1 $328 $-1 1 $329 $-1 1 $330 $-1 1 $331 $-1 1 $332 $-1 1 $-1 $5 0 0 0 #
-1 delta_state 2 1 0 $3 $-1 $1 $-1 $0 F 0 0 #
-2 delta_state 172 1 0 $0 $4 $2 $-1 $0 F 1 $2 2 1 $-1 $311 1 $333 $330 1 $334 $312 0 0 0 #
-3 delta_state 166 1 0 $5 $1 $3 $-1 $0 F 1 $3 2 1 $-1 $1 1 $-1 $323 1 $-1 $304 1 $-1 $325 1 $-1 $324 1 $-1 $168 1 $-1 $335 1 $-1 $308 1 $-1 $48 1 $-1 $224 1 $-1 $225 1 $-1 $64 1 $-1 $65 1 $-1 $3 1 $-1 $2 1 $-1 $326 1 $-1 $310 1 $-1 $319 1 $-1 $318 1 $-1 $19 1 $-1 $320 1 $-1 $314 1 $-1 $12 1 $-1 $329 1 $-1 $312 1 $-1 $49 1 $-1 $34 1 $-1 $21 1 $-1 $33 1 $-1 $11 1 $-1 $169 1 $-1 $123 1 $-1 $86 1 $-1 $122 1 $-1 $88 1 $-1 $62 1 $-1 $63 1 $-1 $305 1 $-1 $291 1 $-1 $268 1 $-1 $336 1 $-1 $259 1 $-1 $223 1 $-1 $205 1 $-1 $337 1 $-1 $338 1 $-1 $339 1 $-1 $166 1 $-1 $46 1 $-1 $328 1 $-1 $322 1 $-1 $332 1 $-1 $47 1 $-1 $167 1 $-1 $124 1 $-1 $340 1 $-1 $287 1 $-1 $341 1 $-1 $26 1 $-1 $342 1 $-1 $258 1 $-1 $87 1 $-1 $331 1 $-1 $321 0 0 0 #
-4 delta_state 171 1 0 $2 $6 $4 $-1 $0 F 1 $4 2 1 $-1 $31 1 $-1 $41 1 $-1 $30 1 $343 $-1 1 $344 $-1 1 $345 $-1 1 $346 $-1 1 $347 $-1 1 $348 $-1 1 $349 $147 1 $350 $116 1 $-1 $121 1 $-1 $153 1 $-1 $114 1 $-1 $79 1 $-1 $59 1 $-1 $78 1 $-1 $149 1 $-1 $142 1 $-1 $99 1 $-1 $72 1 $-1 $98 1 $351 $-1 1 $352 $-1 1 $353 $-1 1 $354 $-1 1 $355 $193 1 $-1 $150 1 $-1 $107 1 $-1 $75 1 $-1 $57 1 $-1 $74 1 $-1 $240 1 $-1 $194 1 $-1 $145 1 $-1 $130 1 $-1 $102 1 $356 $-1 1 $357 $-1 1 $358 $-1 1 $359 $-1 1 $360 $276 1 $-1 $241 1 $-1 $186 1 $-1 $133 1 $-1 $93 1 $-1 $132 1 $-1 $292 1 $-1 $277 1 $-1 $238 1 $-1 $230 1 $-1 $181 1 $361 $-1 1 $362 $-1 1 $363 $-1 1 $364 $-1 1 $365 $243 1 $-1 $274 1 $-1 $272 1 $-1 $232 1 $-1 $175 1 $-1 $229 1 $-1 $275 1 $-1 $236 1 $-1 $179 1 $-1 $129 1 $-1 $178 1 $366 $-1 1 $367 $-1 1 $368 $-1 1 $369 $-1 1 $370 $161 1 $-1 $190 1 $-1 $244 1 $-1 $189 1 $-1 $177 1 $-1 $136 1 $-1 $191 1 $-1 $140 1 $-1 $97 1 $-1 $71 1 $-1 $96 1 $371 $-1 1 $372 $-1 1 $-1 $120 1 $-1 $162 1 $-1 $118 1 $-1 $95 1 $-1 $81 1 $-1 $85 1 $-1 $61 1 $-1 $45 1 $-1 $60 1 $-1 $111 1 $-1 $101 1 $-1 $100 1 $-1 $77 1 $-1 $76 1 $-1 $134 1 $-1 $108 1 $-1 $203 1 $-1 $151 1 $-1 $245 1 $-1 $192 1 $-1 $180 1 $-1 $143 1 $-1 $58 1 $-1 $94 1 $-1 $73 1 $-1 $176 1 $-1 $131 1 $-1 $231 1 $-1 $44 1 $-1 $56 1 $-1 $70 1 $-1 $92 1 $-1 $128 1 $-1 $84 1 $373 $160 1 $374 $-1 1 $375 $112 1 $376 $-1 1 $377 $80 1 $-1 $110 1 $378 $-1 1 $379 $141 1 $380 $-1 1 $381 $-1 1 $-1 $83 1 $382 $-1 1 $383 $-1 1 $-1 $105 1 $384 $199 1 $385 $-1 1 $386 $103 1 $-1 $139 1 $387 $219 1 $388 $117 1 $389 $-1 1 $390 $135 1 $-1 $106 1 $391 $-1 1 $392 $144 1 $393 $-1 1 $-1 $138 1 $394 $-1 1 $395 $-1 1 $-1 $185 1 $396 $-1 1 $397 $237 1 $398 $-1 1 $399 $-1 1 $-1 $184 1 $400 $248 1 $401 $182 1 $-1 $235 1 $402 $283 1 $403 $188 1 $404 $-1 1 $405 $233 1 $-1 $234 1 $406 $-1 1 $-1 $271 1 $407 $295 1 $408 $270 1 $409 $-1 1 $410 $155 1 $411 $154 1 $412 $-1 1 $-1 $82 1 $413 $-1 1 $414 $115 1 $415 $-1 1 $416 $152 1 $-1 $113 1 $417 $-1 1 $418 $148 1 $419 $146 1 $420 $-1 1 $-1 $137 1 $421 $-1 1 $422 $187 1 $-1 $104 1 $423 $-1 1 $424 $201 1 $425 $239 1 $426 $-1 1 $-1 $173 1 $427 $-1 1 $428 $273 1 $-1 $183 1 $-1 $109 1 $-1 $91 1 $-1 $170 1 $-1 $126 1 $-1 $69 1 $-1 $125 1 $-1 $90 1 $-1 $55 1 $-1 $89 1 $-1 $68 1 $-1 $43 1 $-1 $67 1 $-1 $54 1 $-1 $29 1 $-1 $53 1 $-1 $42 1 $-1 $17 1 $-1 $40 1 $-1 $28 1 $429 $3 1 $-1 $119 1 $-1 $220 1 $-1 $163 1 $-1 $172 1 $-1 $269 1 $-1 $227 1 $-1 $127 1 $-1 $226 1 $-1 $171 1 $430 $-1 1 $431 $-1 1 $432 $-1 1 $433 $-1 1 $434 $-1 1 $435 $-1 1 $436 $-1 1 $437 $-1 1 $438 $-1 1 $439 $-1 1 $440 $-1 1 $441 $-1 1 $442 $-1 1 $443 $-1 1 $444 $-1 1 $445 $-1 1 $446 $-1 1 $447 $-1 0 0 0 #
-5 delta_state 167 1 0 $7 $3 $5 $-1 $0 F 1 $5 2 1 $-1 $327 1 $448 $328 1 $449 $310 1 $-1 $330 1 $450 $331 1 $451 $312 1 $-1 $313 1 $452 $321 1 $453 $314 1 $-1 $309 1 $-1 $303 1 $454 $340 1 $455 $291 1 $-1 $456 1 $457 $342 1 $458 $339 1 $-1 $459 0 0 0 #
-6 delta_state 170 1 0 $4 $7 $6 $-1 $0 F 1 $6 2 1 $-1 $368 1 $460 $440 1 $461 $369 1 $-1 $438 1 $462 $439 1 $463 $362 1 $-1 $436 1 $464 $437 1 $465 $367 1 $-1 $361 1 $-1 $218 1 $466 $267 1 $467 $161 1 $-1 $290 1 $468 $302 1 $469 $214 1 $-1 $444 1 $-1 $366 1 $-1 $265 0 0 0 #
-7 delta_state 169 1 0 $6 $5 $7 $-1 $0 F 1 $7 2 1 $-1 $155 1 $-1 $209 1 $-1 $262 1 $-1 $148 1 $-1 $210 1 $-1 $409 1 $-1 $255 1 $-1 $200 1 $-1 $254 1 $-1 $201 1 $-1 $202 1 $-1 $417 1 $-1 $374 1 $-1 $256 1 $-1 $286 1 $-1 $427 1 $-1 $257 1 $-1 $423 1 $-1 $385 1 $-1 $141 1 $-1 $112 1 $-1 $381 1 $-1 $348 1 $-1 $432 1 $-1 $435 1 $-1 $421 1 $-1 $174 1 $-1 $426 1 $-1 $398 1 $-1 $144 1 $-1 $103 1 $-1 $380 1 $-1 $354 1 $-1 $154 1 $-1 $147 1 $-1 $80 1 $-1 $116 1 $-1 $383 1 $-1 $415 1 $-1 $347 1 $-1 $344 1 $-1 $346 1 $-1 $378 1 $-1 $431 1 $-1 $434 1 $-1 $413 1 $-1 $228 1 $-1 $420 1 $-1 $404 1 $-1 $237 1 $-1 $182 1 $-1 $393 1 $-1 $359 1 $-1 $146 1 $-1 $193 1 $-1 $353 1 $-1 $352 1 $-1 $391 1 $-1 $207 1 $-1 $208 1 $-1 $197 1 $-1 $198 1 $-1 $199 1 $-1 $115 1 $-1 $376 1 $-1 $412 1 $-1 $158 1 $-1 $159 1 $-1 $160 1 $-1 $395 1 $-1 $372 1 $-1 $152 1 $-1 $343 1 $-1 $441 1 $-1 $345 1 $-1 $442 1 $-1 $430 1 $-1 $433 1 $-1 $165 1 $-1 $389 1 $-1 $233 1 $-1 $270 1 $-1 $399 1 $-1 $364 1 $-1 $239 1 $-1 $276 1 $-1 $358 1 $-1 $357 1 $-1 $396 1 $-1 $195 1 $-1 $196 1 $-1 $246 1 $-1 $247 1 $-1 $248 1 $-1 $351 1 $-1 $445 1 $-1 $156 1 $-1 $212 1 $-1 $260 1 $-1 $261 1 $-1 $252 1 $-1 $253 1 $-1 $117 1 $-1 $157 1 $-1 $216 1 $-1 $217 1 $-1 $369 1 $-1 $371 1 $-1 $367 1 $-1 $382 1 $-1 $204 1 $-1 $206 1 $-1 $135 1 $-1 $188 1 $-1 $273 1 $-1 $243 1 $-1 $363 1 $-1 $362 1 $-1 $406 1 $-1 $249 1 $-1 $278 1 $-1 $293 1 $-1 $294 1 $-1 $295 1 $-1 $356 1 $-1 $447 1 $-1 $250 1 $-1 $251 1 $-1 $284 1 $-1 $285 1 $-1 $211 1 $-1 $161 1 $-1 $213 1 $-1 $214 1 $-1 $215 1 $-1 $440 1 $-1 $394 1 $-1 $437 1 $-1 $443 1 $-1 $222 1 $-1 $187 1 $-1 $263 1 $-1 $288 1 $-1 $282 1 $-1 $280 1 $-1 $283 1 $-1 $439 1 $-1 $446 1 $-1 $296 1 $-1 $297 1 $-1 $306 1 $-1 $307 1 $-1 $242 1 $-1 $267 1 $-1 $219 1 $-1 $302 1 $-1 $266 1 $-1 $300 1 $-1 $301 1 $-1 $298 1 $-1 $299 1 $-1 $279 1 $-1 $281 1 $470 $303 1 $335 $-1 1 $471 $304 1 $-1 $289 1 $-1 $264 1 $472 $268 1 $336 $-1 1 $-1 $164 1 $-1 $221 1 $459 $-1 1 $339 $-1 1 $473 $3 1 $338 $-1 1 $337 $-1 1 $456 $-1 1 $342 $-1 1 $341 $-1 1 $340 $-1 0 0 0 #
End-of-ACIS-History-Section
-309 NMx_Matched_Entity-NamingMatching-attrib $-1 -1 $327 $-1 $310 43 1 1255 -1 17 0 #
-310 edge $309 -1 $-1 $323 0 $323 6.28319 $319 $326 forward @7 unknown #
-311 NMx_Thread_Entity-NamingMatching-attrib $-1 -1 $330 $-1 $312 43 0.125 0.0744 1 80 4 0 4 4 0 14 0 0 0 1 @1 8 @7 M8x1.25 4298 @18 ISO Metric profile @0  @0  1 @2 6g @4 1.25 @4 7.76 @5 7.972 @5 7.042 @4 7.16 @5 6.272 @5 6.619 @0  1 896 -1 0 0 0 0 0 0 1 #
-312 face $311 -1 $-1 $314 $11 $3 $-1 $12 forward single #
-313 NMx_Matched_Entity-NamingMatching-attrib $-1 -1 $321 $-1 $314 43 1 1259 -1 16 1 #
-314 face $313 -1 $-1 $-1 $320 $3 $-1 $19 forward single #
-315 shell $-1 -1 $-1 $-1 $-1 $17 $-1 $2 #
-316 loop $-1 -1 $-1 $329 $21 $312 #
-317 face $87 96 $-1 $312 $46 $3 $-1 $88 forward single #
-318 coedge $-1 -1 $-1 $318 $318 $319 $310 reversed $329 0 $-1 #
-319 coedge $-1 -1 $-1 $319 $319 $318 $310 forward $320 0 $-1 #
-320 loop $-1 -1 $-1 $-1 $319 $314 #
-321 NMx_Feature_Orientation-NamingMatching-attrib $-1 -1 $322 $313 $314 43 $26 $-1 #
-322 NMx_Generated_Brep_tag-NMx_Brep_Name_tag-NMx_Brep_tag-NamingMatching-attrib $-1 -1 $-1 $321 $314 43 1 186 -1 23 0 20 #
-323 vertex $325 -1 $-1 $310 2 $324 #
-324 point $-1 -1 $-1 80 4 0 #
-325 NMx_Generated_Brep_tag-NMx_Brep_Name_tag-NMx_Brep_tag-NamingMatching-attrib $-1 -1 $-1 $-1 $323 43 1 186 -1 40 0 1 #
-326 ellipse-curve $-1 -1 $-1 80 7.77156e-15 0 1 1.2397e-16 -0 0 0.4 0 1 I I #
-327 NMx_Matched_Entity-NamingMatching-attrib $-1 -1 $328 $309 $310 43 1 1414 -1 17 0 #
-328 NMx_Generated_Brep_tag-NMx_Brep_Name_tag-NMx_Brep_tag-NamingMatching-attrib $-1 -1 $-1 $327 $310 43 1 186 -1 40 0 18 #
-329 loop $-1 -1 $-1 $-1 $318 $312 #
-330 NMx_Matched_Entity-NamingMatching-attrib $-1 -1 $331 $311 $312 43 1 1406 -1 15 1 #
-331 NMx_Feature_Orientation-NamingMatching-attrib $-1 -1 $332 $330 $312 43 $26 $-1 #
-332 NMx_Generated_Brep_tag-NMx_Brep_Name_tag-NMx_Brep_tag-NamingMatching-attrib $-1 -1 $-1 $331 $312 43 1 186 -1 19 0 20 #
-333 NMx_Matched_Entity-NamingMatching-attrib $-1 -1 $331 $-1 $312 43 1 1406 -1 15 1 #
-334 face $330 -1 $-1 $314 $11 $3 $-1 $12 forward single #
-335 NMx_Generated_Brep_tag-NMx_Brep_Name_tag-NMx_Brep_tag-NamingMatching-attrib $-1 -1 $-1 $-1 $304 43 1 186 -1 42 0 1 #
-336 coedge $-1 -1 $-1 $336 $336 $268 $291 reversed $338 0 $-1 #
-337 plane-surface $-1 -1 $-1 -0.6001 2.9075 0 -1 -1.2397e-16 0 0 -0 1 forward_v I I I I #
-338 loop $-1 -1 $-1 $-1 $336 $339 #
-339 face $459 -1 $-1 $205 $338 $3 $-1 $337 forward single #
-340 NMx_Generated_Brep_tag-NMx_Brep_Name_tag-NMx_Brep_tag-NamingMatching-attrib $-1 -1 $-1 $303 $291 43 1 186 -1 42 0 18 #
-341 NMx_Generated_Brep_tag-NMx_Brep_Name_tag-NMx_Brep_tag-NamingMatching-attrib $-1 -1 $-1 $342 $339 43 1 186 -1 43 0 20 #
-342 NMx_Feature_Orientation-NamingMatching-attrib $-1 -1 $341 $456 $339 43 $26 $-1 #
-343 NMx_Generated_Brep_tag-NMx_Brep_Name_tag-NMx_Brep_tag-NamingMatching-attrib $-1 -1 $-1 $-1 $344 43 1 268 -1 32 0 9 #
-344 vertex $343 -1 $-1 $116 2 $441 #
-345 NMx_Generated_Brep_tag-NMx_Brep_Name_tag-NMx_Brep_tag-NamingMatching-attrib $-1 -1 $-1 $-1 $346 43 1 268 -1 33 0 9 #
-346 vertex $345 -1 $-1 $147 2 $442 #
-347 NMx_Generated_Brep_tag-NMx_Brep_Name_tag-NMx_Brep_tag-NamingMatching-attrib $-1 -1 $-1 $-1 $348 43 1 268 -1 38 0 10 #
-348 edge $347 -1 $-1 $344 0 $346 0.750555 $374 $378 forward @7 unknown #
-349 edge $197 129 $-1 $198 0 $346 0.47 $103 $199 forward @7 unknown #
-350 edge $158 123 $-1 $159 0 $344 0.47 $112 $160 forward @7 unknown #
-351 NMx_Generated_Brep_tag-NMx_Brep_Name_tag-NMx_Brep_tag-NamingMatching-attrib $-1 -1 $-1 $-1 $352 43 1 268 -1 34 0 9 #
-352 vertex $351 -1 $-1 $193 2 $445 #
-353 NMx_Generated_Brep_tag-NMx_Brep_Name_tag-NMx_Brep_tag-NamingMatching-attrib $-1 -1 $-1 $-1 $354 43 1 268 -1 39 0 10 #
-354 edge $353 -1 $-1 $346 6.88173e-33 $352 0.750555 $385 $391 forward @7 unknown #
-355 edge $246 130 $-1 $247 0 $352 0.47 $182 $248 forward @7 unknown #
-356 NMx_Generated_Brep_tag-NMx_Brep_Name_tag-NMx_Brep_tag-NamingMatching-attrib $-1 -1 $-1 $-1 $357 43 1 268 -1 35 0 9 #
-357 vertex $356 -1 $-1 $276 2 $447 #
-358 NMx_Generated_Brep_tag-NMx_Brep_Name_tag-NMx_Brep_tag-NamingMatching-attrib $-1 -1 $-1 $-1 $359 43 1 268 -1 40 0 10 #
-359 edge $358 -1 $-1 $352 0 $357 0.750555 $398 $396 forward @7 unknown #
-360 edge $293 120 $-1 $294 0 $357 0.47 $270 $295 forward @7 unknown #
-361 NMx_Matched_Entity-NamingMatching-attrib $-1 -1 $438 $-1 $362 43 1 1073 -1 85 1 #
-362 vertex $361 -1 $-1 $243 2 $446 #
-363 NMx_Generated_Brep_tag-NMx_Brep_Name_tag-NMx_Brep_tag-NamingMatching-attrib $-1 -1 $-1 $-1 $364 43 1 268 -1 41 0 10 #
-364 edge $363 -1 $-1 $357 -1.37635e-32 $362 0.750555 $404 $406 forward @7 unknown #
-365 edge $282 118 $-1 $280 0 $362 0.47 $188 $283 forward @7 unknown #
-366 NMx_Matched_Entity-NamingMatching-attrib $-1 -1 $444 $-1 $367 43 1 1064 -1 81 1 #
-367 vertex $366 -1 $-1 $161 2 $443 #
-368 NMx_Matched_Entity-NamingMatching-attrib $-1 -1 $440 $-1 $369 43 1 1077 -1 87 0 #
-369 edge $368 -1 $-1 $362 0 $367 0.750555 $389 $394 forward @7 unknown #
-370 edge $218 121 $-1 $214 0 $367 0.47 $117 $219 forward @7 unknown #
-371 NMx_Generated_Brep_tag-NMx_Brep_Name_tag-NMx_Brep_tag-NamingMatching-attrib $-1 -1 $-1 $-1 $372 43 1 268 -1 37 0 10 #
-372 edge $371 -1 $-1 $367 0 $344 0.750555 $376 $382 forward @7 unknown #
-373 straight-curve $-1 -1 $-1 -0.6001 3.75278 6.5 -1 -2.36218e-16 0 I I #
-374 coedge $-1 -1 $-1 $141 $112 $381 $348 forward $409 0 $-1 #
-375 coedge $-1 -1 $-1 $374 $154 $80 $116 forward $409 0 $-1 #
-376 coedge $-1 -1 $-1 $80 $117 $383 $372 forward $412 0 $-1 #
-377 coedge $-1 -1 $-1 $115 $376 $112 $116 reversed $412 0 $-1 #
-378 straight-curve $-1 -1 $-1 -5.3001 3.75278 6.5 1.2397e-16 -1 -7.39601e-16 F 0 F 0.750555 #
-379 coedge $-1 -1 $-1 $154 $374 $103 $147 reversed $409 0 $-1 #
-380 coedge $-1 -1 $-1 $381 $393 $385 $354 reversed $415 0 $-1 #
-381 coedge $-1 -1 $-1 $383 $380 $374 $348 reversed $415 0 $-1 #
-382 straight-curve $-1 -1 $-1 -5.3001 7.50555 6.85887e-15 6.19851e-17 -0.5 0.866025 F 0 F 0.750555 #
-383 coedge $-1 -1 $-1 $395 $381 $376 $372 reversed $415 0 $-1 #
-384 straight-curve $-1 -1 $-1 -0.6001 -3.75278 6.5 -1 -2.36218e-16 0 I I #
-385 coedge $-1 -1 $-1 $144 $103 $380 $354 forward $417 0 $-1 #
-386 coedge $-1 -1 $-1 $385 $146 $141 $147 forward $417 0 $-1 #
-387 straight-curve $-1 -1 $-1 -0.6001 7.50555 6.85887e-15 -1 -2.36218e-16 0 I I #
-388 coedge $-1 -1 $-1 $376 $115 $135 $161 forward $412 0 $-1 #
-389 coedge $-1 -1 $-1 $135 $188 $395 $369 forward $420 0 $-1 #
-390 coedge $-1 -1 $-1 $187 $389 $117 $161 reversed $420 0 $-1 #
-391 straight-curve $-1 -1 $-1 -5.3001 -3.75278 6.5 6.19851e-17 -0.5 -0.866025 F 0 F 0.750555 #
-392 coedge $-1 -1 $-1 $146 $385 $182 $193 reversed $417 0 $-1 #
-393 coedge $-1 -1 $-1 $380 $399 $398 $359 reversed $415 0 $-1 #
-394 straight-curve $-1 -1 $-1 -5.3001 3.75278 -6.5 -6.19851e-17 0.5 0.866025 F 0 F 0.750555 #
-395 coedge $-1 -1 $-1 $399 $383 $389 $369 reversed $415 0 $-1 #
-396 straight-curve $-1 -1 $-1 -5.3001 -7.50555 -3.9658e-15 -6.19851e-17 0.5 -0.866025 F 0 F 0.750555 #
-397 coedge $-1 -1 $-1 $239 $398 $270 $276 reversed $423 0 $-1 #
-398 coedge $-1 -1 $-1 $237 $182 $393 $359 forward $423 0 $-1 #
-399 coedge $-1 -1 $-1 $393 $395 $404 $364 reversed $415 0 $-1 #
-400 straight-curve $-1 -1 $-1 -0.6001 -7.50555 -3.9658e-15 -1 -2.36218e-16 0 I I #
-401 coedge $-1 -1 $-1 $398 $239 $144 $193 forward $423 0 $-1 #
-402 straight-curve $-1 -1 $-1 -0.6001 3.75278 -6.5 -1 -2.36218e-16 0 I I #
-403 coedge $-1 -1 $-1 $389 $187 $233 $243 forward $420 0 $-1 #
-404 coedge $-1 -1 $-1 $233 $270 $399 $364 forward $426 0 $-1 #
-405 coedge $-1 -1 $-1 $273 $404 $188 $243 reversed $426 0 $-1 #
-406 straight-curve $-1 -1 $-1 -5.3001 -3.75278 -6.5 -1.2397e-16 1 2.9584e-16 F 0 F 0.750555 #
-407 straight-curve $-1 -1 $-1 -0.6001 -3.75278 -6.5 -1 -2.36218e-16 0 I I #
-408 coedge $-1 -1 $-1 $404 $273 $237 $276 forward $426 0 $-1 #
-409 loop $-1 -1 $-1 $-1 $374 $155 #
-410 face $209 91 $-1 $148 $409 $3 $-1 $210 forward single #
-411 coedge $-1 -1 $-1 $112 $141 $207 $208 reversed $409 0 $-1 #
-412 loop $-1 -1 $-1 $-1 $376 $413 #
-413 face $430 -1 $-1 $152 $412 $3 $-1 $165 forward single #
-414 coedge $-1 -1 $-1 $117 $80 $156 $157 reversed $412 0 $-1 #
-415 loop $-1 -1 $-1 $-1 $381 $152 #
-416 face $204 94 $-1 $205 $415 $3 $-1 $206 reversed single #
-417 loop $-1 -1 $-1 $-1 $385 $148 #
-418 face $200 92 $-1 $201 $417 $3 $-1 $202 forward single #
-419 coedge $-1 -1 $-1 $103 $144 $195 $196 reversed $417 0 $-1 #
-420 loop $-1 -1 $-1 $-1 $389 $421 #
-421 face $431 -1 $-1 $413 $420 $3 $-1 $228 forward single #
-422 coedge $-1 -1 $-1 $188 $135 $211 $242 reversed $420 0 $-1 #
-423 loop $-1 -1 $-1 $-1 $398 $201 #
-424 face $256 93 $-1 $427 $423 $3 $-1 $257 forward single #
-425 coedge $-1 -1 $-1 $182 $237 $249 $278 reversed $423 0 $-1 #
-426 loop $-1 -1 $-1 $-1 $404 $427 #
-427 face $432 -1 $-1 $421 $426 $3 $-1 $174 forward single #
-428 coedge $-1 -1 $-1 $270 $233 $263 $288 reversed $426 0 $-1 #
-429 shell $-1 -1 $-1 $-1 $-1 $164 $-1 $2 #
-430 NMx_Feature_Orientation-NamingMatching-attrib $-1 -1 $433 $-1 $413 43 $255 $-1 #
-431 NMx_Feature_Orientation-NamingMatching-attrib $-1 -1 $434 $-1 $421 43 $255 $-1 #
-432 NMx_Feature_Orientation-NamingMatching-attrib $-1 -1 $435 $-1 $427 43 $255 $-1 #
-433 NMx_Generated_Brep_tag-NMx_Brep_Name_tag-NMx_Brep_tag-NamingMatching-attrib $-1 -1 $-1 $430 $413 43 1 268 -1 37 0 20 #
-434 NMx_Generated_Brep_tag-NMx_Brep_Name_tag-NMx_Brep_tag-NamingMatching-attrib $-1 -1 $-1 $431 $421 43 1 268 -1 42 0 20 #
-435 NMx_Generated_Brep_tag-NMx_Brep_Name_tag-NMx_Brep_tag-NamingMatching-attrib $-1 -1 $-1 $432 $427 43 1 268 -1 41 0 20 #
-436 NMx_Matched_Entity-NamingMatching-attrib $-1 -1 $437 $444 $367 43 1 1077 -1 81 1 #
-437 NMx_Generated_Brep_tag-NMx_Brep_Name_tag-NMx_Brep_tag-NamingMatching-attrib $-1 -1 $-1 $436 $367 43 1 268 -1 31 0 9 #
-438 NMx_Matched_Entity-NamingMatching-attrib $-1 -1 $439 $361 $362 43 1 1077 -1 85 1 #
-439 NMx_Generated_Brep_tag-NMx_Brep_Name_tag-NMx_Brep_tag-NamingMatching-attrib $-1 -1 $-1 $438 $362 43 1 268 -1 36 0 9 #
-440 NMx_Generated_Brep_tag-NMx_Brep_Name_tag-NMx_Brep_tag-NamingMatching-attrib $-1 -1 $-1 $368 $369 43 1 268 -1 42 0 10 #
-441 point $-1 -1 $-1 -5.3001 3.75278 6.5 #
-442 point $-1 -1 $-1 -5.3001 -3.75278 6.5 #
-443 point $-1 -1 $-1 -5.3001 7.50555 6.85887e-15 #
-444 NMx_Matched_Entity-NamingMatching-attrib $-1 -1 $436 $366 $367 43 1 1068 -1 81 1 #
-445 point $-1 -1 $-1 -5.3001 -7.50555 -3.9658e-15 #
-446 point $-1 -1 $-1 -5.3001 3.75278 -6.5 #
-447 point $-1 -1 $-1 -5.3001 -3.75278 -6.5 #
-448 NMx_Generated_Brep_tag-NMx_Brep_Name_tag-NMx_Brep_tag-NamingMatching-attrib $-1 -1 $-1 $-1 $310 43 1 186 -1 40 0 18 #
-449 edge $328 -1 $-1 $323 0 $323 6.28319 $319 $326 forward @7 unknown #
-450 NMx_Feature_Orientation-NamingMatching-attrib $-1 -1 $332 $-1 $312 43 $26 $-1 #
-451 face $331 -1 $-1 $314 $11 $3 $-1 $12 forward single #
-452 NMx_Feature_Orientation-NamingMatching-attrib $-1 -1 $322 $-1 $314 43 $26 $-1 #
-453 face $321 -1 $-1 $-1 $320 $3 $-1 $19 forward single #
-454 NMx_Generated_Brep_tag-NMx_Brep_Name_tag-NMx_Brep_tag-NamingMatching-attrib $-1 -1 $-1 $-1 $291 43 1 186 -1 42 0 18 #
-455 edge $340 128 $-1 $304 0 $304 6.28319 $268 $305 forward @7 unknown #
-456 NMx_Matched_Entity-NamingMatching-attrib $-1 -1 $342 $459 $339 43 1 932 -1 33 1 #
-457 NMx_Feature_Orientation-NamingMatching-attrib $-1 -1 $341 $-1 $339 43 $26 $-1 #
-458 face $342 -1 $-1 $205 $338 $3 $-1 $337 forward single #
-459 NMx_Matched_Entity-NamingMatching-attrib $-1 -1 $456 $-1 $339 43 1 929 -1 33 1 #
-460 NMx_Generated_Brep_tag-NMx_Brep_Name_tag-NMx_Brep_tag-NamingMatching-attrib $-1 -1 $-1 $-1 $369 43 1 268 -1 42 0 10 #
-461 edge $440 -1 $-1 $362 0 $367 0.750555 $389 $394 forward @7 unknown #
-462 NMx_Generated_Brep_tag-NMx_Brep_Name_tag-NMx_Brep_tag-NamingMatching-attrib $-1 -1 $-1 $-1 $362 43 1 268 -1 36 0 9 #
-463 vertex $439 -1 $-1 $243 2 $446 #
-464 NMx_Generated_Brep_tag-NMx_Brep_Name_tag-NMx_Brep_tag-NamingMatching-attrib $-1 -1 $-1 $-1 $367 43 1 268 -1 31 0 9 #
-465 vertex $437 -1 $-1 $161 2 $443 #
-466 NMx_Generated_Brep_tag-NMx_Brep_Name_tag-NMx_Brep_tag-NamingMatching-attrib $-1 -1 $-1 $-1 $161 43 1 268 -1 31 0 18 #
-467 edge $267 121 $-1 $214 0 $367 0.47 $117 $219 forward @7 unknown #
-468 NMx_Generated_Brep_tag-NMx_Brep_Name_tag-NMx_Brep_tag-NamingMatching-attrib $-1 -1 $-1 $-1 $214 43 1 268 -1 31 0 1 #
-469 vertex $302 -1 $-1 $157 0 $266 #
-470 NMx_Matched_Entity-NamingMatching-attrib $-1 -1 $340 $-1 $291 43 1 934 -1 71 0 #
-471 vertex $335 -1 $-1 $291 2 $308 #
-472 coedge $-1 -1 $-1 $268 $268 $336 $291 forward $223 0 $-1 #
-473 shell $-1 -1 $-1 $-1 $-1 $339 $-1 $2 #

End-of-ACIS-data
