22600 0 2 5
8 Inventor 20 ASM 226.0.3.65535 NT 24 Sat Jun 24 18:29:04 2023
10 1e-06 1e-10
-0 asmheader $-1 -1 @13 226.0.3.65535 #
-1 body $-1 152 $-1 $2 $-1 $-1 #
-2 lump $-1 -1 $-1 $-1 $3 $1 #
-3 shell $-1 -1 $-1 $-1 $-1 $4 $-1 $2 #
-4 face $5 153 $-1 $6 $7 $3 $-1 $8 forward single #
-5 NMx_edge_blend_tag-NMx_Brep_Name_tag-NMx_Brep_tag-NamingMatching-attrib $-1 -1 $-1 $-1 $4 43 1 511 -1 73 #
-6 face $9 154 $-1 $10 $11 $3 $-1 $12 reversed single #
-7 loop $-1 -1 $-1 $13 $14 $4 #
-8 cone-surface $-1 -1 $-1 0.195312 0 0 -1 0 0 0 0 -0.366179 1 I I -0.866025 -0.5 0.366179 forward I I I I #
-9 NMx_Thread_Entity-NamingMatching-attrib $-1 -1 $15 $-1 $6 43 0.125 0.06765 1 6.8 -3.3235 -2.03506e-16 0 -3.3235 -2.03506e-16 24 0 -3.3235 -2.03506e-16 1 @1 8 @7 M8x1.25 4334 @18 ISO Metric profile @0  @0  1 @2 6H @4 1.25 @1 8 @4 8.34 @5 7.188 @5 7.348 @5 6.647 @5 6.912 @4 6.75 1 465 -1 6.8 0 0 -1 -0 -0 1 #
-10 face $16 155 $-1 $17 $18 $3 $-1 $19 reversed single #
-11 loop $-1 -1 $-1 $20 $21 $6 #
-12 cone-surface $-1 -1 $-1 -14.1898 0 0 1 0 0 0 0 -0.33235 1 I I -0 1 0.33235 reversed I I I I #
-13 loop $-1 -1 $-1 $-1 $22 $4 #
-14 coedge $-1 -1 $-1 $14 $14 $23 $24 forward $7 0 $-1 #
-15 NMx_Feature_Orientation-NamingMatching-attrib $-1 -1 $25 $9 $6 43 $26 $-1 #
-16 NMx_Generated_Brep_tag-NMx_Brep_Name_tag-NMx_Brep_tag-NamingMatching-attrib $-1 -1 $27 $-1 $10 43 1 77 -1 0 0 4 #
-17 face $28 156 $-1 $29 $30 $3 $-1 $31 forward single #
-18 loop $-1 -1 $-1 $32 $33 $10 #
-19 plane-surface $-1 -1 $-1 0 1.38778e-16 -4.16334e-15 1 0 0 0 0 -1 forward_v I I I I #
-20 loop $-1 -1 $-1 $-1 $23 $6 #
-21 coedge $-1 -1 $-1 $21 $21 $34 $35 reversed $11 0 $-1 #
-22 coedge $-1 -1 $-1 $22 $22 $36 $37 forward $13 0 $-1 #
-23 coedge $-1 -1 $-1 $23 $23 $14 $24 reversed $20 0 $-1 #
-24 edge $-1 176 $-1 $38 -3.14159 $38 3.14159 $23 $39 forward @7 unknown #
-25 NMx_Hole_Brep_tag-NMx_Brep_Name_tag-NMx_Brep_tag-NamingMatching-attrib $-1 -1 $-1 $15 $6 43 1 465 -1 19 7 #
-26 straight-curve $-1 -1 $-1 6.8 0 0 -1 -0 -0 I I #
-27 NMx_Matched_Entity-NamingMatching-attrib $-1 -1 $-1 $16 $10 43 1 510 -1 3 1 #
-28 NMx_edge_blend_tag-NMx_Brep_Name_tag-NMx_Brep_tag-NamingMatching-attrib $-1 -1 $-1 $-1 $17 43 1 493 -1 71 #
-29 face $40 157 $-1 $41 $42 $3 $-1 $43 forward single #
-30 loop $-1 -1 $-1 $44 $34 $17 #
-31 cone-surface $-1 -1 $-1 6.60469 0 0 1 0 0 -0 0 0.366179 1 I I -0.866025 -0.5 0.366179 forward I I I I #
-32 loop $-1 -1 $-1 $-1 $36 $10 #
-33 coedge $-1 -1 $-1 $45 $46 $47 $48 forward $18 0 $-1 #
-34 coedge $-1 -1 $-1 $34 $34 $21 $35 forward $30 0 $-1 #
-35 edge $-1 178 $-1 $49 -3.14159 $49 3.14159 $21 $50 forward @7 unknown #
-36 coedge $-1 -1 $-1 $36 $36 $22 $37 reversed $32 0 $-1 #
-37 edge $-1 177 $-1 $51 -3.14159 $51 3.14159 $36 $52 forward @7 unknown #
-38 vertex $-1 -1 $-1 $24 2 $53 #
-39 ellipse-curve $-1 -1 $-1 0.390625 0 0 1 0 0 0 0 -0.33235 1 I I #
-40 NMx_Generated_Brep_tag-NMx_Brep_Name_tag-NMx_Brep_tag-NamingMatching-attrib $-1 -1 $54 $-1 $29 43 1 77 -1 0 0 12 #
-41 face $55 158 $-1 $56 $57 $3 $-1 $58 reversed single #
-42 loop $-1 -1 $-1 $59 $60 $29 #
-43 plane-surface $-1 -1 $-1 6.8 2.01859e-16 -4.30211e-15 1 0 0 0 0 -1 forward_v I I I I #
-44 loop $-1 -1 $-1 $-1 $61 $17 #
-45 coedge $-1 -1 $-1 $62 $33 $63 $64 forward $18 0 $-1 #
-46 coedge $-1 -1 $-1 $33 $65 $66 $67 forward $18 0 $-1 #
-47 coedge $-1 -1 $-1 $68 $69 $33 $48 reversed $57 0 $-1 #
-48 edge $-1 179 $-1 $70 2.61799 $71 3.66519 $33 $72 forward @7 unknown #
-49 vertex $-1 -1 $-1 $35 2 $73 #
-50 ellipse-curve $-1 -1 $-1 6.40938 0 0 -1 -0 -0 -0 -0 0.33235 1 I I #
-51 vertex $-1 -1 $-1 $37 2 $74 #
-52 ellipse-curve $-1 -1 $-1 0 0 0 -1 -0 -0 0 0 -0.400008 1 I I #
-53 point $-1 -1 $-1 0.390625 -4.07011e-16 3.3235 #
-54 NMx_Matched_Entity-NamingMatching-attrib $-1 -1 $75 $40 $29 43 1 492 -1 10 1 #
-55 NMx_Feature_Orientation-NamingMatching-attrib $-1 -1 $76 $-1 $41 43 $77 $-1 #
-56 face $78 159 $-1 $79 $80 $3 $-1 $58 reversed single #
-57 loop $-1 -1 $-1 $-1 $69 $41 #
-58 cone-surface $-1 -1 $-1 0.290278 0 0 -1 -0 -0 0 0.700278 0 1 I I 0.866025 -0.5 0.700278 forward I I I I #
-59 loop $-1 -1 $-1 $-1 $81 $29 #
-60 coedge $-1 -1 $-1 $82 $83 $84 $85 forward $42 0 $-1 #
-61 coedge $-1 -1 $-1 $61 $61 $81 $86 forward $44 0 $-1 #
-62 coedge $-1 -1 $-1 $87 $45 $88 $89 forward $18 0 $-1 #
-63 coedge $-1 -1 $-1 $90 $91 $45 $64 reversed $92 0 $-1 #
-64 edge $-1 180 $-1 $71 -2.61799 $93 -1.5708 $45 $72 forward @7 unknown #
-65 coedge $-1 -1 $-1 $46 $87 $94 $95 forward $18 0 $-1 #
-66 coedge $-1 -1 $-1 $96 $97 $46 $67 reversed $80 0 $-1 #
-67 edge $-1 184 $-1 $98 1.5708 $70 2.61799 $46 $72 forward @7 unknown #
-68 coedge $-1 -1 $-1 $69 $47 $99 $100 reversed $57 0 $-1 #
-69 coedge $-1 -1 $-1 $47 $68 $101 $102 reversed $57 0 $-1 #
-70 vertex $-1 -1 $-1 $100 1 $103 #
-71 vertex $-1 -1 $-1 $102 0 $104 #
-72 ellipse-curve $-1 -1 $-1 0 0 0 -1 -0 -0 0 0.65 0 1 I I #
-73 point $-1 -1 $-1 6.40938 -4.07011e-16 -3.3235 #
-74 point $-1 -1 $-1 0 4.89869e-16 4.00008 #
-75 NMx_Matched_Entity-NamingMatching-attrib $-1 -1 $-1 $54 $29 43 1 405 -1 10 1 #
-76 NMx_Generated_Brep_tag-NMx_Brep_Name_tag-NMx_Brep_tag-NamingMatching-attrib $-1 -1 $-1 $55 $41 43 1 160 -1 13 0 20 #
-77 ellipse-curve $-1 -1 $-1 0 0 0 1 0 0 0 0.750555 0 1 I I #
-78 NMx_Feature_Orientation-NamingMatching-attrib $-1 -1 $105 $-1 $56 43 $77 $-1 #
-79 face $106 160 $-1 $107 $92 $3 $-1 $58 reversed single #
-80 loop $-1 -1 $-1 $-1 $96 $56 #
-81 coedge $-1 -1 $-1 $81 $81 $61 $86 reversed $59 0 $-1 #
-82 coedge $-1 -1 $-1 $108 $60 $109 $110 forward $42 0 $-1 #
-83 coedge $-1 -1 $-1 $60 $111 $112 $113 forward $42 0 $-1 #
-84 coedge $-1 -1 $-1 $114 $115 $60 $85 reversed $116 0 $-1 #
-85 edge $-1 186 $-1 $117 -2.61799 $118 -1.5708 $60 $119 forward @7 unknown #
-86 edge $-1 185 $-1 $120 -3.14159 $120 3.14159 $81 $121 forward @7 unknown #
-87 coedge $-1 -1 $-1 $65 $62 $122 $123 forward $18 0 $-1 #
-88 coedge $-1 -1 $-1 $124 $125 $62 $89 reversed $126 0 $-1 #
-89 edge $-1 181 $-1 $93 -1.5708 $127 -0.523599 $62 $72 forward @7 unknown #
-90 coedge $-1 -1 $-1 $91 $63 $128 $129 reversed $92 0 $-1 #
-91 coedge $-1 -1 $-1 $63 $90 $130 $131 reversed $92 0 $-1 #
-92 loop $-1 -1 $-1 $-1 $91 $79 #
-93 vertex $-1 -1 $-1 $64 1 $132 #
-94 coedge $-1 -1 $-1 $133 $134 $65 $95 reversed $135 0 $-1 #
-95 edge $-1 183 $-1 $136 0.523599 $98 1.5708 $65 $72 forward @7 unknown #
-96 coedge $-1 -1 $-1 $97 $66 $137 $138 reversed $80 0 $-1 #
-97 coedge $-1 -1 $-1 $66 $96 $139 $140 reversed $80 0 $-1 #
-98 vertex $-1 -1 $-1 $67 0 $141 #
-99 coedge $-1 -1 $-1 $139 $142 $68 $100 forward $143 0 $-1 #
-100 edge $-1 193 $-1 $144 0 $70 0.380711 $99 $145 forward @7 unknown #
-101 coedge $-1 -1 $-1 $146 $128 $69 $102 forward $147 0 $-1 #
-102 edge $-1 192 $-1 $71 0.380711 $144 0.761423 $101 $148 forward @7 unknown #
-103 point $-1 -1 $-1 0 -5.62917 -3.25 #
-104 point $-1 -1 $-1 0 -5.62917 3.25 #
-105 NMx_Generated_Brep_tag-NMx_Brep_Name_tag-NMx_Brep_tag-NamingMatching-attrib $-1 -1 $-1 $78 $56 43 1 160 -1 13 0 20 #
-106 NMx_Feature_Orientation-NamingMatching-attrib $-1 -1 $149 $-1 $79 43 $77 $-1 #
-107 face $150 161 $-1 $151 $135 $3 $-1 $58 reversed single #
-108 coedge $-1 -1 $-1 $152 $82 $153 $154 forward $42 0 $-1 #
-109 coedge $-1 -1 $-1 $155 $156 $82 $110 reversed $157 0 $-1 #
-110 edge $-1 187 $-1 $118 -1.5708 $158 -0.523599 $82 $119 forward @7 unknown #
-111 coedge $-1 -1 $-1 $83 $152 $159 $160 forward $42 0 $-1 #
-112 coedge $-1 -1 $-1 $161 $162 $83 $113 reversed $163 0 $-1 #
-113 edge $164 191 $-1 $165 2.61799 $117 3.66519 $83 $119 forward @7 unknown #
-114 coedge $-1 -1 $-1 $115 $84 $166 $167 reversed $116 0 $-1 #
-115 coedge $-1 -1 $-1 $84 $114 $168 $169 reversed $116 0 $-1 #
-116 loop $-1 -1 $-1 $-1 $115 $170 #
-117 vertex $171 -1 $-1 $113 1 $172 #
-118 vertex $-1 -1 $-1 $85 1 $173 #
-119 ellipse-curve $-1 -1 $-1 6.8 0 0 1 0 0 0 0.65 0 1 I I #
-120 vertex $-1 -1 $-1 $86 2 $174 #
-121 ellipse-curve $-1 -1 $-1 6.8 0 0 1 0 0 -0 0 0.400008 1 I I #
-122 coedge $-1 -1 $-1 $175 $176 $87 $123 reversed $177 0 $-1 #
-123 edge $-1 182 $-1 $127 -0.523599 $136 0.523599 $87 $72 forward @7 unknown #
-124 coedge $-1 -1 $-1 $125 $88 $178 $179 reversed $126 0 $-1 #
-125 coedge $-1 -1 $-1 $88 $124 $180 $181 reversed $126 0 $-1 #
-126 loop $-1 -1 $-1 $-1 $125 $151 #
-127 vertex $-1 -1 $-1 $89 1 $182 #
-128 coedge $-1 -1 $-1 $101 $183 $90 $129 forward $147 0 $-1 #
-129 edge $-1 197 $-1 $184 0 $71 0.380711 $128 $185 forward @7 unknown #
-130 coedge $-1 -1 $-1 $186 $178 $91 $131 forward $187 0 $-1 #
-131 edge $-1 196 $-1 $93 0.380711 $184 0.761423 $130 $188 forward @7 unknown #
-132 point $-1 -1 $-1 0 0 6.5 #
-133 coedge $-1 -1 $-1 $134 $94 $189 $190 reversed $135 0 $-1 #
-134 coedge $-1 -1 $-1 $94 $133 $191 $192 reversed $135 0 $-1 #
-135 loop $-1 -1 $-1 $-1 $133 $107 #
-136 vertex $-1 -1 $-1 $95 0 $193 #
-137 coedge $-1 -1 $-1 $191 $194 $96 $138 forward $195 0 $-1 #
-138 edge $-1 194 $-1 $196 0 $98 0.380711 $137 $197 forward @7 unknown #
-139 coedge $-1 -1 $-1 $198 $99 $97 $140 forward $143 0 $-1 #
-140 edge $-1 195 $-1 $70 0.380711 $196 0.761423 $139 $199 forward @7 unknown #
-141 point $-1 -1 $-1 0 1.16573e-14 -6.5 #
-142 coedge $-1 -1 $-1 $99 $200 $146 $201 reversed $143 0 $-1 #
-143 loop $-1 -1 $-1 $-1 $139 $202 #
-144 vertex $-1 -1 $-1 $201 0 $203 #
-145 intcurve-curve $-1 -1 $-1 forward { exact_int_cur 20900 full nurbs 2 open 2 0 2 0.380711 2 0.0580557 -0.750555 -1.18993e-16 1 -7.89299e-17 -0.65 -0.174167 1.03795 0 -0.562917 -0.325 1 0 null_surface null_surface nullbs nullbs I I 0 0 0 0 F 1 F 0 0 0 } I I #
-146 coedge $-1 -1 $-1 $204 $101 $142 $201 forward $147 0 $-1 #
-147 loop $-1 -1 $-1 $-1 $128 $205 #
-148 intcurve-curve $-1 -1 $-1 forward { exact_int_cur 20900 full nurbs 2 open 2 0.380711 2 0.761423 2 0 -0.562917 0.325 1 1.09721e-16 -0.65 0.174167 1.03795 0.0580557 -0.750555 -1.18993e-16 1 0 null_surface null_surface nullbs nullbs I I 0 0 0 0 F 1 F 0 0 0 } I I #
-149 NMx_Generated_Brep_tag-NMx_Brep_Name_tag-NMx_Brep_tag-NamingMatching-attrib $-1 -1 $-1 $106 $79 43 1 160 -1 13 0 20 #
-150 NMx_Feature_Orientation-NamingMatching-attrib $-1 -1 $206 $-1 $107 43 $77 $-1 #
-151 face $207 162 $-1 $208 $126 $3 $-1 $58 reversed single #
-152 coedge $-1 -1 $-1 $111 $108 $209 $210 forward $42 0 $-1 #
-153 coedge $-1 -1 $-1 $211 $212 $108 $154 reversed $213 0 $-1 #
-154 edge $-1 188 $-1 $158 -0.523599 $214 0.523599 $108 $119 forward @7 unknown #
-155 coedge $-1 -1 $-1 $156 $109 $215 $216 reversed $157 0 $-1 #
-156 coedge $-1 -1 $-1 $109 $155 $217 $218 reversed $157 0 $-1 #
-157 loop $-1 -1 $-1 $-1 $156 $219 #
-158 vertex $-1 -1 $-1 $110 1 $220 #
-159 coedge $-1 -1 $-1 $221 $222 $111 $160 reversed $223 0 $-1 #
-160 edge $-1 190 $-1 $224 1.5708 $165 2.61799 $111 $119 forward @7 unknown #
-161 coedge $-1 -1 $-1 $162 $112 $204 $225 reversed $163 0 $-1 #
-162 coedge $-1 -1 $-1 $112 $161 $200 $226 reversed $163 0 $-1 #
-163 loop $-1 -1 $-1 $-1 $161 $227 #
-164 NMx_Matched_Entity-NamingMatching-attrib $-1 -1 $-1 $-1 $113 43 1 459 -1 68 0 #
-165 vertex $228 -1 $-1 $113 0 $229 #
-166 coedge $-1 -1 $-1 $200 $198 $114 $167 forward $143 0 $-1 #
-167 edge $-1 207 $-1 $230 0 $117 0.380711 $166 $231 forward @7 unknown #
-168 coedge $-1 -1 $-1 $194 $215 $115 $169 forward $195 0 $-1 #
-169 edge $-1 206 $-1 $118 0.380711 $230 0.761423 $168 $232 forward @7 unknown #
-170 face $233 165 $-1 $234 $116 $3 $-1 $235 reversed single #
-171 NMx_Matched_Entity-NamingMatching-attrib $-1 -1 $236 $-1 $117 43 1 409 -1 54 1 #
-172 point $-1 -1 $-1 6.8 -5.62917 -3.25 #
-173 point $-1 -1 $-1 6.8 1.16573e-14 -6.5 #
-174 point $-1 -1 $-1 6.8 4.89869e-16 -4.00008 #
-175 coedge $-1 -1 $-1 $176 $122 $237 $238 reversed $177 0 $-1 #
-176 coedge $-1 -1 $-1 $122 $175 $239 $240 reversed $177 0 $-1 #
-177 loop $-1 -1 $-1 $-1 $176 $208 #
-178 coedge $-1 -1 $-1 $130 $241 $124 $179 forward $187 0 $-1 #
-179 edge $-1 201 $-1 $242 0 $93 0.380711 $178 $243 forward @7 unknown #
-180 coedge $-1 -1 $-1 $244 $237 $125 $181 forward $245 0 $-1 #
-181 edge $-1 200 $-1 $127 0.380711 $242 0.761423 $180 $246 forward @7 unknown #
-182 point $-1 -1 $-1 0 5.62917 3.25 #
-183 coedge $-1 -1 $-1 $128 $247 $186 $248 reversed $147 0 $-1 #
-184 vertex $-1 -1 $-1 $248 0 $249 #
-185 intcurve-curve $-1 -1 $-1 forward { exact_int_cur 20900 full nurbs 2 open 2 0 2 0.380711 2 0.0580557 -0.375278 0.65 1 1.07553e-16 -0.475833 0.475833 1.03795 0 -0.562917 0.325 1 0 null_surface null_surface nullbs nullbs I I 0 0 0 0 F 1 F 0 0 0 } I I #
-186 coedge $-1 -1 $-1 $250 $130 $183 $248 forward $187 0 $-1 #
-187 loop $-1 -1 $-1 $-1 $178 $251 #
-188 intcurve-curve $-1 -1 $-1 forward { exact_int_cur 20900 full nurbs 2 open 2 0.380711 2 0.761423 2 0 0 0.65 1 -1.44416e-16 -0.174167 0.65 1.03795 0.0580557 -0.375278 0.65 1 0 null_surface null_surface nullbs nullbs I I 0 0 0 0 F 1 F 0 0 0 } I I #
-189 coedge $-1 -1 $-1 $239 $252 $133 $190 forward $253 0 $-1 #
-190 edge $-1 198 $-1 $254 0 $136 0.380711 $189 $255 forward @7 unknown #
-191 coedge $-1 -1 $-1 $256 $137 $134 $192 forward $195 0 $-1 #
-192 edge $-1 199 $-1 $98 0.380711 $254 0.761423 $191 $257 forward @7 unknown #
-193 point $-1 -1 $-1 0 5.62917 -3.25 #
-194 coedge $-1 -1 $-1 $137 $168 $198 $258 reversed $195 0 $-1 #
-195 loop $-1 -1 $-1 $-1 $191 $259 #
-196 vertex $-1 -1 $-1 $258 0 $260 #
-197 intcurve-curve $-1 -1 $-1 forward { exact_int_cur 20900 full nurbs 2 open 2 0 2 0.380711 2 0.0580557 -0.375278 -0.65 1 4.63605e-16 -0.174167 -0.65 1.03795 0 1.16573e-15 -0.65 1 0 null_surface null_surface nullbs nullbs I I 0 0 0 0 F 1 F 0 0 0 } I I #
-198 coedge $-1 -1 $-1 $166 $139 $194 $258 forward $143 0 $-1 #
-199 intcurve-curve $-1 -1 $-1 forward { exact_int_cur 20900 full nurbs 2 open 2 0.380711 2 0.761423 2 0 -0.562917 -0.325 1 -7.54605e-17 -0.475833 -0.475833 1.03795 0.0580557 -0.375278 -0.65 1 0 null_surface null_surface nullbs nullbs I I 0 0 0 0 F 1 F 0 0 0 } I I #
-200 coedge $-1 -1 $-1 $142 $166 $162 $226 forward $143 0 $-1 #
-201 edge $261 219 $-1 $144 0.0580557 $262 0.621944 $146 $263 forward @7 unknown #
-202 face $264 175 $-1 $-1 $143 $3 $-1 $265 forward single #
-203 point $-1 -1 $-1 0.580557 -7.50555 -1.11022e-15 #
-204 coedge $-1 -1 $-1 $247 $146 $161 $225 forward $147 0 $-1 #
-205 face $266 172 $-1 $267 $147 $3 $-1 $268 forward single #
-206 NMx_Generated_Brep_tag-NMx_Brep_Name_tag-NMx_Brep_tag-NamingMatching-attrib $-1 -1 $-1 $150 $107 43 1 160 -1 13 0 20 #
-207 NMx_Feature_Orientation-NamingMatching-attrib $-1 -1 $269 $-1 $151 43 $77 $-1 #
-208 face $270 163 $-1 $227 $177 $3 $-1 $58 reversed single #
-209 coedge $-1 -1 $-1 $271 $272 $152 $210 reversed $273 0 $-1 #
-210 edge $-1 189 $-1 $214 0.523599 $224 1.5708 $152 $119 forward @7 unknown #
-211 coedge $-1 -1 $-1 $212 $153 $274 $275 reversed $213 0 $-1 #
-212 coedge $-1 -1 $-1 $153 $211 $276 $277 reversed $213 0 $-1 #
-213 loop $-1 -1 $-1 $-1 $212 $278 #
-214 vertex $-1 -1 $-1 $210 0 $279 #
-215 coedge $-1 -1 $-1 $168 $256 $155 $216 forward $195 0 $-1 #
-216 edge $-1 213 $-1 $280 0 $118 0.380711 $215 $281 forward @7 unknown #
-217 coedge $-1 -1 $-1 $252 $274 $156 $218 forward $253 0 $-1 #
-218 edge $-1 212 $-1 $158 0.380711 $280 0.761423 $217 $282 forward @7 unknown #
-219 face $283 168 $-1 $278 $157 $3 $-1 $235 reversed single #
-220 point $-1 -1 $-1 6.8 5.62917 -3.25 #
-221 coedge $-1 -1 $-1 $222 $159 $250 $284 reversed $223 0 $-1 #
-222 coedge $-1 -1 $-1 $159 $221 $247 $285 reversed $223 0 $-1 #
-223 loop $-1 -1 $-1 $-1 $221 $234 #
-224 vertex $-1 -1 $-1 $160 0 $286 #
-225 edge $-1 204 $-1 $262 0 $165 0.380711 $204 $287 forward @7 unknown #
-226 edge $-1 205 $-1 $117 0.380711 $262 0.761423 $200 $288 forward @7 unknown #
-227 face $289 164 $-1 $170 $163 $3 $-1 $235 reversed single #
-228 NMx_Matched_Entity-NamingMatching-attrib $-1 -1 $290 $-1 $165 43 1 429 -1 62 1 #
-229 point $-1 -1 $-1 6.8 -5.62917 3.25 #
-230 vertex $-1 -1 $-1 $167 0 $291 #
-231 intcurve-curve $-1 -1 $-1 forward { exact_int_cur 20900 full nurbs 2 open 2 0 2 0.380711 2 0.621944 -0.375278 -0.65 1 0.68 -0.475833 -0.475833 1.03795 0.68 -0.562917 -0.325 1 0 null_surface null_surface nullbs nullbs I I 0 0 0 0 F 1 F 0 0 0 } I I #
-232 intcurve-curve $-1 -1 $-1 forward { exact_int_cur 20900 full nurbs 2 open 2 0.380711 2 0.761423 2 0.68 1.16573e-15 -0.65 1 0.68 -0.174167 -0.65 1.03795 0.621944 -0.375278 -0.65 1 0 null_surface null_surface nullbs nullbs I I 0 0 0 0 F 1 F 0 0 0 } I I #
-233 NMx_Feature_Orientation-NamingMatching-attrib $-1 -1 $292 $-1 $170 43 $293 $-1 #
-234 face $294 166 $-1 $295 $223 $3 $-1 $235 reversed single #
-235 cone-surface $-1 -1 $-1 6.50972 0 0 -1 -0 -0 0 0.700278 0 1 I I -0.866025 -0.5 0.700278 forward I I I I #
-236 NMx_Matched_Entity-NamingMatching-attrib $-1 -1 $-1 $171 $117 43 1 459 -1 54 1 #
-237 coedge $-1 -1 $-1 $180 $296 $175 $238 forward $245 0 $-1 #
-238 edge $-1 203 $-1 $297 0 $127 0.380711 $237 $298 forward @7 unknown #
-239 coedge $-1 -1 $-1 $299 $189 $176 $240 forward $253 0 $-1 #
-240 edge $-1 202 $-1 $136 0.380711 $297 0.761423 $239 $300 forward @7 unknown #
-241 coedge $-1 -1 $-1 $178 $301 $244 $302 reversed $187 0 $-1 #
-242 vertex $-1 -1 $-1 $302 0 $303 #
-243 intcurve-curve $-1 -1 $-1 forward { exact_int_cur 20900 full nurbs 2 open 2 0 2 0.380711 2 0.0580557 0.375278 0.65 1 -1.44416e-16 0.174167 0.65 1.03795 0 0 0.65 1 0 null_surface null_surface nullbs nullbs I I 0 0 0 0 F 1 F 0 0 0 } I I #
-244 coedge $-1 -1 $-1 $304 $180 $241 $302 forward $245 0 $-1 #
-245 loop $-1 -1 $-1 $-1 $237 $305 #
-246 intcurve-curve $-1 -1 $-1 forward { exact_int_cur 20900 full nurbs 2 open 2 0.380711 2 0.761423 2 0 0.562917 0.325 1 3.46945e-18 0.475833 0.475833 1.03795 0.0580557 0.375278 0.65 1 0 null_surface null_surface nullbs nullbs I I 0 0 0 0 F 1 F 0 0 0 } I I #
-247 coedge $-1 -1 $-1 $183 $204 $222 $285 forward $147 0 $-1 #
-248 edge $306 218 $-1 $184 0.0580557 $307 0.621944 $186 $308 forward @7 unknown #
-249 point $-1 -1 $-1 0.580557 -3.75278 6.5 #
-250 coedge $-1 -1 $-1 $301 $186 $221 $284 forward $187 0 $-1 #
-251 face $309 171 $-1 $205 $187 $3 $-1 $310 forward single #
-252 coedge $-1 -1 $-1 $189 $217 $256 $311 reversed $253 0 $-1 #
-253 loop $-1 -1 $-1 $-1 $239 $267 #
-254 vertex $-1 -1 $-1 $311 0 $312 #
-255 intcurve-curve $-1 -1 $-1 forward { exact_int_cur 20900 full nurbs 2 open 2 0 2 0.380711 2 0.0580557 0.375278 -0.65 1 1.22732e-16 0.475833 -0.475833 1.03795 0 0.562917 -0.325 1 0 null_surface null_surface nullbs nullbs I I 0 0 0 0 F 1 F 0 0 0 } I I #
-256 coedge $-1 -1 $-1 $215 $191 $252 $311 forward $195 0 $-1 #
-257 intcurve-curve $-1 -1 $-1 forward { exact_int_cur 20900 full nurbs 2 open 2 0.380711 2 0.761423 2 0 1.16573e-15 -0.65 1 4.70977e-16 0.174167 -0.65 1.03795 0.0580557 0.375278 -0.65 1 0 null_surface null_surface nullbs nullbs I I 0 0 0 0 F 1 F 0 0 0 } I I #
-258 edge $313 221 $-1 $196 0.0580557 $230 0.621944 $198 $314 forward @7 unknown #
-259 face $315 174 $-1 $202 $195 $3 $-1 $316 forward single #
-260 point $-1 -1 $-1 0.580557 -3.75278 -6.5 #
-261 NMx_Generated_Brep_tag-NMx_Brep_Name_tag-NMx_Brep_tag-NamingMatching-attrib $-1 -1 $-1 $-1 $201 43 1 77 -1 4 0 18 #
-262 vertex $-1 -1 $-1 $226 1 $317 #
-263 straight-curve $-1 -1 $-1 0 -7.50555 8.14492e-16 1 0 0 I I #
-264 NMx_Feature_Orientation-NamingMatching-attrib $-1 -1 $318 $-1 $202 43 $319 $-1 #
-265 plane-surface $-1 -1 $-1 0 -3.75278 -6.5 0 -0.866025 -0.5 -1 0 -0 forward_v I I I I #
-266 NMx_Generated_Brep_tag-NMx_Brep_Name_tag-NMx_Brep_tag-NamingMatching-attrib $-1 -1 $320 $-1 $205 43 1 77 -1 10 0 20 #
-267 face $321 173 $-1 $259 $253 $3 $-1 $322 forward single #
-268 plane-surface $-1 -1 $-1 0 -7.50555 8.14492e-16 0 -0.866025 0.5 0 -0.5 -0.866025 forward_v I I I I #
-269 NMx_Generated_Brep_tag-NMx_Brep_Name_tag-NMx_Brep_tag-NamingMatching-attrib $-1 -1 $-1 $207 $151 43 1 160 -1 13 0 20 #
-270 NMx_Generated_Brep_tag-NMx_Brep_Name_tag-NMx_Brep_tag-NamingMatching-attrib $-1 -1 $323 $-1 $208 43 1 160 -1 13 0 20 #
-271 coedge $-1 -1 $-1 $272 $209 $304 $324 reversed $273 0 $-1 #
-272 coedge $-1 -1 $-1 $209 $271 $301 $325 reversed $273 0 $-1 #
-273 loop $-1 -1 $-1 $-1 $271 $295 #
-274 coedge $-1 -1 $-1 $217 $299 $211 $275 forward $253 0 $-1 #
-275 edge $-1 215 $-1 $326 0 $158 0.380711 $274 $327 forward @7 unknown #
-276 coedge $-1 -1 $-1 $296 $304 $212 $277 forward $245 0 $-1 #
-277 edge $-1 214 $-1 $214 0.380711 $326 0.761423 $276 $328 forward @7 unknown #
-278 face $329 169 $-1 $305 $213 $3 $-1 $235 reversed single #
-279 point $-1 -1 $-1 6.8 5.62917 3.25 #
-280 vertex $-1 -1 $-1 $216 0 $330 #
-281 intcurve-curve $-1 -1 $-1 forward { exact_int_cur 20900 full nurbs 2 open 2 0 2 0.380711 2 0.621944 0.375278 -0.65 1 0.68 0.174167 -0.65 1.03795 0.68 1.16573e-15 -0.65 1 0 null_surface null_surface nullbs nullbs I I 0 0 0 0 F 1 F 0 0 0 } I I #
-282 intcurve-curve $-1 -1 $-1 forward { exact_int_cur 20900 full nurbs 2 open 2 0.380711 2 0.761423 2 0.68 0.562917 -0.325 1 0.68 0.475833 -0.475833 1.03795 0.621944 0.375278 -0.65 1 0 null_surface null_surface nullbs nullbs I I 0 0 0 0 F 1 F 0 0 0 } I I #
-283 NMx_Feature_Orientation-NamingMatching-attrib $-1 -1 $331 $-1 $219 43 $293 $-1 #
-284 edge $-1 208 $-1 $307 0 $224 0.380711 $250 $332 forward @7 unknown #
-285 edge $-1 209 $-1 $165 0.380711 $307 0.761423 $247 $333 forward @7 unknown #
-286 point $-1 -1 $-1 6.8 0 6.5 #
-287 intcurve-curve $-1 -1 $-1 forward { exact_int_cur 20900 full nurbs 2 open 2 0 2 0.380711 2 0.621944 -0.750555 2.97483e-16 1 0.68 -0.65 0.174167 1.03795 0.68 -0.562917 0.325 1 0 null_surface null_surface nullbs nullbs I I 0 0 0 0 F 1 F 0 0 0 } I I #
-288 intcurve-curve $-1 -1 $-1 forward { exact_int_cur 20900 full nurbs 2 open 2 0.380711 2 0.761423 2 0.68 -0.562917 -0.325 1 0.68 -0.65 -0.174167 1.03795 0.621944 -0.750555 -4.75973e-16 1 0 null_surface null_surface nullbs nullbs I I 0 0 0 0 F 1 F 0 0 0 } I I #
-289 NMx_Feature_Orientation-NamingMatching-attrib $-1 -1 $334 $-1 $227 43 $293 $-1 #
-290 NMx_Matched_Entity-NamingMatching-attrib $-1 -1 $-1 $228 $165 43 1 459 -1 62 1 #
-291 point $-1 -1 $-1 6.21944 -3.75278 -6.5 #
-292 NMx_Generated_Brep_tag-NMx_Brep_Name_tag-NMx_Brep_tag-NamingMatching-attrib $-1 -1 $-1 $233 $170 43 1 160 -1 16 0 20 #
-293 ellipse-curve $-1 -1 $-1 6.21944 0 0 1 0 0 1.11022e-16 0.750555 0 1 I I #
-294 NMx_Feature_Orientation-NamingMatching-attrib $-1 -1 $335 $-1 $234 43 $293 $-1 #
-295 face $336 167 $-1 $219 $273 $3 $-1 $235 reversed single #
-296 coedge $-1 -1 $-1 $237 $276 $299 $337 reversed $245 0 $-1 #
-297 vertex $-1 -1 $-1 $337 0 $338 #
-298 intcurve-curve $-1 -1 $-1 forward { exact_int_cur 20900 full nurbs 2 open 2 0 2 0.380711 2 0.0580557 0.750555 4.16477e-16 1 4.98733e-17 0.65 0.174167 1.03795 0 0.562917 0.325 1 0 null_surface null_surface nullbs nullbs I I 0 0 0 0 F 1 F 0 0 0 } I I #
-299 coedge $-1 -1 $-1 $274 $239 $296 $337 forward $253 0 $-1 #
-300 intcurve-curve $-1 -1 $-1 forward { exact_int_cur 20900 full nurbs 2 open 2 0.380711 2 0.761423 2 0 0.562917 -0.325 1 1.01915e-16 0.65 -0.174167 1.03795 0.0580557 0.750555 1.7849e-16 1 0 null_surface null_surface nullbs nullbs I I 0 0 0 0 F 1 F 0 0 0 } I I #
-301 coedge $-1 -1 $-1 $241 $250 $272 $325 forward $187 0 $-1 #
-302 edge $339 216 $-1 $242 0.0580557 $340 0.621944 $244 $341 forward @7 unknown #
-303 point $-1 -1 $-1 0.580557 3.75278 6.5 #
-304 coedge $-1 -1 $-1 $276 $244 $271 $324 forward $245 0 $-1 #
-305 face $342 170 $-1 $251 $245 $3 $-1 $343 forward single #
-306 NMx_Generated_Brep_tag-NMx_Brep_Name_tag-NMx_Brep_tag-NamingMatching-attrib $-1 -1 $-1 $-1 $248 43 1 77 -1 5 0 18 #
-307 vertex $-1 -1 $-1 $285 1 $344 #
-308 straight-curve $-1 -1 $-1 0 -3.75278 6.5 1 0 0 I I #
-309 NMx_Generated_Brep_tag-NMx_Brep_Name_tag-NMx_Brep_tag-NamingMatching-attrib $-1 -1 $345 $-1 $251 43 1 77 -1 11 0 20 #
-310 plane-surface $-1 -1 $-1 0 -3.75278 6.5 0 0 1 1 0 0 forward_v I I I I #
-311 edge $346 220 $-1 $254 0.0580557 $280 0.621944 $256 $347 forward @7 unknown #
-312 point $-1 -1 $-1 0.580557 3.75278 -6.5 #
-313 NMx_Generated_Brep_tag-NMx_Brep_Name_tag-NMx_Brep_tag-NamingMatching-attrib $-1 -1 $-1 $-1 $258 43 1 77 -1 9 0 18 #
-314 straight-curve $-1 -1 $-1 0 -3.75278 -6.5 1 0 0 I I #
-315 NMx_Feature_Orientation-NamingMatching-attrib $-1 -1 $348 $-1 $259 43 $319 $-1 #
-316 plane-surface $-1 -1 $-1 0 3.75278 -6.5 0 1.77504e-15 -1 -1 0 0 forward_v I I I I #
-317 point $-1 -1 $-1 6.21944 -7.50555 -1.11022e-15 #
-318 NMx_Generated_Brep_tag-NMx_Brep_Name_tag-NMx_Brep_tag-NamingMatching-attrib $-1 -1 $-1 $264 $202 43 1 77 -1 15 0 20 #
-319 straight-curve $-1 -1 $-1 0 -7.50555 8.14492e-16 1 0 0 I I #
-320 NMx_Feature_Orientation-NamingMatching-attrib $-1 -1 $-1 $266 $205 43 $319 $-1 #
-321 NMx_Feature_Orientation-NamingMatching-attrib $-1 -1 $349 $-1 $267 43 $319 $-1 #
-322 plane-surface $-1 -1 $-1 0 7.50555 2.48106e-15 0 0.866025 -0.5 -0 0.5 0.866025 forward_v I I I I #
-323 NMx_Feature_Orientation-NamingMatching-attrib $-1 -1 $-1 $270 $208 43 $77 $-1 #
-324 edge $-1 210 $-1 $340 0 $214 0.380711 $304 $350 forward @7 unknown #
-325 edge $-1 211 $-1 $224 0.380711 $340 0.761423 $301 $351 forward @7 unknown #
-326 vertex $-1 -1 $-1 $275 0 $352 #
-327 intcurve-curve $-1 -1 $-1 forward { exact_int_cur 20900 full nurbs 2 open 2 0 2 0.380711 2 0.621944 0.750555 -1.18993e-16 1 0.68 0.65 -0.174167 1.03795 0.68 0.562917 -0.325 1 0 null_surface null_surface nullbs nullbs I I 0 0 0 0 F 1 F 0 0 0 } I I #
-328 intcurve-curve $-1 -1 $-1 forward { exact_int_cur 20900 full nurbs 2 open 2 0.380711 2 0.761423 2 0.68 0.562917 0.325 1 0.68 0.65 0.174167 1.03795 0.621944 0.750555 4.75973e-16 1 0 null_surface null_surface nullbs nullbs I I 0 0 0 0 F 1 F 0 0 0 } I I #
-329 NMx_Generated_Brep_tag-NMx_Brep_Name_tag-NMx_Brep_tag-NamingMatching-attrib $-1 -1 $353 $-1 $278 43 1 160 -1 16 0 20 #
-330 point $-1 -1 $-1 6.21944 3.75278 -6.5 #
-331 NMx_Generated_Brep_tag-NMx_Brep_Name_tag-NMx_Brep_tag-NamingMatching-attrib $-1 -1 $-1 $283 $219 43 1 160 -1 16 0 20 #
-332 intcurve-curve $-1 -1 $-1 forward { exact_int_cur 20900 full nurbs 2 open 2 0 2 0.380711 2 0.621944 -0.375278 0.65 1 0.68 -0.174167 0.65 1.03795 0.68 0 0.65 1 0 null_surface null_surface nullbs nullbs I I 0 0 0 0 F 1 F 0 0 0 } I I #
-333 intcurve-curve $-1 -1 $-1 forward { exact_int_cur 20900 full nurbs 2 open 2 0.380711 2 0.761423 2 0.68 -0.562917 0.325 1 0.68 -0.475833 0.475833 1.03795 0.621944 -0.375278 0.65 1 0 null_surface null_surface nullbs nullbs I I 0 0 0 0 F 1 F 0 0 0 } I I #
-334 NMx_Generated_Brep_tag-NMx_Brep_Name_tag-NMx_Brep_tag-NamingMatching-attrib $-1 -1 $-1 $289 $227 43 1 160 -1 16 0 20 #
-335 NMx_Generated_Brep_tag-NMx_Brep_Name_tag-NMx_Brep_tag-NamingMatching-attrib $-1 -1 $-1 $294 $234 43 1 160 -1 16 0 20 #
-336 NMx_Feature_Orientation-NamingMatching-attrib $-1 -1 $354 $-1 $295 43 $293 $-1 #
-337 edge $355 217 $-1 $297 0.0580557 $326 0.621944 $299 $356 forward @7 unknown #
-338 point $-1 -1 $-1 0.580557 7.50555 0 #
-339 NMx_Generated_Brep_tag-NMx_Brep_Name_tag-NMx_Brep_tag-NamingMatching-attrib $-1 -1 $-1 $-1 $302 43 1 77 -1 6 0 18 #
-340 vertex $-1 -1 $-1 $325 1 $357 #
-341 straight-curve $-1 -1 $-1 0 3.75278 6.5 1 0 0 I I #
-342 NMx_Generated_Brep_tag-NMx_Brep_Name_tag-NMx_Brep_tag-NamingMatching-attrib $-1 -1 $358 $-1 $305 43 1 77 -1 12 0 20 #
-343 plane-surface $-1 -1 $-1 0 3.75278 6.5 -0 0.866025 0.5 1 -0 0 forward_v I I I I #
-344 point $-1 -1 $-1 6.21944 -3.75278 6.5 #
-345 NMx_Feature_Orientation-NamingMatching-attrib $-1 -1 $-1 $309 $251 43 $319 $-1 #
-346 NMx_Generated_Brep_tag-NMx_Brep_Name_tag-NMx_Brep_tag-NamingMatching-attrib $-1 -1 $-1 $-1 $311 43 1 77 -1 8 0 18 #
-347 straight-curve $-1 -1 $-1 0 3.75278 -6.5 1 0 0 I I #
-348 NMx_Generated_Brep_tag-NMx_Brep_Name_tag-NMx_Brep_tag-NamingMatching-attrib $-1 -1 $-1 $315 $259 43 1 77 -1 14 0 20 #
-349 NMx_Generated_Brep_tag-NMx_Brep_Name_tag-NMx_Brep_tag-NamingMatching-attrib $-1 -1 $-1 $321 $267 43 1 77 -1 13 0 20 #
-350 intcurve-curve $-1 -1 $-1 forward { exact_int_cur 20900 full nurbs 2 open 2 0 2 0.380711 2 0.621944 0.375278 0.65 1 0.68 0.475833 0.475833 1.03795 0.68 0.562917 0.325 1 0 null_surface null_surface nullbs nullbs I I 0 0 0 0 F 1 F 0 0 0 } I I #
-351 intcurve-curve $-1 -1 $-1 forward { exact_int_cur 20900 full nurbs 2 open 2 0.380711 2 0.761423 2 0.68 0 0.65 1 0.68 0.174167 0.65 1.03795 0.621944 0.375278 0.65 1 0 null_surface null_surface nullbs nullbs I I 0 0 0 0 F 1 F 0 0 0 } I I #
-352 point $-1 -1 $-1 6.21944 7.50555 0 #
-353 NMx_Feature_Orientation-NamingMatching-attrib $-1 -1 $-1 $329 $278 43 $293 $-1 #
-354 NMx_Generated_Brep_tag-NMx_Brep_Name_tag-NMx_Brep_tag-NamingMatching-attrib $-1 -1 $-1 $336 $295 43 1 160 -1 16 0 20 #
-355 NMx_Generated_Brep_tag-NMx_Brep_Name_tag-NMx_Brep_tag-NamingMatching-attrib $-1 -1 $359 $-1 $337 43 1 77 -1 7 0 18 #
-356 straight-curve $-1 -1 $-1 0 7.50555 2.48106e-15 1 0 0 I I #
-357 point $-1 -1 $-1 6.21944 3.75278 6.5 #
-358 NMx_Feature_Orientation-NamingMatching-attrib $-1 -1 $-1 $342 $305 43 $319 $-1 #
-359 NMx_Matched_Entity-NamingMatching-attrib $-1 -1 $-1 $355 $337 43 1 111 -1 8 0 #
Begin-of-ACIS-History-Data history_stream 142 142 0 222 $-1 $0 $1 $-1 #
-0 delta_state 142 1 0 $-1 $2 $0 $-1 $0 F 1 $0 2 1 $360 $-1 1 $361 $-1 1 $-1 $4 1 $-1 $13 1 $-1 $22 1 $-1 $14 1 $-1 $8 1 $-1 $7 1 $362 $-1 1 $363 $-1 1 $364 $-1 1 $365 $-1 1 $-1 $53 1 $-1 $38 1 $-1 $39 1 $-1 $24 1 $-1 $23 1 $-1 $74 1 $-1 $51 1 $-1 $52 1 $-1 $37 1 $-1 $36 1 $-1 $32 1 $-1 $20 1 $366 $-1 1 $367 $18 1 $-1 $10 1 $368 $3 1 $-1 $27 1 $-1 $16 1 $369 $-1 1 $370 $11 1 $-1 $6 1 $-1 $25 1 $-1 $15 1 $-1 $9 1 $371 $17 1 $372 $202 1 $373 $-1 1 $374 $-1 1 $375 $-1 1 $376 $-1 1 $377 $-1 1 $378 $-1 1 $379 $-1 1 $380 $-1 1 $-1 $5 0 0 0 #
-1 delta_state 2 1 0 $3 $-1 $1 $-1 $0 F 0 0 #
-2 delta_state 141 1 0 $0 $4 $2 $-1 $0 F 1 $2 2 1 $381 $-1 1 $382 $-1 1 $-1 $17 1 $-1 $44 1 $-1 $61 1 $-1 $34 1 $-1 $31 1 $-1 $30 1 $383 $-1 1 $384 $-1 1 $385 $-1 1 $386 $-1 1 $-1 $73 1 $-1 $49 1 $-1 $50 1 $-1 $35 1 $-1 $21 1 $-1 $174 1 $-1 $120 1 $-1 $121 1 $-1 $86 1 $-1 $81 1 $-1 $59 1 $-1 $11 1 $387 $-1 1 $388 $42 1 $-1 $29 1 $389 $3 1 $-1 $75 1 $-1 $54 1 $-1 $40 1 $390 $369 1 $-1 $363 1 $-1 $380 1 $-1 $379 1 $-1 $362 1 $391 $202 1 $392 $-1 1 $393 $-1 1 $394 $-1 1 $395 $-1 1 $396 $-1 1 $397 $-1 1 $398 $-1 1 $399 $-1 1 $400 $-1 1 $401 $-1 1 $-1 $28 0 0 0 #
-3 delta_state 135 1 0 $5 $1 $3 $-1 $0 F 1 $3 2 1 $-1 $1 1 $-1 $402 1 $-1 $403 1 $-1 $404 1 $-1 $405 1 $-1 $406 1 $-1 $407 1 $-1 $408 1 $-1 $409 1 $-1 $410 1 $-1 $411 1 $-1 $412 1 $-1 $413 1 $-1 $414 1 $-1 $415 1 $-1 $416 1 $-1 $417 1 $-1 $418 1 $-1 $419 1 $-1 $420 1 $-1 $421 1 $-1 $422 1 $-1 $423 1 $-1 $424 1 $-1 $425 1 $-1 $426 1 $-1 $427 1 $-1 $428 1 $-1 $429 1 $-1 $430 1 $-1 $431 1 $-1 $432 1 $-1 $433 1 $-1 $434 1 $-1 $435 1 $-1 $436 1 $-1 $437 1 $-1 $438 1 $-1 $439 1 $-1 $440 1 $-1 $441 1 $-1 $442 1 $-1 $443 1 $-1 $365 1 $-1 $444 1 $-1 $3 1 $-1 $2 1 $-1 $19 1 $-1 $386 1 $-1 $445 1 $-1 $446 1 $-1 $447 1 $-1 $448 1 $-1 $449 1 $-1 $450 1 $-1 $451 1 $-1 $308 1 $-1 $452 1 $-1 $453 1 $-1 $454 1 $-1 $455 1 $-1 $456 1 $-1 $263 1 $-1 $457 1 $-1 $458 1 $-1 $459 1 $-1 $460 1 $-1 $461 1 $-1 $268 1 $-1 $462 1 $-1 $463 1 $-1 $464 1 $-1 $465 1 $-1 $466 1 $-1 $467 1 $-1 $314 1 $-1 $468 1 $-1 $469 1 $-1 $470 1 $-1 $471 1 $-1 $472 1 $-1 $265 1 $-1 $473 1 $-1 $474 1 $-1 $475 1 $-1 $476 1 $-1 $477 1 $-1 $202 1 $-1 $347 1 $-1 $478 1 $-1 $479 1 $-1 $480 1 $-1 $481 1 $-1 $482 1 $-1 $316 1 $-1 $483 1 $-1 $484 1 $-1 $485 1 $-1 $486 1 $-1 $487 1 $-1 $259 1 $-1 $356 1 $-1 $488 1 $-1 $489 1 $-1 $490 1 $-1 $491 1 $-1 $492 1 $-1 $322 1 $-1 $493 1 $-1 $494 1 $-1 $495 1 $-1 $496 1 $-1 $497 1 $-1 $267 1 $-1 $341 1 $-1 $498 1 $-1 $499 1 $-1 $500 1 $-1 $501 1 $-1 $502 1 $-1 $343 1 $-1 $503 1 $-1 $504 1 $-1 $505 1 $-1 $506 1 $-1 $507 1 $-1 $508 1 $-1 $310 1 $-1 $509 1 $-1 $510 1 $-1 $511 1 $-1 $512 1 $-1 $513 1 $-1 $514 1 $-1 $43 1 $-1 $375 1 $-1 $395 1 $-1 $515 1 $-1 $516 1 $-1 $517 1 $-1 $518 1 $-1 $519 1 $-1 $520 1 $-1 $521 1 $-1 $522 1 $-1 $523 1 $-1 $318 1 $-1 $524 1 $-1 $525 1 $-1 $526 1 $-1 $348 1 $-1 $527 1 $-1 $528 1 $-1 $529 1 $-1 $349 1 $-1 $530 1 $-1 $531 1 $-1 $532 1 $-1 $533 1 $-1 $534 1 $-1 $535 1 $-1 $319 1 $-1 $536 1 $-1 $537 1 $-1 $321 1 $-1 $315 1 $-1 $264 1 $-1 $538 0 0 0 #
-4 delta_state 140 1 0 $2 $6 $4 $-1 $0 F 1 $4 2 1 $-1 $360 1 $539 $361 1 $-1 $381 1 $540 $382 0 0 0 #
-5 delta_state 136 1 0 $7 $3 $5 $-1 $0 F 1 $5 2 1 $-1 $364 1 $541 $375 1 $542 $365 1 $-1 $394 1 $543 $395 1 $544 $386 1 $-1 $385 1 $-1 $545 1 $546 $532 1 $547 $504 1 $-1 $548 1 $549 $530 1 $550 $499 1 $-1 $551 1 $552 $527 1 $553 $489 1 $-1 $554 1 $-1 $555 1 $556 $528 1 $557 $490 1 $-1 $558 1 $559 $440 1 $560 $429 1 $-1 $561 1 $-1 $562 1 $-1 $563 1 $564 $428 1 $565 $415 1 $-1 $566 1 $567 $431 1 $568 $417 1 $-1 $569 1 $-1 $570 1 $-1 $571 0 0 0 #
-6 delta_state 139 1 0 $4 $8 $6 $-1 $0 F 1 $6 2 1 $-1 $392 1 $-1 $399 1 $-1 $12 1 $-1 $384 1 $-1 $401 1 $-1 $26 1 $-1 $400 1 $-1 $397 1 $-1 $396 1 $-1 $398 1 $-1 $382 1 $-1 $393 1 $-1 $377 1 $-1 $376 1 $-1 $378 1 $-1 $361 1 $-1 $373 1 $-1 $374 1 $-1 $369 1 $-1 $366 1 $572 $365 1 $-1 $387 1 $573 $386 1 $574 $3 1 $-1 $383 0 0 0 #
-7 delta_state 137 1 0 $8 $5 $7 $-1 $0 F 1 $7 2 1 $-1 $58 1 $-1 $77 1 $-1 $57 1 $-1 $293 1 $-1 $235 1 $-1 $163 1 $-1 $153 1 $571 $-1 1 $417 $-1 1 $531 $-1 1 $500 $-1 1 $425 $-1 1 $412 $-1 1 $416 $-1 1 $407 $-1 1 $516 $-1 1 $454 $-1 1 $-1 $303 1 $-1 $132 1 $-1 $243 1 $-1 $179 1 $-1 $124 1 $-1 $178 1 $-1 $249 1 $-1 $188 1 $-1 $131 1 $-1 $91 1 $-1 $130 1 $570 $-1 1 $429 $-1 1 $555 $-1 1 $490 $-1 1 $563 $-1 1 $415 $-1 1 $-1 $338 1 $-1 $182 1 $-1 $298 1 $-1 $238 1 $-1 $175 1 $-1 $237 1 $-1 $246 1 $-1 $181 1 $-1 $125 1 $-1 $180 1 $442 $-1 1 $434 $-1 1 $525 $-1 1 $480 $-1 1 $438 $-1 1 $427 $-1 1 $-1 $312 1 $-1 $193 1 $-1 $255 1 $-1 $190 1 $-1 $133 1 $-1 $189 1 $-1 $300 1 $-1 $240 1 $-1 $176 1 $-1 $239 1 $436 $-1 1 $421 $-1 1 $522 $-1 1 $470 $-1 1 $433 $-1 1 $419 $-1 1 $-1 $260 1 $-1 $141 1 $-1 $197 1 $-1 $138 1 $-1 $96 1 $-1 $137 1 $-1 $257 1 $-1 $192 1 $-1 $134 1 $-1 $191 1 $423 $-1 1 $411 $-1 1 $518 $-1 1 $459 $-1 1 $420 $-1 1 $409 $-1 1 $-1 $203 1 $-1 $103 1 $-1 $145 1 $-1 $100 1 $-1 $68 1 $-1 $99 1 $-1 $199 1 $-1 $140 1 $-1 $97 1 $-1 $139 1 $410 $-1 1 $405 $-1 1 $-1 $104 1 $-1 $185 1 $-1 $129 1 $-1 $90 1 $-1 $128 1 $-1 $148 1 $-1 $102 1 $-1 $69 1 $-1 $101 1 $-1 $72 1 $-1 $64 1 $-1 $45 1 $-1 $89 1 $-1 $62 1 $-1 $123 1 $-1 $87 1 $-1 $95 1 $-1 $65 1 $-1 $67 1 $-1 $46 1 $-1 $48 1 $-1 $33 1 $515 $-1 1 $453 $-1 1 $554 $-1 1 $499 $-1 1 $534 $-1 1 $510 $-1 1 $-1 $286 1 $562 $-1 1 $489 $-1 1 $545 $-1 1 $504 $-1 1 $-1 $279 1 $524 $-1 1 $479 $-1 1 $529 $-1 1 $494 $-1 1 $-1 $220 1 $521 $-1 1 $469 $-1 1 $526 $-1 1 $484 $-1 1 $-1 $173 1 $517 $-1 1 $458 $-1 1 $523 $-1 1 $474 $-1 1 $-1 $172 1 $519 $-1 1 $463 $-1 1 $-1 $229 1 $-1 $357 1 $-1 $344 1 $-1 $352 1 $-1 $330 1 $-1 $291 1 $-1 $317 1 $-1 $332 1 $-1 $284 1 $-1 $221 1 $-1 $250 1 $-1 $351 1 $-1 $325 1 $-1 $272 1 $-1 $301 1 $-1 $350 1 $-1 $324 1 $-1 $271 1 $-1 $304 1 $-1 $328 1 $-1 $277 1 $-1 $212 1 $-1 $276 1 $-1 $327 1 $-1 $275 1 $-1 $211 1 $-1 $274 1 $-1 $282 1 $-1 $218 1 $-1 $156 1 $-1 $217 1 $-1 $281 1 $-1 $216 1 $-1 $155 1 $-1 $215 1 $-1 $232 1 $-1 $169 1 $-1 $115 1 $-1 $168 1 $-1 $231 1 $-1 $167 1 $-1 $114 1 $-1 $166 1 $-1 $288 1 $-1 $226 1 $-1 $162 1 $-1 $200 1 $-1 $287 1 $-1 $225 1 $-1 $161 1 $-1 $204 1 $-1 $333 1 $-1 $285 1 $-1 $222 1 $-1 $247 1 $-1 $119 1 $-1 $85 1 $-1 $60 1 $-1 $110 1 $-1 $82 1 $-1 $154 1 $-1 $108 1 $-1 $210 1 $-1 $152 1 $-1 $160 1 $-1 $111 1 $-1 $113 1 $-1 $83 1 $-1 $112 1 $-1 $159 1 $-1 $84 1 $-1 $209 1 $-1 $109 1 $-1 $47 1 $-1 $63 1 $-1 $88 1 $-1 $66 1 $-1 $122 1 $-1 $94 1 $-1 $116 1 $-1 $223 1 $-1 $157 1 $-1 $213 1 $-1 $273 1 $-1 $92 1 $-1 $80 1 $-1 $126 1 $-1 $177 1 $-1 $135 1 $-1 $117 1 $473 $-1 1 $461 $-1 1 $475 $-1 1 $465 $-1 1 $476 $-1 1 $-1 $262 1 $575 $263 1 $464 $-1 1 $460 $-1 1 $-1 $165 1 $462 $-1 1 $456 $-1 1 $512 $-1 1 $-1 $230 1 $576 $314 1 $471 $-1 1 $485 $-1 1 $472 $-1 1 $-1 $118 1 $483 $-1 1 $486 $-1 1 $-1 $224 1 $509 $-1 1 $502 $-1 1 $511 $-1 1 $506 $-1 1 $-1 $158 1 $493 $-1 1 $482 $-1 1 $495 $-1 1 $496 $-1 1 $-1 $307 1 $577 $308 1 $455 $-1 1 $-1 $214 1 $503 $-1 1 $492 $-1 1 $505 $-1 1 $-1 $280 1 $578 $347 1 $481 $-1 1 $-1 $340 1 $579 $341 1 $501 $-1 1 $-1 $326 1 $580 $356 1 $491 $-1 1 $-1 $144 1 $-1 $201 1 $-1 $261 1 $-1 $146 1 $-1 $142 1 $-1 $70 1 $422 $-1 1 $402 $-1 1 $404 $-1 1 $447 $-1 1 $-1 $71 1 $413 $-1 1 $403 $-1 1 $446 $-1 1 $-1 $196 1 $-1 $258 1 $-1 $313 1 $-1 $198 1 $-1 $194 1 $-1 $93 1 $418 $-1 1 $406 $-1 1 $451 $-1 1 $-1 $184 1 $-1 $248 1 $-1 $306 1 $-1 $186 1 $-1 $183 1 $-1 $98 1 $435 $-1 1 $408 $-1 1 $448 $-1 1 $-1 $127 1 $430 $-1 1 $414 $-1 1 $450 $-1 1 $-1 $136 1 $439 $-1 1 $449 $-1 1 $-1 $254 1 $-1 $311 1 $-1 $346 1 $-1 $256 1 $-1 $252 1 $-1 $242 1 $-1 $302 1 $-1 $339 1 $-1 $244 1 $-1 $241 1 $-1 $297 1 $-1 $337 1 $-1 $359 1 $-1 $355 1 $-1 $299 1 $-1 $296 1 $477 $-1 1 $581 $202 1 $445 $-1 1 $582 $386 1 $466 $-1 1 $467 $-1 1 $487 $-1 1 $583 $259 1 $513 $-1 1 $514 $-1 1 $497 $-1 1 $584 $267 1 $507 $-1 1 $508 $-1 1 $-1 $147 1 $444 $-1 1 $585 $365 1 $-1 $143 1 $-1 $187 1 $-1 $195 1 $-1 $245 1 $-1 $253 1 $-1 $42 1 $-1 $18 1 $-1 $278 1 $-1 $353 1 $-1 $329 1 $-1 $219 1 $-1 $331 1 $-1 $283 1 $-1 $295 1 $-1 $354 1 $-1 $336 1 $-1 $234 1 $-1 $335 1 $-1 $294 1 $-1 $170 1 $-1 $292 1 $-1 $233 1 $-1 $227 1 $-1 $334 1 $-1 $289 1 $-1 $208 1 $-1 $323 1 $-1 $270 1 $-1 $151 1 $-1 $269 1 $-1 $207 1 $-1 $107 1 $-1 $206 1 $-1 $150 1 $-1 $79 1 $-1 $149 1 $-1 $106 1 $-1 $56 1 $-1 $105 1 $-1 $78 1 $-1 $41 1 $-1 $76 1 $-1 $55 1 $586 $3 1 $-1 $205 1 $-1 $320 1 $-1 $266 1 $-1 $251 1 $-1 $345 1 $-1 $309 1 $-1 $305 1 $-1 $358 1 $-1 $342 1 $538 $-1 1 $536 $-1 1 $537 $-1 1 $520 $-1 1 $535 $-1 1 $533 $-1 1 $548 $-1 1 $530 $-1 1 $551 $-1 1 $527 $-1 1 $532 $-1 1 $566 $-1 1 $431 $-1 1 $558 $-1 1 $440 $-1 1 $428 $-1 1 $528 $-1 1 $457 $-1 1 $468 $-1 1 $452 $-1 1 $478 $-1 1 $498 $-1 1 $488 $-1 1 $561 $-1 1 $424 $-1 1 $437 $-1 1 $426 $-1 1 $432 $-1 1 $443 $-1 1 $441 $-1 1 $569 $-1 0 0 0 #
-8 delta_state 138 1 0 $6 $7 $8 $-1 $0 F 1 $8 2 1 $-1 $164 1 $587 $113 1 $-1 $290 1 $588 $165 1 $-1 $236 1 $589 $117 1 $-1 $228 1 $-1 $171 0 0 0 #
End-of-ACIS-History-Section
-360 NMx_Matched_Entity-NamingMatching-attrib $-1 -1 $-1 $-1 $361 43 1 506 -1 73 0 #
-361 edge $360 -1 $-1 $376 -3.14159 $376 3.14159 $374 $378 forward @7 unknown #
-362 NMx_Hole_Brep_tag-NMx_Brep_Name_tag-NMx_Brep_tag-NamingMatching-attrib $-1 -1 $379 $-1 $363 43 1 465 -1 19 7 #
-363 face $362 -1 $-1 $29 $369 $3 $-1 $12 reversed single #
-364 NMx_Matched_Entity-NamingMatching-attrib $-1 -1 $375 $-1 $365 43 1 510 -1 3 1 #
-365 face $364 -1 $-1 $-1 $366 $3 $-1 $19 reversed single #
-366 loop $-1 -1 $-1 $18 $374 $365 #
-367 loop $-1 -1 $-1 $-1 $33 $365 #
-368 shell $-1 -1 $-1 $-1 $-1 $17 $-1 $2 #
-369 loop $-1 -1 $-1 $11 $373 $363 #
-370 loop $-1 -1 $-1 $-1 $21 $363 #
-371 face $28 156 $-1 $363 $30 $3 $-1 $31 forward single #
-372 face $264 175 $-1 $365 $143 $3 $-1 $265 forward single #
-373 coedge $-1 -1 $-1 $373 $373 $374 $361 reversed $369 0 $-1 #
-374 coedge $-1 -1 $-1 $374 $374 $373 $361 forward $366 0 $-1 #
-375 NMx_Generated_Brep_tag-NMx_Brep_Name_tag-NMx_Brep_tag-NamingMatching-attrib $-1 -1 $-1 $364 $365 43 1 77 -1 0 0 4 #
-376 vertex $-1 -1 $-1 $361 2 $377 #
-377 point $-1 -1 $-1 0 -4.07011e-16 3.3235 #
-378 ellipse-curve $-1 -1 $-1 0 0 0 1 0 0 0 0 -0.33235 1 I I #
-379 NMx_Feature_Orientation-NamingMatching-attrib $-1 -1 $380 $362 $363 43 $26 $-1 #
-380 NMx_Thread_Entity-NamingMatching-attrib $-1 -1 $-1 $379 $363 43 0.125 0.06765 1 6.8 -3.3235 -2.03506e-16 0 -3.3235 -2.03506e-16 24 0 -3.3235 -2.03506e-16 1 @1 8 @7 M8x1.25 4334 @18 ISO Metric profile @0  @0  1 @2 6H @4 1.25 @1 8 @4 8.34 @5 7.188 @5 7.348 @5 6.647 @5 6.912 @4 6.75 1 465 -1 6.8 0 0 -1 -0 -0 1 #
-381 NMx_Matched_Entity-NamingMatching-attrib $-1 -1 $-1 $-1 $382 43 1 488 -1 71 0 #
-382 edge $381 -1 $-1 $396 0 $396 6.28319 $393 $398 forward @7 unknown #
-383 NMx_Thread_Entity-NamingMatching-attrib $-1 -1 $400 $-1 $384 43 0.125 0.06765 1 6.8 -3.3235 -2.03506e-16 0 -3.3235 -2.03506e-16 24 0 -3.3235 -2.03506e-16 1 @1 8 @7 M8x1.25 4334 @18 ISO Metric profile @0  @0  1 @2 6H @4 1.25 @1 8 @4 8.34 @5 7.188 @5 7.348 @5 6.647 @5 6.912 @4 6.75 1 465 -1 6.8 0 0 -1 -0 -0 1 #
-384 face $383 -1 $-1 $41 $369 $3 $-1 $12 reversed single #
-385 NMx_Matched_Entity-NamingMatching-attrib $-1 -1 $394 $-1 $386 43 1 405 -1 10 1 #
-386 face $385 -1 $-1 $365 $387 $3 $-1 $43 forward single #
-387 loop $-1 -1 $-1 $42 $393 $386 #
-388 loop $-1 -1 $-1 $-1 $60 $386 #
-389 shell $-1 -1 $-1 $-1 $-1 $384 $-1 $2 #
-390 loop $-1 -1 $-1 $399 $373 $384 #
-391 face $264 175 $-1 $386 $143 $3 $-1 $265 forward single #
-392 coedge $-1 -1 $-1 $392 $392 $393 $382 reversed $399 0 $-1 #
-393 coedge $-1 -1 $-1 $393 $393 $392 $382 forward $387 0 $-1 #
-394 NMx_Matched_Entity-NamingMatching-attrib $-1 -1 $395 $385 $386 43 1 492 -1 10 1 #
-395 NMx_Generated_Brep_tag-NMx_Brep_Name_tag-NMx_Brep_tag-NamingMatching-attrib $-1 -1 $-1 $394 $386 43 1 77 -1 0 0 12 #
-396 vertex $-1 -1 $-1 $382 2 $397 #
-397 point $-1 -1 $-1 6.8 0 -3.3235 #
-398 ellipse-curve $-1 -1 $-1 6.8 0 0 -1 -0 -0 0 0 -0.33235 1 I I #
-399 loop $-1 -1 $-1 $-1 $392 $384 #
-400 NMx_Feature_Orientation-NamingMatching-attrib $-1 -1 $401 $383 $384 43 $26 $-1 #
-401 NMx_Hole_Brep_tag-NMx_Brep_Name_tag-NMx_Brep_tag-NamingMatching-attrib $-1 -1 $-1 $400 $384 43 1 465 -1 19 7 #
-402 coedge $-1 -1 $-1 $403 $404 $446 $405 forward $444 0 $-1 #
-403 coedge $-1 -1 $-1 $406 $402 $451 $407 forward $444 0 $-1 #
-404 coedge $-1 -1 $-1 $402 $408 $447 $409 forward $444 0 $-1 #
-405 edge $410 -1 $-1 $411 0 $412 0.750555 $402 $413 forward @7 unknown #
-406 coedge $-1 -1 $-1 $414 $403 $450 $415 forward $444 0 $-1 #
-407 edge $416 -1 $-1 $412 0 $417 0.750555 $403 $418 forward @7 unknown #
-408 coedge $-1 -1 $-1 $404 $414 $448 $419 forward $444 0 $-1 #
-409 edge $420 -1 $-1 $421 0 $411 0.750555 $404 $422 forward @7 unknown #
-410 NMx_Generated_Brep_tag-NMx_Brep_Name_tag-NMx_Brep_tag-NamingMatching-attrib $-1 -1 $-1 $-1 $405 43 1 77 -1 10 0 2 #
-411 vertex $423 -1 $-1 $405 0 $424 #
-412 vertex $425 -1 $-1 $405 1 $426 #
-413 straight-curve $-1 -1 $-1 0 -7.50555 8.14492e-16 0 0.5 0.866025 F 0 F 0.750555 #
-414 coedge $-1 -1 $-1 $408 $406 $449 $427 forward $444 0 $-1 #
-415 edge $563 -1 $-1 $417 0 $429 0.750555 $406 $430 forward @7 unknown #
-416 NMx_Generated_Brep_tag-NMx_Brep_Name_tag-NMx_Brep_tag-NamingMatching-attrib $-1 -1 $-1 $-1 $407 43 1 77 -1 11 0 2 #
-417 vertex $571 -1 $-1 $407 1 $432 #
-418 straight-curve $-1 -1 $-1 0 -3.75278 6.5 0 1 0 F 0 F 0.750555 #
-419 edge $433 -1 $-1 $434 0 $421 0.750555 $408 $435 forward @7 unknown #
-420 NMx_Generated_Brep_tag-NMx_Brep_Name_tag-NMx_Brep_tag-NamingMatching-attrib $-1 -1 $-1 $-1 $409 43 1 77 -1 15 0 2 #
-421 vertex $436 -1 $-1 $419 1 $437 #
-422 straight-curve $-1 -1 $-1 0 -3.75278 -6.5 0 -0.5 0.866025 F 0 F 0.750555 #
-423 NMx_Generated_Brep_tag-NMx_Brep_Name_tag-NMx_Brep_tag-NamingMatching-attrib $-1 -1 $-1 $-1 $411 43 1 77 -1 4 0 1 #
-424 point $-1 -1 $-1 0 -7.50555 8.14492e-16 #
-425 NMx_Generated_Brep_tag-NMx_Brep_Name_tag-NMx_Brep_tag-NamingMatching-attrib $-1 -1 $-1 $-1 $412 43 1 77 -1 5 0 1 #
-426 point $-1 -1 $-1 0 -3.75278 6.5 #
-427 edge $438 -1 $-1 $429 0 $434 0.750555 $414 $439 forward @7 unknown #
-428 NMx_Generated_Brep_tag-NMx_Brep_Name_tag-NMx_Brep_tag-NamingMatching-attrib $-1 -1 $-1 $563 $415 43 1 77 -1 12 0 2 #
-429 vertex $570 -1 $-1 $415 1 $441 #
-430 straight-curve $-1 -1 $-1 0 3.75278 6.5 0 0.5 -0.866025 F 0 F 0.750555 #
-431 NMx_Generated_Brep_tag-NMx_Brep_Name_tag-NMx_Brep_tag-NamingMatching-attrib $-1 -1 $-1 $566 $417 43 1 77 -1 6 0 1 #
-432 point $-1 -1 $-1 0 3.75278 6.5 #
-433 NMx_Generated_Brep_tag-NMx_Brep_Name_tag-NMx_Brep_tag-NamingMatching-attrib $-1 -1 $-1 $-1 $419 43 1 77 -1 14 0 2 #
-434 vertex $442 -1 $-1 $427 1 $443 #
-435 straight-curve $-1 -1 $-1 0 3.75278 -6.5 0 -1 -1.77504e-15 F 0 F 0.750555 #
-436 NMx_Generated_Brep_tag-NMx_Brep_Name_tag-NMx_Brep_tag-NamingMatching-attrib $-1 -1 $-1 $-1 $421 43 1 77 -1 9 0 1 #
-437 point $-1 -1 $-1 0 -3.75278 -6.5 #
-438 NMx_Generated_Brep_tag-NMx_Brep_Name_tag-NMx_Brep_tag-NamingMatching-attrib $-1 -1 $-1 $-1 $427 43 1 77 -1 13 0 2 #
-439 straight-curve $-1 -1 $-1 0 7.50555 2.48106e-15 0 -0.5 -0.866025 F 0 F 0.750555 #
-440 NMx_Generated_Brep_tag-NMx_Brep_Name_tag-NMx_Brep_tag-NamingMatching-attrib $-1 -1 $-1 $558 $429 43 1 77 -1 7 0 1 #
-441 point $-1 -1 $-1 0 7.50555 2.48106e-15 #
-442 NMx_Generated_Brep_tag-NMx_Brep_Name_tag-NMx_Brep_tag-NamingMatching-attrib $-1 -1 $-1 $-1 $434 43 1 77 -1 8 0 1 #
-443 point $-1 -1 $-1 0 3.75278 -6.5 #
-444 loop $-1 -1 $-1 $-1 $402 $365 #
-445 loop $-1 -1 $-1 $-1 $512 $386 #
-446 coedge $-1 -1 $-1 $460 $456 $402 $405 reversed $466 0 $-1 #
-447 coedge $-1 -1 $-1 $471 $461 $404 $409 reversed $477 0 $-1 #
-448 coedge $-1 -1 $-1 $481 $472 $408 $419 reversed $487 0 $-1 #
-449 coedge $-1 -1 $-1 $491 $482 $414 $427 reversed $497 0 $-1 #
-450 coedge $-1 -1 $-1 $501 $492 $406 $415 reversed $507 0 $-1 #
-451 coedge $-1 -1 $-1 $455 $502 $403 $407 reversed $513 0 $-1 #
-452 point $-1 -1 $-1 6.8 -3.75278 6.5 #
-453 vertex $515 -1 $-1 $454 2 $452 #
-454 edge $516 -1 $-1 $412 0 $453 0.68 $455 $308 forward @7 unknown #
-455 coedge $-1 -1 $-1 $511 $451 $456 $454 forward $513 0 $-1 #
-456 coedge $-1 -1 $-1 $446 $464 $455 $454 reversed $466 0 $-1 #
-457 point $-1 -1 $-1 6.8 -7.50555 8.14492e-16 #
-458 vertex $517 -1 $-1 $459 2 $457 #
-459 edge $518 -1 $-1 $411 0 $458 0.68 $460 $263 forward @7 unknown #
-460 coedge $-1 -1 $-1 $464 $446 $461 $459 forward $466 0 $-1 #
-461 coedge $-1 -1 $-1 $447 $475 $460 $459 reversed $477 0 $-1 #
-462 straight-curve $-1 -1 $-1 6.8 -7.50555 8.14492e-16 0 0.5 0.866025 F 0 F 0.750555 #
-463 edge $519 -1 $-1 $458 0 $453 0.750555 $464 $462 forward @7 unknown #
-464 coedge $-1 -1 $-1 $456 $460 $465 $463 forward $466 0 $-1 #
-465 coedge $-1 -1 $-1 $476 $512 $464 $463 reversed $445 0 $-1 #
-466 loop $-1 -1 $-1 $-1 $464 $467 #
-467 face $538 -1 $-1 $386 $466 $3 $-1 $268 forward single #
-468 point $-1 -1 $-1 6.8 -3.75278 -6.5 #
-469 vertex $521 -1 $-1 $470 2 $468 #
-470 edge $522 -1 $-1 $421 0 $469 0.68 $471 $314 forward @7 unknown #
-471 coedge $-1 -1 $-1 $475 $447 $472 $470 forward $477 0 $-1 #
-472 coedge $-1 -1 $-1 $448 $485 $471 $470 reversed $487 0 $-1 #
-473 straight-curve $-1 -1 $-1 6.8 -3.75278 -6.5 0 -0.5 0.866025 F 0 F 0.750555 #
-474 edge $523 -1 $-1 $469 0 $458 0.750555 $475 $473 forward @7 unknown #
-475 coedge $-1 -1 $-1 $461 $471 $476 $474 forward $477 0 $-1 #
-476 coedge $-1 -1 $-1 $486 $465 $475 $474 reversed $445 0 $-1 #
-477 loop $-1 -1 $-1 $-1 $475 $202 #
-478 point $-1 -1 $-1 6.8 3.75278 -6.5 #
-479 vertex $524 -1 $-1 $480 2 $478 #
-480 edge $525 -1 $-1 $434 0 $479 0.68 $481 $347 forward @7 unknown #
-481 coedge $-1 -1 $-1 $485 $448 $482 $480 forward $487 0 $-1 #
-482 coedge $-1 -1 $-1 $449 $495 $481 $480 reversed $497 0 $-1 #
-483 straight-curve $-1 -1 $-1 6.8 3.75278 -6.5 0 -1 -1.77504e-15 F 0 F 0.750555 #
-484 edge $526 -1 $-1 $479 0 $469 0.750555 $485 $483 forward @7 unknown #
-485 coedge $-1 -1 $-1 $472 $481 $486 $484 forward $487 0 $-1 #
-486 coedge $-1 -1 $-1 $496 $476 $485 $484 reversed $445 0 $-1 #
-487 loop $-1 -1 $-1 $-1 $485 $259 #
-488 point $-1 -1 $-1 6.8 7.50555 2.48106e-15 #
-489 vertex $562 -1 $-1 $490 2 $488 #
-490 edge $555 -1 $-1 $429 0 $489 0.68 $491 $356 forward @7 unknown #
-491 coedge $-1 -1 $-1 $495 $449 $492 $490 forward $497 0 $-1 #
-492 coedge $-1 -1 $-1 $450 $505 $491 $490 reversed $507 0 $-1 #
-493 straight-curve $-1 -1 $-1 6.8 7.50555 2.48106e-15 0 -0.5 -0.866025 F 0 F 0.750555 #
-494 edge $529 -1 $-1 $489 0 $479 0.750555 $495 $493 forward @7 unknown #
-495 coedge $-1 -1 $-1 $482 $491 $496 $494 forward $497 0 $-1 #
-496 coedge $-1 -1 $-1 $506 $486 $495 $494 reversed $445 0 $-1 #
-497 loop $-1 -1 $-1 $-1 $495 $267 #
-498 point $-1 -1 $-1 6.8 3.75278 6.5 #
-499 vertex $554 -1 $-1 $500 2 $498 #
-500 edge $531 -1 $-1 $417 0 $499 0.68 $501 $341 forward @7 unknown #
-501 coedge $-1 -1 $-1 $505 $450 $502 $500 forward $507 0 $-1 #
-502 coedge $-1 -1 $-1 $451 $511 $501 $500 reversed $513 0 $-1 #
-503 straight-curve $-1 -1 $-1 6.8 3.75278 6.5 0 0.5 -0.866025 F 0 F 0.750555 #
-504 edge $545 -1 $-1 $499 0 $489 0.750555 $505 $503 forward @7 unknown #
-505 coedge $-1 -1 $-1 $492 $501 $506 $504 forward $507 0 $-1 #
-506 coedge $-1 -1 $-1 $512 $496 $505 $504 reversed $445 0 $-1 #
-507 loop $-1 -1 $-1 $-1 $505 $508 #
-508 face $537 -1 $-1 $267 $507 $3 $-1 $343 forward single #
-509 straight-curve $-1 -1 $-1 6.8 -3.75278 6.5 0 1 0 F 0 F 0.750555 #
-510 edge $534 -1 $-1 $453 0 $499 0.750555 $511 $509 forward @7 unknown #
-511 coedge $-1 -1 $-1 $502 $455 $512 $510 forward $513 0 $-1 #
-512 coedge $-1 -1 $-1 $465 $506 $511 $510 reversed $445 0 $-1 #
-513 loop $-1 -1 $-1 $-1 $511 $514 #
-514 face $536 -1 $-1 $508 $513 $3 $-1 $310 forward single #
-515 NMx_Generated_Brep_tag-NMx_Brep_Name_tag-NMx_Brep_tag-NamingMatching-attrib $-1 -1 $-1 $-1 $453 43 1 77 -1 5 0 9 #
-516 NMx_Generated_Brep_tag-NMx_Brep_Name_tag-NMx_Brep_tag-NamingMatching-attrib $-1 -1 $-1 $-1 $454 43 1 77 -1 5 0 18 #
-517 NMx_Generated_Brep_tag-NMx_Brep_Name_tag-NMx_Brep_tag-NamingMatching-attrib $-1 -1 $-1 $-1 $458 43 1 77 -1 4 0 9 #
-518 NMx_Generated_Brep_tag-NMx_Brep_Name_tag-NMx_Brep_tag-NamingMatching-attrib $-1 -1 $-1 $-1 $459 43 1 77 -1 4 0 18 #
-519 NMx_Generated_Brep_tag-NMx_Brep_Name_tag-NMx_Brep_tag-NamingMatching-attrib $-1 -1 $-1 $-1 $463 43 1 77 -1 10 0 10 #
-520 NMx_Generated_Brep_tag-NMx_Brep_Name_tag-NMx_Brep_tag-NamingMatching-attrib $-1 -1 $-1 $538 $467 43 1 77 -1 10 0 20 #
-521 NMx_Generated_Brep_tag-NMx_Brep_Name_tag-NMx_Brep_tag-NamingMatching-attrib $-1 -1 $-1 $-1 $469 43 1 77 -1 9 0 9 #
-522 NMx_Generated_Brep_tag-NMx_Brep_Name_tag-NMx_Brep_tag-NamingMatching-attrib $-1 -1 $-1 $-1 $470 43 1 77 -1 9 0 18 #
-523 NMx_Generated_Brep_tag-NMx_Brep_Name_tag-NMx_Brep_tag-NamingMatching-attrib $-1 -1 $-1 $-1 $474 43 1 77 -1 15 0 10 #
-524 NMx_Generated_Brep_tag-NMx_Brep_Name_tag-NMx_Brep_tag-NamingMatching-attrib $-1 -1 $-1 $-1 $479 43 1 77 -1 8 0 9 #
-525 NMx_Generated_Brep_tag-NMx_Brep_Name_tag-NMx_Brep_tag-NamingMatching-attrib $-1 -1 $-1 $-1 $480 43 1 77 -1 8 0 18 #
-526 NMx_Generated_Brep_tag-NMx_Brep_Name_tag-NMx_Brep_tag-NamingMatching-attrib $-1 -1 $-1 $-1 $484 43 1 77 -1 14 0 10 #
-527 NMx_Generated_Brep_tag-NMx_Brep_Name_tag-NMx_Brep_tag-NamingMatching-attrib $-1 -1 $-1 $551 $489 43 1 77 -1 7 0 9 #
-528 NMx_Generated_Brep_tag-NMx_Brep_Name_tag-NMx_Brep_tag-NamingMatching-attrib $-1 -1 $-1 $555 $490 43 1 77 -1 7 0 18 #
-529 NMx_Generated_Brep_tag-NMx_Brep_Name_tag-NMx_Brep_tag-NamingMatching-attrib $-1 -1 $-1 $-1 $494 43 1 77 -1 13 0 10 #
-530 NMx_Generated_Brep_tag-NMx_Brep_Name_tag-NMx_Brep_tag-NamingMatching-attrib $-1 -1 $-1 $548 $499 43 1 77 -1 6 0 9 #
-531 NMx_Generated_Brep_tag-NMx_Brep_Name_tag-NMx_Brep_tag-NamingMatching-attrib $-1 -1 $-1 $-1 $500 43 1 77 -1 6 0 18 #
-532 NMx_Generated_Brep_tag-NMx_Brep_Name_tag-NMx_Brep_tag-NamingMatching-attrib $-1 -1 $-1 $545 $504 43 1 77 -1 12 0 10 #
-533 NMx_Generated_Brep_tag-NMx_Brep_Name_tag-NMx_Brep_tag-NamingMatching-attrib $-1 -1 $-1 $537 $508 43 1 77 -1 12 0 20 #
-534 NMx_Generated_Brep_tag-NMx_Brep_Name_tag-NMx_Brep_tag-NamingMatching-attrib $-1 -1 $-1 $-1 $510 43 1 77 -1 11 0 10 #
-535 NMx_Generated_Brep_tag-NMx_Brep_Name_tag-NMx_Brep_tag-NamingMatching-attrib $-1 -1 $-1 $536 $514 43 1 77 -1 11 0 20 #
-536 NMx_Feature_Orientation-NamingMatching-attrib $-1 -1 $535 $-1 $514 43 $319 $-1 #
-537 NMx_Feature_Orientation-NamingMatching-attrib $-1 -1 $533 $-1 $508 43 $319 $-1 #
-538 NMx_Feature_Orientation-NamingMatching-attrib $-1 -1 $520 $-1 $467 43 $319 $-1 #
-539 edge $-1 -1 $-1 $376 -3.14159 $376 3.14159 $374 $378 forward @7 unknown #
-540 edge $-1 -1 $-1 $396 0 $396 6.28319 $393 $398 forward @7 unknown #
-541 NMx_Generated_Brep_tag-NMx_Brep_Name_tag-NMx_Brep_tag-NamingMatching-attrib $-1 -1 $-1 $-1 $365 43 1 77 -1 0 0 4 #
-542 face $375 -1 $-1 $-1 $444 $3 $-1 $19 reversed single #
-543 NMx_Generated_Brep_tag-NMx_Brep_Name_tag-NMx_Brep_tag-NamingMatching-attrib $-1 -1 $-1 $-1 $386 43 1 77 -1 0 0 12 #
-544 face $395 -1 $-1 $365 $445 $3 $-1 $43 forward single #
-545 NMx_Matched_Entity-NamingMatching-attrib $-1 -1 $532 $-1 $504 43 1 119 -1 11 0 #
-546 NMx_Generated_Brep_tag-NMx_Brep_Name_tag-NMx_Brep_tag-NamingMatching-attrib $-1 -1 $-1 $-1 $504 43 1 77 -1 12 0 10 #
-547 edge $532 -1 $-1 $499 0 $489 0.750555 $505 $503 forward @7 unknown #
-548 NMx_Matched_Entity-NamingMatching-attrib $-1 -1 $530 $554 $499 43 1 119 -1 9 1 #
-549 NMx_Generated_Brep_tag-NMx_Brep_Name_tag-NMx_Brep_tag-NamingMatching-attrib $-1 -1 $-1 $-1 $499 43 1 77 -1 6 0 9 #
-550 vertex $530 -1 $-1 $500 2 $498 #
-551 NMx_Matched_Entity-NamingMatching-attrib $-1 -1 $527 $561 $489 43 1 119 -1 6 1 #
-552 NMx_Generated_Brep_tag-NMx_Brep_Name_tag-NMx_Brep_tag-NamingMatching-attrib $-1 -1 $-1 $-1 $489 43 1 77 -1 7 0 9 #
-553 vertex $527 -1 $-1 $490 2 $488 #
-554 NMx_Matched_Entity-NamingMatching-attrib $-1 -1 $548 $-1 $499 43 1 115 -1 9 1 #
-555 NMx_Matched_Entity-NamingMatching-attrib $-1 -1 $528 $-1 $490 43 1 111 -1 8 0 #
-556 NMx_Generated_Brep_tag-NMx_Brep_Name_tag-NMx_Brep_tag-NamingMatching-attrib $-1 -1 $-1 $-1 $490 43 1 77 -1 7 0 18 #
-557 edge $528 -1 $-1 $429 0 $489 0.68 $491 $356 forward @7 unknown #
-558 NMx_Matched_Entity-NamingMatching-attrib $-1 -1 $440 $569 $429 43 1 111 -1 2 1 #
-559 NMx_Generated_Brep_tag-NMx_Brep_Name_tag-NMx_Brep_tag-NamingMatching-attrib $-1 -1 $-1 $-1 $429 43 1 77 -1 7 0 1 #
-560 vertex $440 -1 $-1 $415 1 $441 #
-561 NMx_Matched_Entity-NamingMatching-attrib $-1 -1 $551 $562 $489 43 1 111 -1 6 1 #
-562 NMx_Matched_Entity-NamingMatching-attrib $-1 -1 $561 $-1 $489 43 1 107 -1 6 1 #
-563 NMx_Matched_Entity-NamingMatching-attrib $-1 -1 $428 $-1 $415 43 1 103 -1 5 0 #
-564 NMx_Generated_Brep_tag-NMx_Brep_Name_tag-NMx_Brep_tag-NamingMatching-attrib $-1 -1 $-1 $-1 $415 43 1 77 -1 12 0 2 #
-565 edge $428 -1 $-1 $417 0 $429 0.750555 $406 $430 forward @7 unknown #
-566 NMx_Matched_Entity-NamingMatching-attrib $-1 -1 $431 $571 $417 43 1 103 -1 1 1 #
-567 NMx_Generated_Brep_tag-NMx_Brep_Name_tag-NMx_Brep_tag-NamingMatching-attrib $-1 -1 $-1 $-1 $417 43 1 77 -1 6 0 1 #
-568 vertex $431 -1 $-1 $407 1 $432 #
-569 NMx_Matched_Entity-NamingMatching-attrib $-1 -1 $558 $570 $429 43 1 103 -1 2 1 #
-570 NMx_Matched_Entity-NamingMatching-attrib $-1 -1 $569 $-1 $429 43 1 99 -1 2 1 #
-571 NMx_Matched_Entity-NamingMatching-attrib $-1 -1 $566 $-1 $417 43 1 95 -1 1 1 #
-572 face $364 -1 $-1 $-1 $18 $3 $-1 $19 reversed single #
-573 face $385 -1 $-1 $365 $42 $3 $-1 $43 forward single #
-574 shell $-1 -1 $-1 $-1 $-1 $41 $-1 $2 #
-575 straight-curve $-1 -1 $-1 0 -7.50555 8.14492e-16 1 0 0 I I #
-576 straight-curve $-1 -1 $-1 0 -3.75278 -6.5 1 0 0 I I #
-577 straight-curve $-1 -1 $-1 0 -3.75278 6.5 1 0 0 I I #
-578 straight-curve $-1 -1 $-1 0 3.75278 -6.5 1 0 0 I I #
-579 straight-curve $-1 -1 $-1 0 3.75278 6.5 1 0 0 I I #
-580 straight-curve $-1 -1 $-1 0 7.50555 2.48106e-15 1 0 0 I I #
-581 face $264 175 $-1 $467 $477 $3 $-1 $265 forward single #
-582 face $385 -1 $-1 $365 $445 $3 $-1 $43 forward single #
-583 face $315 174 $-1 $202 $487 $3 $-1 $316 forward single #
-584 face $321 173 $-1 $259 $497 $3 $-1 $322 forward single #
-585 face $364 -1 $-1 $-1 $444 $3 $-1 $19 reversed single #
-586 shell $-1 -1 $-1 $-1 $-1 $514 $-1 $2 #
-587 edge $-1 191 $-1 $165 2.61799 $117 3.66519 $83 $119 forward @7 unknown #
-588 vertex $-1 -1 $-1 $113 0 $229 #
-589 vertex $-1 -1 $-1 $113 1 $172 #

End-of-ACIS-data
